G04 #@! TF.GenerationSoftware,KiCad,Pcbnew,(6.0.0-rc1-dev-209-g91e3d21d6)*
G04 #@! TF.CreationDate,2022-02-26T20:17:17+01:00*
G04 #@! TF.ProjectId,new_worm3,6E65775F776F726D332E6B696361645F,rev?*
G04 #@! TF.SameCoordinates,Original*
G04 #@! TF.FileFunction,Legend,Top*
G04 #@! TF.FilePolarity,Positive*
%FSLAX46Y46*%
G04 Gerber Fmt 4.6, Leading zero omitted, Abs format (unit mm)*
G04 Created by KiCad (PCBNEW (6.0.0-rc1-dev-209-g91e3d21d6)) date Sat Feb 26 20:17:17 2022*
%MOMM*%
%LPD*%
G01*
G04 APERTURE LIST*
%ADD10C,0.099060*%
%ADD11C,0.127000*%
%ADD12C,0.304800*%
%ADD13C,0.203200*%
%ADD14C,0.381000*%
%ADD15C,0.066040*%
%ADD16C,0.101600*%
%ADD17C,0.050800*%
%ADD18C,0.317500*%
%ADD19C,0.074930*%
%ADD20C,0.076200*%
%ADD21C,0.271780*%
%ADD22C,0.250190*%
%ADD23C,0.251460*%
G04 APERTURE END LIST*
D10*
G04 #@! TO.C,U7*
X119999760Y-74653140D02*
X137099040Y-74653140D01*
X137099040Y-74653140D02*
X137099040Y-62252860D01*
X137099040Y-62252860D02*
X119999760Y-62252860D01*
X119999760Y-62252860D02*
X119999760Y-74653140D01*
G04 #@! TO.C,U8*
X172570140Y-59674760D02*
X155470860Y-59674760D01*
X155470860Y-59674760D02*
X155470860Y-72075040D01*
X155470860Y-72075040D02*
X172570140Y-72075040D01*
X172570140Y-72075040D02*
X172570140Y-59674760D01*
D11*
G04 #@! TO.C,audioint1*
X164389870Y-98077020D02*
G75*
G03X164389870Y-98077020I-359210J0D01*
G01*
X166824660Y-97569020D02*
X166824660Y-98331020D01*
X166824660Y-98331020D02*
X165554660Y-98331020D01*
X165554660Y-98331020D02*
X165554660Y-97569020D01*
X163522660Y-107856020D02*
X163522660Y-97569020D01*
X168856660Y-97569020D02*
X168856660Y-107856020D01*
X168856660Y-97569020D02*
X163522660Y-97569020D01*
X168856660Y-107856020D02*
X163522660Y-107856020D01*
D10*
G04 #@! TO.C,D4*
X172039280Y-150411180D02*
X173639480Y-150411180D01*
X172039280Y-150312120D02*
X173639480Y-150312120D01*
X173639480Y-150210520D02*
X172039280Y-150210520D01*
X172039280Y-150111460D02*
X173639480Y-150111460D01*
X173639480Y-150009860D02*
X172039280Y-150009860D01*
X172039280Y-149410420D02*
X173588680Y-149410420D01*
X173639480Y-149512020D02*
X172039280Y-149512020D01*
X173639480Y-149611080D02*
X172039280Y-149611080D01*
X172039280Y-149710140D02*
X173639480Y-149710140D01*
X173639480Y-149811740D02*
X172039280Y-149811740D01*
X172039280Y-149910800D02*
X173639480Y-149910800D01*
X172039280Y-152059640D02*
X172039280Y-149362160D01*
X172039280Y-149362160D02*
X173639480Y-149362160D01*
X173639480Y-149362160D02*
X173639480Y-152059640D01*
X173639480Y-152059640D02*
X172039280Y-152059640D01*
G04 #@! TO.C,D3*
X171909740Y-142311120D02*
X173509940Y-142311120D01*
X171909740Y-142212060D02*
X173509940Y-142212060D01*
X173509940Y-142110460D02*
X171909740Y-142110460D01*
X171909740Y-142011400D02*
X173509940Y-142011400D01*
X173509940Y-141909800D02*
X171909740Y-141909800D01*
X171909740Y-141310360D02*
X173459140Y-141310360D01*
X173509940Y-141411960D02*
X171909740Y-141411960D01*
X173509940Y-141511020D02*
X171909740Y-141511020D01*
X171909740Y-141610080D02*
X173509940Y-141610080D01*
X173509940Y-141711680D02*
X171909740Y-141711680D01*
X171909740Y-141810740D02*
X173509940Y-141810740D01*
X171909740Y-143959580D02*
X171909740Y-141262100D01*
X171909740Y-141262100D02*
X173509940Y-141262100D01*
X173509940Y-141262100D02*
X173509940Y-143959580D01*
X173509940Y-143959580D02*
X171909740Y-143959580D01*
D11*
G04 #@! TO.C,U5*
X158661100Y-142100300D02*
X158661100Y-147180300D01*
X158661100Y-147180300D02*
X154089100Y-147180300D01*
X154089100Y-147180300D02*
X154089100Y-142100300D01*
X154089100Y-142100300D02*
X158661100Y-142100300D01*
X157137100Y-142100300D02*
X157137100Y-142608300D01*
X157137100Y-142608300D02*
X155867100Y-142608300D01*
X155867100Y-142608300D02*
X155867100Y-142100300D01*
G04 #@! TO.C,U6*
X158125160Y-121119900D02*
X158125160Y-126199900D01*
X158125160Y-126199900D02*
X153553160Y-126199900D01*
X153553160Y-126199900D02*
X153553160Y-121119900D01*
X153553160Y-121119900D02*
X158125160Y-121119900D01*
X156601160Y-121119900D02*
X156601160Y-121627900D01*
X156601160Y-121627900D02*
X155331160Y-121627900D01*
X155331160Y-121627900D02*
X155331160Y-121119900D01*
G04 #@! TO.C,U9*
X141008100Y-146735800D02*
X141008100Y-151815800D01*
X141008100Y-151815800D02*
X136436100Y-151815800D01*
X136436100Y-151815800D02*
X136436100Y-146735800D01*
X136436100Y-146735800D02*
X141008100Y-146735800D01*
X139484100Y-146735800D02*
X139484100Y-147243800D01*
X139484100Y-147243800D02*
X138214100Y-147243800D01*
X138214100Y-147243800D02*
X138214100Y-146735800D01*
G04 #@! TO.C,U10*
X131912360Y-142930880D02*
X131912360Y-148010880D01*
X131912360Y-148010880D02*
X127340360Y-148010880D01*
X127340360Y-148010880D02*
X127340360Y-142930880D01*
X127340360Y-142930880D02*
X131912360Y-142930880D01*
X130388360Y-142930880D02*
X130388360Y-143438880D01*
X130388360Y-143438880D02*
X129118360Y-143438880D01*
X129118360Y-143438880D02*
X129118360Y-142930880D01*
G04 #@! TO.C,C34*
X160550860Y-111102140D02*
X160804860Y-111102140D01*
X160804860Y-111102140D02*
X160804860Y-108816140D01*
X160804860Y-108816140D02*
X160550860Y-108816140D01*
X160550860Y-111102140D02*
X160550860Y-108816140D01*
X160550860Y-108816140D02*
X158899860Y-108816140D01*
X157121860Y-111102140D02*
X155470860Y-111102140D01*
X155470860Y-111102140D02*
X155470860Y-108816140D01*
X155470860Y-108816140D02*
X157121860Y-108816140D01*
X158899860Y-111102140D02*
X160550860Y-111102140D01*
G04 #@! TO.C,C25*
X154228800Y-65024000D02*
X154228800Y-64770000D01*
X154228800Y-64770000D02*
X151942800Y-64770000D01*
X151942800Y-64770000D02*
X151942800Y-65024000D01*
X154228800Y-65024000D02*
X151942800Y-65024000D01*
X151942800Y-65024000D02*
X151942800Y-66675000D01*
X154228800Y-68453000D02*
X154228800Y-70104000D01*
X154228800Y-70104000D02*
X151942800Y-70104000D01*
X151942800Y-70104000D02*
X151942800Y-68453000D01*
X154228800Y-66675000D02*
X154228800Y-65024000D01*
G04 #@! TO.C,C26*
X168109900Y-108397040D02*
X167855900Y-108397040D01*
X167855900Y-108397040D02*
X167855900Y-110683040D01*
X167855900Y-110683040D02*
X168109900Y-110683040D01*
X168109900Y-108397040D02*
X168109900Y-110683040D01*
X168109900Y-110683040D02*
X169760900Y-110683040D01*
X171538900Y-108397040D02*
X173189900Y-108397040D01*
X173189900Y-108397040D02*
X173189900Y-110683040D01*
X173189900Y-110683040D02*
X171538900Y-110683040D01*
X169760900Y-108397040D02*
X168109900Y-108397040D01*
G04 #@! TO.C,C20*
X164185600Y-139966700D02*
X164185600Y-139712700D01*
X164185600Y-139712700D02*
X161899600Y-139712700D01*
X161899600Y-139712700D02*
X161899600Y-139966700D01*
X164185600Y-139966700D02*
X161899600Y-139966700D01*
X161899600Y-139966700D02*
X161899600Y-141617700D01*
X164185600Y-143395700D02*
X164185600Y-145046700D01*
X164185600Y-145046700D02*
X161899600Y-145046700D01*
X161899600Y-145046700D02*
X161899600Y-143395700D01*
X164185600Y-141617700D02*
X164185600Y-139966700D01*
G04 #@! TO.C,C21*
X148333460Y-65069720D02*
X148333460Y-64815720D01*
X148333460Y-64815720D02*
X146047460Y-64815720D01*
X146047460Y-64815720D02*
X146047460Y-65069720D01*
X148333460Y-65069720D02*
X146047460Y-65069720D01*
X146047460Y-65069720D02*
X146047460Y-66720720D01*
X148333460Y-68498720D02*
X148333460Y-70149720D01*
X148333460Y-70149720D02*
X146047460Y-70149720D01*
X146047460Y-70149720D02*
X146047460Y-68498720D01*
X148333460Y-66720720D02*
X148333460Y-65069720D01*
G04 #@! TO.C,C22*
X140081000Y-70358000D02*
X140081000Y-70104000D01*
X140081000Y-70104000D02*
X137795000Y-70104000D01*
X137795000Y-70104000D02*
X137795000Y-70358000D01*
X140081000Y-70358000D02*
X137795000Y-70358000D01*
X137795000Y-70358000D02*
X137795000Y-72009000D01*
X140081000Y-73787000D02*
X140081000Y-75438000D01*
X140081000Y-75438000D02*
X137795000Y-75438000D01*
X137795000Y-75438000D02*
X137795000Y-73787000D01*
X140081000Y-72009000D02*
X140081000Y-70358000D01*
G04 #@! TO.C,C23*
X139954000Y-59768740D02*
X139954000Y-59514740D01*
X139954000Y-59514740D02*
X137668000Y-59514740D01*
X137668000Y-59514740D02*
X137668000Y-59768740D01*
X139954000Y-59768740D02*
X137668000Y-59768740D01*
X137668000Y-59768740D02*
X137668000Y-61419740D01*
X139954000Y-63197740D02*
X139954000Y-64848740D01*
X139954000Y-64848740D02*
X137668000Y-64848740D01*
X137668000Y-64848740D02*
X137668000Y-63197740D01*
X139954000Y-61419740D02*
X139954000Y-59768740D01*
G04 #@! TO.C,C24*
X151472900Y-65024000D02*
X151472900Y-64770000D01*
X151472900Y-64770000D02*
X149186900Y-64770000D01*
X149186900Y-64770000D02*
X149186900Y-65024000D01*
X151472900Y-65024000D02*
X149186900Y-65024000D01*
X149186900Y-65024000D02*
X149186900Y-66675000D01*
X151472900Y-68453000D02*
X151472900Y-70104000D01*
X151472900Y-70104000D02*
X149186900Y-70104000D01*
X149186900Y-70104000D02*
X149186900Y-68453000D01*
X151472900Y-66675000D02*
X151472900Y-65024000D01*
G04 #@! TO.C,C35*
X154035760Y-99441000D02*
X154035760Y-99695000D01*
X154035760Y-99695000D02*
X156321760Y-99695000D01*
X156321760Y-99695000D02*
X156321760Y-99441000D01*
X154035760Y-99441000D02*
X156321760Y-99441000D01*
X156321760Y-99441000D02*
X156321760Y-97790000D01*
X154035760Y-96012000D02*
X154035760Y-94361000D01*
X154035760Y-94361000D02*
X156321760Y-94361000D01*
X156321760Y-94361000D02*
X156321760Y-96012000D01*
X154035760Y-97790000D02*
X154035760Y-99441000D01*
G04 #@! TO.C,C36*
X141940280Y-91246960D02*
X141686280Y-91246960D01*
X141686280Y-91246960D02*
X141686280Y-93532960D01*
X141686280Y-93532960D02*
X141940280Y-93532960D01*
X141940280Y-91246960D02*
X141940280Y-93532960D01*
X141940280Y-93532960D02*
X143591280Y-93532960D01*
X145369280Y-91246960D02*
X147020280Y-91246960D01*
X147020280Y-91246960D02*
X147020280Y-93532960D01*
X147020280Y-93532960D02*
X145369280Y-93532960D01*
X143591280Y-91246960D02*
X141940280Y-91246960D01*
G04 #@! TO.C,C38*
X133235700Y-107353100D02*
X133235700Y-107607100D01*
X133235700Y-107607100D02*
X135521700Y-107607100D01*
X135521700Y-107607100D02*
X135521700Y-107353100D01*
X133235700Y-107353100D02*
X135521700Y-107353100D01*
X135521700Y-107353100D02*
X135521700Y-105702100D01*
X133235700Y-103924100D02*
X133235700Y-102273100D01*
X133235700Y-102273100D02*
X135521700Y-102273100D01*
X135521700Y-102273100D02*
X135521700Y-103924100D01*
X133235700Y-105702100D02*
X133235700Y-107353100D01*
G04 #@! TO.C,C14*
X167248840Y-110723680D02*
X167502840Y-110723680D01*
X167502840Y-110723680D02*
X167502840Y-108437680D01*
X167502840Y-108437680D02*
X167248840Y-108437680D01*
X167248840Y-110723680D02*
X167248840Y-108437680D01*
X167248840Y-108437680D02*
X165597840Y-108437680D01*
X163819840Y-110723680D02*
X162168840Y-110723680D01*
X162168840Y-110723680D02*
X162168840Y-108437680D01*
X162168840Y-108437680D02*
X163819840Y-108437680D01*
X165597840Y-110723680D02*
X167248840Y-110723680D01*
G04 #@! TO.C,C27*
X164007800Y-146634200D02*
X164007800Y-146380200D01*
X164007800Y-146380200D02*
X161721800Y-146380200D01*
X161721800Y-146380200D02*
X161721800Y-146634200D01*
X164007800Y-146634200D02*
X161721800Y-146634200D01*
X161721800Y-146634200D02*
X161721800Y-148285200D01*
X164007800Y-150063200D02*
X164007800Y-151714200D01*
X164007800Y-151714200D02*
X161721800Y-151714200D01*
X161721800Y-151714200D02*
X161721800Y-150063200D01*
X164007800Y-148285200D02*
X164007800Y-146634200D01*
G04 #@! TO.C,R5*
X136776460Y-126542800D02*
G75*
G03X136776460Y-126542800I-127000J0D01*
G01*
X137792460Y-126542800D02*
X136776460Y-126542800D01*
X136776460Y-126542800D02*
X136776460Y-125018800D01*
X136776460Y-125018800D02*
X137792460Y-125018800D01*
X138808460Y-125018800D02*
X139824460Y-125018800D01*
X139824460Y-125018800D02*
X139824460Y-126542800D01*
X139824460Y-126542800D02*
X138808460Y-126542800D01*
G04 #@! TO.C,R1*
X137160000Y-140291820D02*
G75*
G03X137160000Y-140291820I-127000J0D01*
G01*
X135890000Y-140291820D02*
X136906000Y-140291820D01*
X136906000Y-140291820D02*
X136906000Y-141815820D01*
X136906000Y-141815820D02*
X135890000Y-141815820D01*
X134874000Y-141815820D02*
X133858000Y-141815820D01*
X133858000Y-141815820D02*
X133858000Y-140291820D01*
X133858000Y-140291820D02*
X134874000Y-140291820D01*
G04 #@! TO.C,R6*
X147457160Y-120512840D02*
G75*
G03X147457160Y-120512840I-127000J0D01*
G01*
X148473160Y-120512840D02*
X147457160Y-120512840D01*
X147457160Y-120512840D02*
X147457160Y-118988840D01*
X147457160Y-118988840D02*
X148473160Y-118988840D01*
X149489160Y-118988840D02*
X150505160Y-118988840D01*
X150505160Y-118988840D02*
X150505160Y-120512840D01*
X150505160Y-120512840D02*
X149489160Y-120512840D01*
G04 #@! TO.C,R4*
X148427440Y-88658700D02*
G75*
G03X148427440Y-88658700I-127000J0D01*
G01*
X147157440Y-88658700D02*
X148173440Y-88658700D01*
X148173440Y-88658700D02*
X148173440Y-90182700D01*
X148173440Y-90182700D02*
X147157440Y-90182700D01*
X146141440Y-90182700D02*
X145125440Y-90182700D01*
X145125440Y-90182700D02*
X145125440Y-88658700D01*
X145125440Y-88658700D02*
X146141440Y-88658700D01*
G04 #@! TO.C,R3*
X160807400Y-135359140D02*
G75*
G03X160807400Y-135359140I-127000J0D01*
G01*
X159537400Y-135359140D02*
X160553400Y-135359140D01*
X160553400Y-135359140D02*
X160553400Y-136883140D01*
X160553400Y-136883140D02*
X159537400Y-136883140D01*
X158521400Y-136883140D02*
X157505400Y-136883140D01*
X157505400Y-136883140D02*
X157505400Y-135359140D01*
X157505400Y-135359140D02*
X158521400Y-135359140D01*
G04 #@! TO.C,R2*
X137259060Y-100429060D02*
G75*
G03X137259060Y-100429060I-127000J0D01*
G01*
X135989060Y-100429060D02*
X137005060Y-100429060D01*
X137005060Y-100429060D02*
X137005060Y-101953060D01*
X137005060Y-101953060D02*
X135989060Y-101953060D01*
X134973060Y-101953060D02*
X133957060Y-101953060D01*
X133957060Y-101953060D02*
X133957060Y-100429060D01*
X133957060Y-100429060D02*
X134973060Y-100429060D01*
G04 #@! TO.C,R34*
X156057600Y-127317500D02*
G75*
G03X156057600Y-127317500I-127000J0D01*
G01*
X154787600Y-127317500D02*
X155803600Y-127317500D01*
X155803600Y-127317500D02*
X155803600Y-128841500D01*
X155803600Y-128841500D02*
X154787600Y-128841500D01*
X153771600Y-128841500D02*
X152755600Y-128841500D01*
X152755600Y-128841500D02*
X152755600Y-127317500D01*
X152755600Y-127317500D02*
X153771600Y-127317500D01*
G04 #@! TO.C,R17*
X120741440Y-146761200D02*
G75*
G03X120741440Y-146761200I-127000J0D01*
G01*
X121757440Y-146761200D02*
X120741440Y-146761200D01*
X120741440Y-146761200D02*
X120741440Y-145237200D01*
X120741440Y-145237200D02*
X121757440Y-145237200D01*
X122773440Y-145237200D02*
X123789440Y-145237200D01*
X123789440Y-145237200D02*
X123789440Y-146761200D01*
X123789440Y-146761200D02*
X122773440Y-146761200D01*
G04 #@! TO.C,R33*
X149466300Y-152443180D02*
G75*
G03X149466300Y-152443180I-127000J0D01*
G01*
X150482300Y-152443180D02*
X149466300Y-152443180D01*
X149466300Y-152443180D02*
X149466300Y-150919180D01*
X149466300Y-150919180D02*
X150482300Y-150919180D01*
X151498300Y-150919180D02*
X152514300Y-150919180D01*
X152514300Y-150919180D02*
X152514300Y-152443180D01*
X152514300Y-152443180D02*
X151498300Y-152443180D01*
G04 #@! TO.C,R32*
X156057600Y-129438400D02*
G75*
G03X156057600Y-129438400I-127000J0D01*
G01*
X154787600Y-129438400D02*
X155803600Y-129438400D01*
X155803600Y-129438400D02*
X155803600Y-130962400D01*
X155803600Y-130962400D02*
X154787600Y-130962400D01*
X153771600Y-130962400D02*
X152755600Y-130962400D01*
X152755600Y-130962400D02*
X152755600Y-129438400D01*
X152755600Y-129438400D02*
X153771600Y-129438400D01*
G04 #@! TO.C,R31*
X154045920Y-103522780D02*
G75*
G03X154045920Y-103522780I-127000J0D01*
G01*
X155061920Y-103522780D02*
X154045920Y-103522780D01*
X154045920Y-103522780D02*
X154045920Y-101998780D01*
X154045920Y-101998780D02*
X155061920Y-101998780D01*
X156077920Y-101998780D02*
X157093920Y-101998780D01*
X157093920Y-101998780D02*
X157093920Y-103522780D01*
X157093920Y-103522780D02*
X156077920Y-103522780D01*
G04 #@! TO.C,R30*
X154045920Y-101622860D02*
G75*
G03X154045920Y-101622860I-127000J0D01*
G01*
X155061920Y-101622860D02*
X154045920Y-101622860D01*
X154045920Y-101622860D02*
X154045920Y-100098860D01*
X154045920Y-100098860D02*
X155061920Y-100098860D01*
X156077920Y-100098860D02*
X157093920Y-100098860D01*
X157093920Y-100098860D02*
X157093920Y-101622860D01*
X157093920Y-101622860D02*
X156077920Y-101622860D01*
G04 #@! TO.C,R29*
X153670000Y-151892000D02*
G75*
G03X153670000Y-151892000I-127000J0D01*
G01*
X154686000Y-151892000D02*
X153670000Y-151892000D01*
X153670000Y-151892000D02*
X153670000Y-150368000D01*
X153670000Y-150368000D02*
X154686000Y-150368000D01*
X155702000Y-150368000D02*
X156718000Y-150368000D01*
X156718000Y-150368000D02*
X156718000Y-151892000D01*
X156718000Y-151892000D02*
X155702000Y-151892000D01*
G04 #@! TO.C,R28*
X154884120Y-137800080D02*
G75*
G03X154884120Y-137800080I-127000J0D01*
G01*
X154757120Y-138943080D02*
X154757120Y-137927080D01*
X154757120Y-137927080D02*
X156281120Y-137927080D01*
X156281120Y-137927080D02*
X156281120Y-138943080D01*
X156281120Y-139959080D02*
X156281120Y-140975080D01*
X156281120Y-140975080D02*
X154757120Y-140975080D01*
X154757120Y-140975080D02*
X154757120Y-139959080D01*
G04 #@! TO.C,R27*
X157480000Y-149860000D02*
G75*
G03X157480000Y-149860000I-127000J0D01*
G01*
X158496000Y-149860000D02*
X157480000Y-149860000D01*
X157480000Y-149860000D02*
X157480000Y-148336000D01*
X157480000Y-148336000D02*
X158496000Y-148336000D01*
X159512000Y-148336000D02*
X160528000Y-148336000D01*
X160528000Y-148336000D02*
X160528000Y-149860000D01*
X160528000Y-149860000D02*
X159512000Y-149860000D01*
G04 #@! TO.C,R26*
X141988540Y-63840360D02*
G75*
G03X141988540Y-63840360I-127000J0D01*
G01*
X141861540Y-62697360D02*
X141861540Y-63713360D01*
X141861540Y-63713360D02*
X140337540Y-63713360D01*
X140337540Y-63713360D02*
X140337540Y-62697360D01*
X140337540Y-61681360D02*
X140337540Y-60665360D01*
X140337540Y-60665360D02*
X141861540Y-60665360D01*
X141861540Y-60665360D02*
X141861540Y-61681360D01*
G04 #@! TO.C,R24*
X154508200Y-141061440D02*
G75*
G03X154508200Y-141061440I-127000J0D01*
G01*
X154381200Y-139918440D02*
X154381200Y-140934440D01*
X154381200Y-140934440D02*
X152857200Y-140934440D01*
X152857200Y-140934440D02*
X152857200Y-139918440D01*
X152857200Y-138902440D02*
X152857200Y-137886440D01*
X152857200Y-137886440D02*
X154381200Y-137886440D01*
X154381200Y-137886440D02*
X154381200Y-138902440D01*
G04 #@! TO.C,R18*
X157480000Y-151892000D02*
G75*
G03X157480000Y-151892000I-127000J0D01*
G01*
X158496000Y-151892000D02*
X157480000Y-151892000D01*
X157480000Y-151892000D02*
X157480000Y-150368000D01*
X157480000Y-150368000D02*
X158496000Y-150368000D01*
X159512000Y-150368000D02*
X160528000Y-150368000D01*
X160528000Y-150368000D02*
X160528000Y-151892000D01*
X160528000Y-151892000D02*
X159512000Y-151892000D01*
G04 #@! TO.C,R7*
X160909000Y-132676900D02*
G75*
G03X160909000Y-132676900I-127000J0D01*
G01*
X159639000Y-132676900D02*
X160655000Y-132676900D01*
X160655000Y-132676900D02*
X160655000Y-134200900D01*
X160655000Y-134200900D02*
X159639000Y-134200900D01*
X158623000Y-134200900D02*
X157607000Y-134200900D01*
X157607000Y-134200900D02*
X157607000Y-132676900D01*
X157607000Y-132676900D02*
X158623000Y-132676900D01*
G04 #@! TO.C,R16*
X120726200Y-144421860D02*
G75*
G03X120726200Y-144421860I-127000J0D01*
G01*
X121742200Y-144421860D02*
X120726200Y-144421860D01*
X120726200Y-144421860D02*
X120726200Y-142897860D01*
X120726200Y-142897860D02*
X121742200Y-142897860D01*
X122758200Y-142897860D02*
X123774200Y-142897860D01*
X123774200Y-142897860D02*
X123774200Y-144421860D01*
X123774200Y-144421860D02*
X122758200Y-144421860D01*
G04 #@! TO.C,R15*
X152707340Y-148998940D02*
G75*
G03X152707340Y-148998940I-127000J0D01*
G01*
X151437340Y-148998940D02*
X152453340Y-148998940D01*
X152453340Y-148998940D02*
X152453340Y-150522940D01*
X152453340Y-150522940D02*
X151437340Y-150522940D01*
X150421340Y-150522940D02*
X149405340Y-150522940D01*
X149405340Y-150522940D02*
X149405340Y-148998940D01*
X149405340Y-148998940D02*
X150421340Y-148998940D01*
G04 #@! TO.C,R14*
X136834880Y-123982480D02*
G75*
G03X136834880Y-123982480I-127000J0D01*
G01*
X137850880Y-123982480D02*
X136834880Y-123982480D01*
X136834880Y-123982480D02*
X136834880Y-122458480D01*
X136834880Y-122458480D02*
X137850880Y-122458480D01*
X138866880Y-122458480D02*
X139882880Y-122458480D01*
X139882880Y-122458480D02*
X139882880Y-123982480D01*
X139882880Y-123982480D02*
X138866880Y-123982480D01*
G04 #@! TO.C,R13*
X160449260Y-111577120D02*
G75*
G03X160449260Y-111577120I-127000J0D01*
G01*
X159179260Y-111577120D02*
X160195260Y-111577120D01*
X160195260Y-111577120D02*
X160195260Y-113101120D01*
X160195260Y-113101120D02*
X159179260Y-113101120D01*
X158163260Y-113101120D02*
X157147260Y-113101120D01*
X157147260Y-113101120D02*
X157147260Y-111577120D01*
X157147260Y-111577120D02*
X158163260Y-111577120D01*
G04 #@! TO.C,R12*
X140108940Y-120136920D02*
G75*
G03X140108940Y-120136920I-127000J0D01*
G01*
X138838940Y-120136920D02*
X139854940Y-120136920D01*
X139854940Y-120136920D02*
X139854940Y-121660920D01*
X139854940Y-121660920D02*
X138838940Y-121660920D01*
X137822940Y-121660920D02*
X136806940Y-121660920D01*
X136806940Y-121660920D02*
X136806940Y-120136920D01*
X136806940Y-120136920D02*
X137822940Y-120136920D01*
G04 #@! TO.C,R11*
X125575060Y-142382240D02*
G75*
G03X125575060Y-142382240I-127000J0D01*
G01*
X126591060Y-142382240D02*
X125575060Y-142382240D01*
X125575060Y-142382240D02*
X125575060Y-140858240D01*
X125575060Y-140858240D02*
X126591060Y-140858240D01*
X127607060Y-140858240D02*
X128623060Y-140858240D01*
X128623060Y-140858240D02*
X128623060Y-142382240D01*
X128623060Y-142382240D02*
X127607060Y-142382240D01*
G04 #@! TO.C,R10*
X135437880Y-145658840D02*
G75*
G03X135437880Y-145658840I-127000J0D01*
G01*
X136453880Y-145658840D02*
X135437880Y-145658840D01*
X135437880Y-145658840D02*
X135437880Y-144134840D01*
X135437880Y-144134840D02*
X136453880Y-144134840D01*
X137469880Y-144134840D02*
X138485880Y-144134840D01*
X138485880Y-144134840D02*
X138485880Y-145658840D01*
X138485880Y-145658840D02*
X137469880Y-145658840D01*
G04 #@! TO.C,R9*
X158348680Y-116748560D02*
G75*
G03X158348680Y-116748560I-127000J0D01*
G01*
X157078680Y-116748560D02*
X158094680Y-116748560D01*
X158094680Y-116748560D02*
X158094680Y-118272560D01*
X158094680Y-118272560D02*
X157078680Y-118272560D01*
X156062680Y-118272560D02*
X155046680Y-118272560D01*
X155046680Y-118272560D02*
X155046680Y-116748560D01*
X155046680Y-116748560D02*
X156062680Y-116748560D01*
G04 #@! TO.C,R8*
X156972000Y-154432000D02*
G75*
G03X156972000Y-154432000I-127000J0D01*
G01*
X155702000Y-154432000D02*
X156718000Y-154432000D01*
X156718000Y-154432000D02*
X156718000Y-155956000D01*
X156718000Y-155956000D02*
X155702000Y-155956000D01*
X154686000Y-155956000D02*
X153670000Y-155956000D01*
X153670000Y-155956000D02*
X153670000Y-154432000D01*
X153670000Y-154432000D02*
X154686000Y-154432000D01*
G04 #@! TO.C,C16*
X153779220Y-97602040D02*
G75*
G03X153779220Y-97602040I-127000J0D01*
G01*
X153652220Y-96459040D02*
X153652220Y-97475040D01*
X153652220Y-97475040D02*
X152128220Y-97475040D01*
X152128220Y-97475040D02*
X152128220Y-96459040D01*
X152128220Y-95443040D02*
X152128220Y-94427040D01*
X152128220Y-94427040D02*
X153652220Y-94427040D01*
X153652220Y-94427040D02*
X153652220Y-95443040D01*
G04 #@! TO.C,C3*
X172659040Y-100561140D02*
G75*
G03X172659040Y-100561140I-127000J0D01*
G01*
X172532040Y-99418140D02*
X172532040Y-100434140D01*
X172532040Y-100434140D02*
X171008040Y-100434140D01*
X171008040Y-100434140D02*
X171008040Y-99418140D01*
X171008040Y-98402140D02*
X171008040Y-97386140D01*
X171008040Y-97386140D02*
X172532040Y-97386140D01*
X172532040Y-97386140D02*
X172532040Y-98402140D01*
G04 #@! TO.C,C4*
X159463740Y-102679500D02*
G75*
G03X159463740Y-102679500I-127000J0D01*
G01*
X159336740Y-103822500D02*
X159336740Y-102806500D01*
X159336740Y-102806500D02*
X160860740Y-102806500D01*
X160860740Y-102806500D02*
X160860740Y-103822500D01*
X160860740Y-104838500D02*
X160860740Y-105854500D01*
X160860740Y-105854500D02*
X159336740Y-105854500D01*
X159336740Y-105854500D02*
X159336740Y-104838500D01*
G04 #@! TO.C,C5*
X157226000Y-103908860D02*
G75*
G03X157226000Y-103908860I-127000J0D01*
G01*
X157099000Y-105051860D02*
X157099000Y-104035860D01*
X157099000Y-104035860D02*
X158623000Y-104035860D01*
X158623000Y-104035860D02*
X158623000Y-105051860D01*
X158623000Y-106067860D02*
X158623000Y-107083860D01*
X158623000Y-107083860D02*
X157099000Y-107083860D01*
X157099000Y-107083860D02*
X157099000Y-106067860D01*
G04 #@! TO.C,C6*
X155067000Y-120533160D02*
G75*
G03X155067000Y-120533160I-127000J0D01*
G01*
X156083000Y-120533160D02*
X155067000Y-120533160D01*
X155067000Y-120533160D02*
X155067000Y-119009160D01*
X155067000Y-119009160D02*
X156083000Y-119009160D01*
X157099000Y-119009160D02*
X158115000Y-119009160D01*
X158115000Y-119009160D02*
X158115000Y-120533160D01*
X158115000Y-120533160D02*
X157099000Y-120533160D01*
G04 #@! TO.C,C7*
X151135080Y-118722140D02*
G75*
G03X151135080Y-118722140I-127000J0D01*
G01*
X152151080Y-118722140D02*
X151135080Y-118722140D01*
X151135080Y-118722140D02*
X151135080Y-117198140D01*
X151135080Y-117198140D02*
X152151080Y-117198140D01*
X153167080Y-117198140D02*
X154183080Y-117198140D01*
X154183080Y-117198140D02*
X154183080Y-118722140D01*
X154183080Y-118722140D02*
X153167080Y-118722140D01*
G04 #@! TO.C,C8*
X133449060Y-149468840D02*
G75*
G03X133449060Y-149468840I-127000J0D01*
G01*
X132179060Y-149468840D02*
X133195060Y-149468840D01*
X133195060Y-149468840D02*
X133195060Y-150992840D01*
X133195060Y-150992840D02*
X132179060Y-150992840D01*
X131163060Y-150992840D02*
X130147060Y-150992840D01*
X130147060Y-150992840D02*
X130147060Y-149468840D01*
X130147060Y-149468840D02*
X131163060Y-149468840D01*
G04 #@! TO.C,C9*
X147243800Y-147066000D02*
G75*
G03X147243800Y-147066000I-127000J0D01*
G01*
X145973800Y-147066000D02*
X146989800Y-147066000D01*
X146989800Y-147066000D02*
X146989800Y-148590000D01*
X146989800Y-148590000D02*
X145973800Y-148590000D01*
X144957800Y-148590000D02*
X143941800Y-148590000D01*
X143941800Y-148590000D02*
X143941800Y-147066000D01*
X143941800Y-147066000D02*
X144957800Y-147066000D01*
G04 #@! TO.C,C10*
X120906540Y-151333200D02*
G75*
G03X120906540Y-151333200I-127000J0D01*
G01*
X121922540Y-151333200D02*
X120906540Y-151333200D01*
X120906540Y-151333200D02*
X120906540Y-149809200D01*
X120906540Y-149809200D02*
X121922540Y-149809200D01*
X122938540Y-149809200D02*
X123954540Y-149809200D01*
X123954540Y-149809200D02*
X123954540Y-151333200D01*
X123954540Y-151333200D02*
X122938540Y-151333200D01*
G04 #@! TO.C,C11*
X160375600Y-127190500D02*
G75*
G03X160375600Y-127190500I-127000J0D01*
G01*
X159105600Y-127190500D02*
X160121600Y-127190500D01*
X160121600Y-127190500D02*
X160121600Y-128714500D01*
X160121600Y-128714500D02*
X159105600Y-128714500D01*
X158089600Y-128714500D02*
X157073600Y-128714500D01*
X157073600Y-128714500D02*
X157073600Y-127190500D01*
X157073600Y-127190500D02*
X158089600Y-127190500D01*
G04 #@! TO.C,C12*
X147447000Y-149527260D02*
G75*
G03X147447000Y-149527260I-127000J0D01*
G01*
X146177000Y-149527260D02*
X147193000Y-149527260D01*
X147193000Y-149527260D02*
X147193000Y-151051260D01*
X147193000Y-151051260D02*
X146177000Y-151051260D01*
X145161000Y-151051260D02*
X144145000Y-151051260D01*
X144145000Y-151051260D02*
X144145000Y-149527260D01*
X144145000Y-149527260D02*
X145161000Y-149527260D01*
G04 #@! TO.C,C13*
X143875760Y-62390020D02*
G75*
G03X143875760Y-62390020I-127000J0D01*
G01*
X143748760Y-63533020D02*
X143748760Y-62517020D01*
X143748760Y-62517020D02*
X145272760Y-62517020D01*
X145272760Y-62517020D02*
X145272760Y-63533020D01*
X145272760Y-64549020D02*
X145272760Y-65565020D01*
X145272760Y-65565020D02*
X143748760Y-65565020D01*
X143748760Y-65565020D02*
X143748760Y-64549020D01*
G04 #@! TO.C,C15*
X140639800Y-95453200D02*
G75*
G03X140639800Y-95453200I-127000J0D01*
G01*
X141655800Y-95453200D02*
X140639800Y-95453200D01*
X140639800Y-95453200D02*
X140639800Y-93929200D01*
X140639800Y-93929200D02*
X141655800Y-93929200D01*
X142671800Y-93929200D02*
X143687800Y-93929200D01*
X143687800Y-93929200D02*
X143687800Y-95453200D01*
X143687800Y-95453200D02*
X142671800Y-95453200D01*
G04 #@! TO.C,C17*
X153593800Y-106248200D02*
G75*
G03X153593800Y-106248200I-127000J0D01*
G01*
X153466800Y-107391200D02*
X153466800Y-106375200D01*
X153466800Y-106375200D02*
X154990800Y-106375200D01*
X154990800Y-106375200D02*
X154990800Y-107391200D01*
X154990800Y-108407200D02*
X154990800Y-109423200D01*
X154990800Y-109423200D02*
X153466800Y-109423200D01*
X153466800Y-109423200D02*
X153466800Y-108407200D01*
G04 #@! TO.C,C18*
X137817860Y-106039920D02*
G75*
G03X137817860Y-106039920I-127000J0D01*
G01*
X137690860Y-104896920D02*
X137690860Y-105912920D01*
X137690860Y-105912920D02*
X136166860Y-105912920D01*
X136166860Y-105912920D02*
X136166860Y-104896920D01*
X136166860Y-103880920D02*
X136166860Y-102864920D01*
X136166860Y-102864920D02*
X137690860Y-102864920D01*
X137690860Y-102864920D02*
X137690860Y-103880920D01*
G04 #@! TO.C,C19*
X124043440Y-147269200D02*
G75*
G03X124043440Y-147269200I-127000J0D01*
G01*
X122773440Y-147269200D02*
X123789440Y-147269200D01*
X123789440Y-147269200D02*
X123789440Y-148793200D01*
X123789440Y-148793200D02*
X122773440Y-148793200D01*
X121757440Y-148793200D02*
X120741440Y-148793200D01*
X120741440Y-148793200D02*
X120741440Y-147269200D01*
X120741440Y-147269200D02*
X121757440Y-147269200D01*
G04 #@! TO.C,C28*
X136245600Y-111442500D02*
G75*
G03X136245600Y-111442500I-127000J0D01*
G01*
X134975600Y-111442500D02*
X135991600Y-111442500D01*
X135991600Y-111442500D02*
X135991600Y-112966500D01*
X135991600Y-112966500D02*
X134975600Y-112966500D01*
X133959600Y-112966500D02*
X132943600Y-112966500D01*
X132943600Y-112966500D02*
X132943600Y-111442500D01*
X132943600Y-111442500D02*
X133959600Y-111442500D01*
G04 #@! TO.C,C29*
X153195020Y-113962180D02*
G75*
G03X153195020Y-113962180I-127000J0D01*
G01*
X154211020Y-113962180D02*
X153195020Y-113962180D01*
X153195020Y-113962180D02*
X153195020Y-112438180D01*
X153195020Y-112438180D02*
X154211020Y-112438180D01*
X155227020Y-112438180D02*
X156243020Y-112438180D01*
X156243020Y-112438180D02*
X156243020Y-113962180D01*
X156243020Y-113962180D02*
X155227020Y-113962180D01*
G04 #@! TO.C,C30*
X153670000Y-153924000D02*
G75*
G03X153670000Y-153924000I-127000J0D01*
G01*
X154686000Y-153924000D02*
X153670000Y-153924000D01*
X153670000Y-153924000D02*
X153670000Y-152400000D01*
X153670000Y-152400000D02*
X154686000Y-152400000D01*
X155702000Y-152400000D02*
X156718000Y-152400000D01*
X156718000Y-152400000D02*
X156718000Y-153924000D01*
X156718000Y-153924000D02*
X155702000Y-153924000D01*
G04 #@! TO.C,C31*
X153647140Y-150012400D02*
G75*
G03X153647140Y-150012400I-127000J0D01*
G01*
X154663140Y-150012400D02*
X153647140Y-150012400D01*
X153647140Y-150012400D02*
X153647140Y-148488400D01*
X153647140Y-148488400D02*
X154663140Y-148488400D01*
X155679140Y-148488400D02*
X156695140Y-148488400D01*
X156695140Y-148488400D02*
X156695140Y-150012400D01*
X156695140Y-150012400D02*
X155679140Y-150012400D01*
G04 #@! TO.C,C32*
X159405320Y-137619740D02*
G75*
G03X159405320Y-137619740I-127000J0D01*
G01*
X159278320Y-138762740D02*
X159278320Y-137746740D01*
X159278320Y-137746740D02*
X160802320Y-137746740D01*
X160802320Y-137746740D02*
X160802320Y-138762740D01*
X160802320Y-139778740D02*
X160802320Y-140794740D01*
X160802320Y-140794740D02*
X159278320Y-140794740D01*
X159278320Y-140794740D02*
X159278320Y-139778740D01*
G04 #@! TO.C,C33*
X151536400Y-146034760D02*
G75*
G03X151536400Y-146034760I-127000J0D01*
G01*
X150266400Y-146034760D02*
X151282400Y-146034760D01*
X151282400Y-146034760D02*
X151282400Y-147558760D01*
X151282400Y-147558760D02*
X150266400Y-147558760D01*
X149250400Y-147558760D02*
X148234400Y-147558760D01*
X148234400Y-147558760D02*
X148234400Y-146034760D01*
X148234400Y-146034760D02*
X149250400Y-146034760D01*
G04 #@! TO.C,C2*
X171815760Y-104630220D02*
G75*
G03X171815760Y-104630220I-127000J0D01*
G01*
X171688760Y-105773220D02*
X171688760Y-104757220D01*
X171688760Y-104757220D02*
X173212760Y-104757220D01*
X173212760Y-104757220D02*
X173212760Y-105773220D01*
X173212760Y-106789220D02*
X173212760Y-107805220D01*
X173212760Y-107805220D02*
X171688760Y-107805220D01*
X171688760Y-107805220D02*
X171688760Y-106789220D01*
G04 #@! TO.C,L1*
X143753840Y-66690240D02*
G75*
G03X143753840Y-66690240I-127000J0D01*
G01*
X143626840Y-67833240D02*
X143626840Y-66817240D01*
X143626840Y-66817240D02*
X145150840Y-66817240D01*
X145150840Y-66817240D02*
X145150840Y-67833240D01*
X145150840Y-68849240D02*
X145150840Y-69865240D01*
X145150840Y-69865240D02*
X143626840Y-69865240D01*
X143626840Y-69865240D02*
X143626840Y-68849240D01*
G04 #@! TO.C,C1*
X129611120Y-141927580D02*
G75*
G03X129611120Y-141927580I-127000J0D01*
G01*
X130627120Y-141927580D02*
X129611120Y-141927580D01*
X129611120Y-141927580D02*
X129611120Y-140403580D01*
X129611120Y-140403580D02*
X130627120Y-140403580D01*
X131643120Y-140403580D02*
X132659120Y-140403580D01*
X132659120Y-140403580D02*
X132659120Y-141927580D01*
X132659120Y-141927580D02*
X131643120Y-141927580D01*
D12*
G04 #@! TO.C,P45*
X126870460Y-77330300D02*
X126870460Y-77330300D01*
X126870460Y-79870300D02*
X126870460Y-77330300D01*
X126870460Y-77330300D02*
X126870460Y-77330300D01*
X126870460Y-77330300D02*
X137030460Y-77330300D01*
X137030460Y-77330300D02*
X137030460Y-79870300D01*
X137030460Y-79870300D02*
X126870460Y-79870300D01*
X129410460Y-79870300D02*
X129410460Y-77330300D01*
D11*
G04 #@! TO.C,RV2*
X141173200Y-84899500D02*
X151188420Y-84899500D01*
X151188420Y-84899500D02*
X151188420Y-72654160D01*
X151188420Y-72654160D02*
X141173200Y-72654160D01*
X141173200Y-72654160D02*
X141173200Y-84899500D01*
X148699220Y-80116680D02*
X143502380Y-80116680D01*
X143560800Y-77030580D02*
X148640800Y-77030580D01*
X148220140Y-78618080D02*
G75*
G03X148220140Y-78618080I-2119340J0D01*
G01*
G04 #@! TO.C,RV1*
X161071560Y-125199140D02*
X171086780Y-125199140D01*
X171086780Y-125199140D02*
X171086780Y-112953800D01*
X171086780Y-112953800D02*
X161071560Y-112953800D01*
X161071560Y-112953800D02*
X161071560Y-125199140D01*
X168597580Y-120416320D02*
X163400740Y-120416320D01*
X163459160Y-117330220D02*
X168539160Y-117330220D01*
X168118500Y-118917720D02*
G75*
G03X168118500Y-118917720I-2119340J0D01*
G01*
G04 #@! TO.C,RV3*
X121973340Y-94198440D02*
X131988560Y-94198440D01*
X131988560Y-94198440D02*
X131988560Y-81953100D01*
X131988560Y-81953100D02*
X121973340Y-81953100D01*
X121973340Y-81953100D02*
X121973340Y-94198440D01*
X129499360Y-89415620D02*
X124302520Y-89415620D01*
X124360940Y-86329520D02*
X129440940Y-86329520D01*
X129020280Y-87917020D02*
G75*
G03X129020280Y-87917020I-2119340J0D01*
G01*
G04 #@! TO.C,RV4*
X121973340Y-125199140D02*
X131988560Y-125199140D01*
X131988560Y-125199140D02*
X131988560Y-112953800D01*
X131988560Y-112953800D02*
X121973340Y-112953800D01*
X121973340Y-112953800D02*
X121973340Y-125199140D01*
X129499360Y-120416320D02*
X124302520Y-120416320D01*
X124360940Y-117330220D02*
X129440940Y-117330220D01*
X129020280Y-118917720D02*
G75*
G03X129020280Y-118917720I-2119340J0D01*
G01*
G04 #@! TO.C,RV5*
X161071560Y-94198440D02*
X171086780Y-94198440D01*
X171086780Y-94198440D02*
X171086780Y-81953100D01*
X171086780Y-81953100D02*
X161071560Y-81953100D01*
X161071560Y-81953100D02*
X161071560Y-94198440D01*
X168597580Y-89415620D02*
X163400740Y-89415620D01*
X163459160Y-86329520D02*
X168539160Y-86329520D01*
X168118500Y-87917020D02*
G75*
G03X168118500Y-87917020I-2119340J0D01*
G01*
D13*
G04 #@! TO.C,X1*
X138607800Y-113799620D02*
X138607800Y-114180620D01*
X138607800Y-117101620D02*
X138607800Y-116720620D01*
X148513800Y-117101620D02*
X148513800Y-116720620D01*
X148513800Y-113799620D02*
X148513800Y-114180620D01*
X149275800Y-112910620D02*
X149275800Y-114180620D01*
X149275800Y-117990620D02*
X149275800Y-116720620D01*
X137845800Y-117990620D02*
X137845800Y-116720620D01*
X137845800Y-112910620D02*
X137845800Y-114180620D01*
X138607800Y-117101620D02*
X139242800Y-117736620D01*
X139242800Y-117736620D02*
X147878800Y-117736620D01*
X147878800Y-117736620D02*
X148513800Y-117101620D01*
X148513800Y-113799620D02*
X147878800Y-113164620D01*
X147878800Y-113164620D02*
X139242800Y-113164620D01*
X139242800Y-113164620D02*
X138607800Y-113799620D01*
X149275800Y-117990620D02*
X137845800Y-117990620D01*
X137845800Y-112910620D02*
X149275800Y-112910620D01*
D12*
G04 #@! TO.C,P1*
X170680380Y-140840460D02*
X170680380Y-153540460D01*
X170680380Y-153540460D02*
X165600380Y-153540460D01*
X165600380Y-153540460D02*
X165600380Y-140840460D01*
X165600380Y-140840460D02*
X170680380Y-140840460D01*
D14*
G04 #@! TO.C,U14*
X149796500Y-97134680D02*
X151295100Y-97134680D01*
X151295100Y-97134680D02*
X151295100Y-98635820D01*
X139796520Y-98635820D02*
X139796520Y-97134680D01*
X139796520Y-97134680D02*
X141295120Y-97134680D01*
X149694900Y-108635800D02*
X151295100Y-108635800D01*
X151295100Y-108635800D02*
X151295100Y-107134660D01*
X139796520Y-107134660D02*
X139796520Y-108635800D01*
X139796520Y-108635800D02*
X141295120Y-108635800D01*
X141894560Y-107436920D02*
G75*
G03X141894560Y-107436920I-99060J0D01*
G01*
D15*
G04 #@! TO.C,D2*
X141361160Y-69618860D02*
X141036040Y-69618860D01*
X141036040Y-69618860D02*
X141036040Y-70119240D01*
X141361160Y-70119240D02*
X141036040Y-70119240D01*
X141361160Y-69618860D02*
X141361160Y-70119240D01*
X141983460Y-69618860D02*
X141833600Y-69618860D01*
X141833600Y-69618860D02*
X141833600Y-69870320D01*
X141983460Y-69870320D02*
X141833600Y-69870320D01*
X141983460Y-69618860D02*
X141983460Y-69870320D01*
X141488160Y-69618860D02*
X141338300Y-69618860D01*
X141338300Y-69618860D02*
X141338300Y-69870320D01*
X141488160Y-69870320D02*
X141338300Y-69870320D01*
X141488160Y-69618860D02*
X141488160Y-69870320D01*
X141859000Y-69618860D02*
X141462760Y-69618860D01*
X141462760Y-69618860D02*
X141462760Y-69794120D01*
X141859000Y-69794120D02*
X141462760Y-69794120D01*
X141859000Y-69618860D02*
X141859000Y-69794120D01*
X141361160Y-68122800D02*
X141036040Y-68122800D01*
X141036040Y-68122800D02*
X141036040Y-68623180D01*
X141361160Y-68623180D02*
X141036040Y-68623180D01*
X141361160Y-68122800D02*
X141361160Y-68623180D01*
X142285720Y-68122800D02*
X141960600Y-68122800D01*
X141960600Y-68122800D02*
X141960600Y-68623180D01*
X142285720Y-68623180D02*
X141960600Y-68623180D01*
X142285720Y-68122800D02*
X142285720Y-68623180D01*
X141488160Y-68371720D02*
X141338300Y-68371720D01*
X141338300Y-68371720D02*
X141338300Y-68623180D01*
X141488160Y-68623180D02*
X141338300Y-68623180D01*
X141488160Y-68371720D02*
X141488160Y-68623180D01*
X141983460Y-68371720D02*
X141833600Y-68371720D01*
X141833600Y-68371720D02*
X141833600Y-68623180D01*
X141983460Y-68623180D02*
X141833600Y-68623180D01*
X141983460Y-68371720D02*
X141983460Y-68623180D01*
X141859000Y-68447920D02*
X141462760Y-68447920D01*
X141462760Y-68447920D02*
X141462760Y-68623180D01*
X141859000Y-68623180D02*
X141462760Y-68623180D01*
X141859000Y-68447920D02*
X141859000Y-68623180D01*
X141759940Y-69121020D02*
X141561820Y-69121020D01*
X141561820Y-69121020D02*
X141561820Y-69319140D01*
X141759940Y-69319140D02*
X141561820Y-69319140D01*
X141759940Y-69121020D02*
X141759940Y-69319140D01*
X142260320Y-69618860D02*
X141960600Y-69618860D01*
X141960600Y-69618860D02*
X141960600Y-69918580D01*
X142260320Y-69918580D02*
X141960600Y-69918580D01*
X142260320Y-69618860D02*
X142260320Y-69918580D01*
X142285720Y-70045580D02*
X142059660Y-70045580D01*
X142059660Y-70045580D02*
X142059660Y-70119240D01*
X142285720Y-70119240D02*
X142059660Y-70119240D01*
X142285720Y-70045580D02*
X142285720Y-70119240D01*
D16*
X141086840Y-69644260D02*
X141086840Y-68597780D01*
X142234920Y-68623180D02*
X142234920Y-70045580D01*
D17*
X142182302Y-69969380D02*
G75*
G03X142182302Y-69969380I-71842J0D01*
G01*
D16*
X142008860Y-70119240D02*
G75*
G03X141312900Y-70119240I-347980J0D01*
G01*
X141312900Y-68122800D02*
G75*
G03X142008860Y-68122800I347980J0D01*
G01*
D13*
G04 #@! TO.C,JACK7*
X129898140Y-157302200D02*
X129898140Y-154302460D01*
X129898140Y-154302460D02*
X126898400Y-154302460D01*
X123248420Y-154221180D02*
X119946420Y-154221180D01*
X119946420Y-154221180D02*
X119946420Y-157523180D01*
X119946420Y-165270180D02*
X122486420Y-165270180D01*
X126931420Y-165270180D02*
X129725420Y-165270180D01*
X129725420Y-165270180D02*
X129725420Y-161460180D01*
G04 #@! TO.C,JACK6*
X141102080Y-129700020D02*
X141102080Y-132699760D01*
X141102080Y-132699760D02*
X144101820Y-132699760D01*
X147751800Y-132781040D02*
X151053800Y-132781040D01*
X151053800Y-132781040D02*
X151053800Y-129479040D01*
X151053800Y-121732040D02*
X148513800Y-121732040D01*
X144068800Y-121732040D02*
X141274800Y-121732040D01*
X141274800Y-121732040D02*
X141274800Y-125542040D01*
G04 #@! TO.C,JACK5*
X173098460Y-157302200D02*
X173098460Y-154302460D01*
X173098460Y-154302460D02*
X170098720Y-154302460D01*
X166448740Y-154221180D02*
X163146740Y-154221180D01*
X163146740Y-154221180D02*
X163146740Y-157523180D01*
X163146740Y-165270180D02*
X165686740Y-165270180D01*
X170131740Y-165270180D02*
X172925740Y-165270180D01*
X172925740Y-165270180D02*
X172925740Y-161460180D01*
G04 #@! TO.C,JACK4*
X173098460Y-131500880D02*
X173098460Y-128501140D01*
X173098460Y-128501140D02*
X170098720Y-128501140D01*
X166448740Y-128419860D02*
X163146740Y-128419860D01*
X163146740Y-128419860D02*
X163146740Y-131721860D01*
X163146740Y-139468860D02*
X165686740Y-139468860D01*
X170131740Y-139468860D02*
X172925740Y-139468860D01*
X172925740Y-139468860D02*
X172925740Y-135658860D01*
G04 #@! TO.C,JACK3*
X129898140Y-131500880D02*
X129898140Y-128501140D01*
X129898140Y-128501140D02*
X126898400Y-128501140D01*
X123248420Y-128419860D02*
X119946420Y-128419860D01*
X119946420Y-128419860D02*
X119946420Y-131721860D01*
X119946420Y-139468860D02*
X122486420Y-139468860D01*
X126931420Y-139468860D02*
X129725420Y-139468860D01*
X129725420Y-139468860D02*
X129725420Y-135658860D01*
G04 #@! TO.C,OUT*
X141102080Y-161300160D02*
X141102080Y-164299900D01*
X141102080Y-164299900D02*
X144101820Y-164299900D01*
X147751800Y-164381180D02*
X151053800Y-164381180D01*
X151053800Y-164381180D02*
X151053800Y-161079180D01*
X151053800Y-153332180D02*
X148513800Y-153332180D01*
X144068800Y-153332180D02*
X141274800Y-153332180D01*
X141274800Y-153332180D02*
X141274800Y-157142180D01*
G04 #@! TO.C,IN!*
X151099520Y-137500360D02*
X151099520Y-134500620D01*
X151099520Y-134500620D02*
X148099780Y-134500620D01*
X144449800Y-134419340D02*
X141147800Y-134419340D01*
X141147800Y-134419340D02*
X141147800Y-137721340D01*
X141147800Y-145468340D02*
X143687800Y-145468340D01*
X148132800Y-145468340D02*
X150926800Y-145468340D01*
X150926800Y-145468340D02*
X150926800Y-141658340D01*
D11*
G04 #@! TO.C,D5*
X133908800Y-136334500D02*
X133146800Y-135826500D01*
X135686800Y-136334500D02*
X133083300Y-136334500D01*
X133083300Y-136334500D02*
X133083300Y-134810500D01*
X133083300Y-134810500D02*
X135686800Y-134810500D01*
X135686800Y-134810500D02*
X135686800Y-136334500D01*
D18*
G04 #@! TO.C,SIL-1*
X152679400Y-162250120D02*
X155219400Y-162250120D01*
X152679400Y-159710120D02*
X155219400Y-159710120D01*
D12*
X152679400Y-162250120D02*
X152679400Y-159710120D01*
X155219400Y-159710120D02*
X155219400Y-162250120D01*
G04 #@! TO.C,U7*
X117714848Y-69614142D02*
X118948562Y-69614142D01*
X119093705Y-69541571D01*
X119166277Y-69469000D01*
X119238848Y-69323857D01*
X119238848Y-69033571D01*
X119166277Y-68888428D01*
X119093705Y-68815857D01*
X118948562Y-68743285D01*
X117714848Y-68743285D01*
X117714848Y-68162714D02*
X117714848Y-67146714D01*
X119238848Y-67799857D01*
X124458548Y-75221737D02*
X124458548Y-75947451D01*
X122934548Y-75947451D01*
X124458548Y-74713737D02*
X122934548Y-74713737D01*
X124023120Y-74205737D01*
X122934548Y-73697737D01*
X124458548Y-73697737D01*
X124458548Y-72173737D02*
X124458548Y-73044594D01*
X124458548Y-72609165D02*
X122934548Y-72609165D01*
X123152262Y-72754308D01*
X123297405Y-72899451D01*
X123369977Y-73044594D01*
X124458548Y-70722308D02*
X124458548Y-71593165D01*
X124458548Y-71157737D02*
X122934548Y-71157737D01*
X123152262Y-71302880D01*
X123297405Y-71448022D01*
X123369977Y-71593165D01*
X124458548Y-69270880D02*
X124458548Y-70141737D01*
X124458548Y-69706308D02*
X122934548Y-69706308D01*
X123152262Y-69851451D01*
X123297405Y-69996594D01*
X123369977Y-70141737D01*
X122934548Y-68762880D02*
X122934548Y-67746880D01*
X124458548Y-68400022D01*
X123877977Y-67166308D02*
X123877977Y-66005165D01*
X122934548Y-65424594D02*
X122934548Y-64481165D01*
X123515120Y-64989165D01*
X123515120Y-64771451D01*
X123587691Y-64626308D01*
X123660262Y-64553737D01*
X123805405Y-64481165D01*
X124168262Y-64481165D01*
X124313405Y-64553737D01*
X124385977Y-64626308D01*
X124458548Y-64771451D01*
X124458548Y-65206880D01*
X124385977Y-65352022D01*
X124313405Y-65424594D01*
X124313405Y-63828022D02*
X124385977Y-63755451D01*
X124458548Y-63828022D01*
X124385977Y-63900594D01*
X124313405Y-63828022D01*
X124458548Y-63828022D01*
X122934548Y-63247451D02*
X122934548Y-62304022D01*
X123515120Y-62812022D01*
X123515120Y-62594308D01*
X123587691Y-62449165D01*
X123660262Y-62376594D01*
X123805405Y-62304022D01*
X124168262Y-62304022D01*
X124313405Y-62376594D01*
X124385977Y-62449165D01*
X124458548Y-62594308D01*
X124458548Y-63029737D01*
X124385977Y-63174880D01*
X124313405Y-63247451D01*
X122934548Y-61868594D02*
X124458548Y-61360594D01*
X122934548Y-60852594D01*
G04 #@! TO.C,U8*
X173185908Y-67036042D02*
X174419622Y-67036042D01*
X174564765Y-66963471D01*
X174637337Y-66890900D01*
X174709908Y-66745757D01*
X174709908Y-66455471D01*
X174637337Y-66310328D01*
X174564765Y-66237757D01*
X174419622Y-66165185D01*
X173185908Y-66165185D01*
X173839051Y-65221757D02*
X173766480Y-65366900D01*
X173693908Y-65439471D01*
X173548765Y-65512042D01*
X173476194Y-65512042D01*
X173331051Y-65439471D01*
X173258480Y-65366900D01*
X173185908Y-65221757D01*
X173185908Y-64931471D01*
X173258480Y-64786328D01*
X173331051Y-64713757D01*
X173476194Y-64641185D01*
X173548765Y-64641185D01*
X173693908Y-64713757D01*
X173766480Y-64786328D01*
X173839051Y-64931471D01*
X173839051Y-65221757D01*
X173911622Y-65366900D01*
X173984194Y-65439471D01*
X174129337Y-65512042D01*
X174419622Y-65512042D01*
X174564765Y-65439471D01*
X174637337Y-65366900D01*
X174709908Y-65221757D01*
X174709908Y-64931471D01*
X174637337Y-64786328D01*
X174564765Y-64713757D01*
X174419622Y-64641185D01*
X174129337Y-64641185D01*
X173984194Y-64713757D01*
X173911622Y-64786328D01*
X173839051Y-64931471D01*
X168050028Y-71674445D02*
X168050028Y-72400160D01*
X166526028Y-72400160D01*
X168050028Y-71166445D02*
X166526028Y-71166445D01*
X167614600Y-70658445D01*
X166526028Y-70150445D01*
X168050028Y-70150445D01*
X168050028Y-68626445D02*
X168050028Y-69497302D01*
X168050028Y-69061874D02*
X166526028Y-69061874D01*
X166743742Y-69207017D01*
X166888885Y-69352160D01*
X166961457Y-69497302D01*
X168050028Y-67175017D02*
X168050028Y-68045874D01*
X168050028Y-67610445D02*
X166526028Y-67610445D01*
X166743742Y-67755588D01*
X166888885Y-67900731D01*
X166961457Y-68045874D01*
X168050028Y-65723588D02*
X168050028Y-66594445D01*
X168050028Y-66159017D02*
X166526028Y-66159017D01*
X166743742Y-66304160D01*
X166888885Y-66449302D01*
X166961457Y-66594445D01*
X166526028Y-65215588D02*
X166526028Y-64199588D01*
X168050028Y-64852731D01*
X167469457Y-63619017D02*
X167469457Y-62457874D01*
X166526028Y-61006445D02*
X166526028Y-61732160D01*
X167251742Y-61804731D01*
X167179171Y-61732160D01*
X167106600Y-61587017D01*
X167106600Y-61224160D01*
X167179171Y-61079017D01*
X167251742Y-61006445D01*
X167396885Y-60933874D01*
X167759742Y-60933874D01*
X167904885Y-61006445D01*
X167977457Y-61079017D01*
X168050028Y-61224160D01*
X168050028Y-61587017D01*
X167977457Y-61732160D01*
X167904885Y-61804731D01*
X166526028Y-60498445D02*
X168050028Y-59990445D01*
X166526028Y-59482445D01*
G04 #@! TO.C,audioint1*
D11*
X167804374Y-105778300D02*
X167405231Y-105778300D01*
X167332660Y-105814585D01*
X167296374Y-105887157D01*
X167296374Y-106032300D01*
X167332660Y-106104871D01*
X167768088Y-105778300D02*
X167804374Y-105850871D01*
X167804374Y-106032300D01*
X167768088Y-106104871D01*
X167695517Y-106141157D01*
X167622945Y-106141157D01*
X167550374Y-106104871D01*
X167514088Y-106032300D01*
X167514088Y-105850871D01*
X167477802Y-105778300D01*
X167296374Y-105088871D02*
X167804374Y-105088871D01*
X167296374Y-105415442D02*
X167695517Y-105415442D01*
X167768088Y-105379157D01*
X167804374Y-105306585D01*
X167804374Y-105197728D01*
X167768088Y-105125157D01*
X167731802Y-105088871D01*
X167804374Y-104399442D02*
X167042374Y-104399442D01*
X167768088Y-104399442D02*
X167804374Y-104472014D01*
X167804374Y-104617157D01*
X167768088Y-104689728D01*
X167731802Y-104726014D01*
X167659231Y-104762300D01*
X167441517Y-104762300D01*
X167368945Y-104726014D01*
X167332660Y-104689728D01*
X167296374Y-104617157D01*
X167296374Y-104472014D01*
X167332660Y-104399442D01*
X167804374Y-104036585D02*
X167296374Y-104036585D01*
X167042374Y-104036585D02*
X167078660Y-104072871D01*
X167114945Y-104036585D01*
X167078660Y-104000300D01*
X167042374Y-104036585D01*
X167114945Y-104036585D01*
X167804374Y-103564871D02*
X167768088Y-103637442D01*
X167731802Y-103673728D01*
X167659231Y-103710014D01*
X167441517Y-103710014D01*
X167368945Y-103673728D01*
X167332660Y-103637442D01*
X167296374Y-103564871D01*
X167296374Y-103456014D01*
X167332660Y-103383442D01*
X167368945Y-103347157D01*
X167441517Y-103310871D01*
X167659231Y-103310871D01*
X167731802Y-103347157D01*
X167768088Y-103383442D01*
X167804374Y-103456014D01*
X167804374Y-103564871D01*
X167804374Y-102984300D02*
X167296374Y-102984300D01*
X167042374Y-102984300D02*
X167078660Y-103020585D01*
X167114945Y-102984300D01*
X167078660Y-102948014D01*
X167042374Y-102984300D01*
X167114945Y-102984300D01*
X167296374Y-102621442D02*
X167804374Y-102621442D01*
X167368945Y-102621442D02*
X167332660Y-102585157D01*
X167296374Y-102512585D01*
X167296374Y-102403728D01*
X167332660Y-102331157D01*
X167405231Y-102294871D01*
X167804374Y-102294871D01*
X167296374Y-102040871D02*
X167296374Y-101750585D01*
X167042374Y-101932014D02*
X167695517Y-101932014D01*
X167768088Y-101895728D01*
X167804374Y-101823157D01*
X167804374Y-101750585D01*
X167804374Y-101097442D02*
X167804374Y-101532871D01*
X167804374Y-101315157D02*
X167042374Y-101315157D01*
X167151231Y-101387728D01*
X167223802Y-101460300D01*
X167260088Y-101532871D01*
X164846000Y-107763491D02*
X164846000Y-107400634D01*
X165063714Y-107836062D02*
X164301714Y-107582062D01*
X165063714Y-107328062D01*
X164301714Y-107074062D02*
X164918571Y-107074062D01*
X164991142Y-107037777D01*
X165027428Y-107001491D01*
X165063714Y-106928920D01*
X165063714Y-106783777D01*
X165027428Y-106711205D01*
X164991142Y-106674920D01*
X164918571Y-106638634D01*
X164301714Y-106638634D01*
X165063714Y-106275777D02*
X164301714Y-106275777D01*
X164301714Y-106094348D01*
X164338000Y-105985491D01*
X164410571Y-105912920D01*
X164483142Y-105876634D01*
X164628285Y-105840348D01*
X164737142Y-105840348D01*
X164882285Y-105876634D01*
X164954857Y-105912920D01*
X165027428Y-105985491D01*
X165063714Y-106094348D01*
X165063714Y-106275777D01*
X165063714Y-105513777D02*
X164301714Y-105513777D01*
X164301714Y-105005777D02*
X164301714Y-104860634D01*
X164338000Y-104788062D01*
X164410571Y-104715491D01*
X164555714Y-104679205D01*
X164809714Y-104679205D01*
X164954857Y-104715491D01*
X165027428Y-104788062D01*
X165063714Y-104860634D01*
X165063714Y-105005777D01*
X165027428Y-105078348D01*
X164954857Y-105150920D01*
X164809714Y-105187205D01*
X164555714Y-105187205D01*
X164410571Y-105150920D01*
X164338000Y-105078348D01*
X164301714Y-105005777D01*
X165063714Y-104352634D02*
X164301714Y-104352634D01*
X165063714Y-103989777D02*
X164301714Y-103989777D01*
X165063714Y-103554348D01*
X164301714Y-103554348D01*
X164301714Y-103300348D02*
X164301714Y-102864920D01*
X165063714Y-103082634D02*
X164301714Y-103082634D01*
X165136285Y-102792348D02*
X165136285Y-102211777D01*
X164301714Y-102102920D02*
X165063714Y-101921491D01*
X164519428Y-101776348D01*
X165063714Y-101631205D01*
X164301714Y-101449777D01*
X165063714Y-101159491D02*
X164301714Y-101159491D01*
X164846000Y-100905491D01*
X164301714Y-100651491D01*
X165063714Y-100651491D01*
X164628285Y-100179777D02*
X164592000Y-100252348D01*
X164555714Y-100288634D01*
X164483142Y-100324920D01*
X164446857Y-100324920D01*
X164374285Y-100288634D01*
X164338000Y-100252348D01*
X164301714Y-100179777D01*
X164301714Y-100034634D01*
X164338000Y-99962062D01*
X164374285Y-99925777D01*
X164446857Y-99889491D01*
X164483142Y-99889491D01*
X164555714Y-99925777D01*
X164592000Y-99962062D01*
X164628285Y-100034634D01*
X164628285Y-100179777D01*
X164664571Y-100252348D01*
X164700857Y-100288634D01*
X164773428Y-100324920D01*
X164918571Y-100324920D01*
X164991142Y-100288634D01*
X165027428Y-100252348D01*
X165063714Y-100179777D01*
X165063714Y-100034634D01*
X165027428Y-99962062D01*
X164991142Y-99925777D01*
X164918571Y-99889491D01*
X164773428Y-99889491D01*
X164700857Y-99925777D01*
X164664571Y-99962062D01*
X164628285Y-100034634D01*
X164301714Y-99635491D02*
X164301714Y-99127491D01*
X165063714Y-99454062D01*
X164301714Y-98909777D02*
X164301714Y-98438062D01*
X164592000Y-98692062D01*
X164592000Y-98583205D01*
X164628285Y-98510634D01*
X164664571Y-98474348D01*
X164737142Y-98438062D01*
X164918571Y-98438062D01*
X164991142Y-98474348D01*
X165027428Y-98510634D01*
X165063714Y-98583205D01*
X165063714Y-98800920D01*
X165027428Y-98873491D01*
X164991142Y-98909777D01*
X165063714Y-97712348D02*
X165063714Y-98147777D01*
X165063714Y-97930062D02*
X164301714Y-97930062D01*
X164410571Y-98002634D01*
X164483142Y-98075205D01*
X164519428Y-98147777D01*
G04 #@! TO.C,D4*
D19*
X174074787Y-150932121D02*
X173775067Y-150932121D01*
X173775067Y-150860760D01*
X173789340Y-150817942D01*
X173817884Y-150789398D01*
X173846429Y-150775125D01*
X173903519Y-150760853D01*
X173946336Y-150760853D01*
X174003425Y-150775125D01*
X174031970Y-150789398D01*
X174060515Y-150817942D01*
X174074787Y-150860760D01*
X174074787Y-150932121D01*
X173874974Y-150503950D02*
X174074787Y-150503950D01*
X173760795Y-150575312D02*
X173974880Y-150646674D01*
X173974880Y-150461133D01*
D20*
D19*
X171875147Y-152004243D02*
X171575427Y-152004243D01*
X171575427Y-151932881D01*
X171589700Y-151890064D01*
X171618244Y-151861520D01*
X171646789Y-151847247D01*
X171703879Y-151832975D01*
X171746696Y-151832975D01*
X171803785Y-151847247D01*
X171832330Y-151861520D01*
X171860875Y-151890064D01*
X171875147Y-151932881D01*
X171875147Y-152004243D01*
X171875147Y-151704523D02*
X171575427Y-151704523D01*
X171575427Y-151504710D02*
X171575427Y-151447620D01*
X171589700Y-151419076D01*
X171618244Y-151390531D01*
X171675334Y-151376259D01*
X171775240Y-151376259D01*
X171832330Y-151390531D01*
X171860875Y-151419076D01*
X171875147Y-151447620D01*
X171875147Y-151504710D01*
X171860875Y-151533255D01*
X171832330Y-151561800D01*
X171775240Y-151576072D01*
X171675334Y-151576072D01*
X171618244Y-151561800D01*
X171589700Y-151533255D01*
X171575427Y-151504710D01*
X171875147Y-151247807D02*
X171575427Y-151247807D01*
X171575427Y-151176445D01*
X171589700Y-151133628D01*
X171618244Y-151105083D01*
X171646789Y-151090811D01*
X171703879Y-151076539D01*
X171746696Y-151076539D01*
X171803785Y-151090811D01*
X171832330Y-151105083D01*
X171860875Y-151133628D01*
X171875147Y-151176445D01*
X171875147Y-151247807D01*
X171718151Y-150948087D02*
X171718151Y-150848180D01*
X171875147Y-150805363D02*
X171875147Y-150948087D01*
X171575427Y-150948087D01*
X171575427Y-150805363D01*
D20*
G04 #@! TO.C,D3*
D19*
X173945247Y-142832061D02*
X173645527Y-142832061D01*
X173645527Y-142760700D01*
X173659800Y-142717882D01*
X173688344Y-142689338D01*
X173716889Y-142675065D01*
X173773979Y-142660793D01*
X173816796Y-142660793D01*
X173873885Y-142675065D01*
X173902430Y-142689338D01*
X173930975Y-142717882D01*
X173945247Y-142760700D01*
X173945247Y-142832061D01*
X173645527Y-142560886D02*
X173645527Y-142375345D01*
X173759706Y-142475252D01*
X173759706Y-142432435D01*
X173773979Y-142403890D01*
X173788251Y-142389618D01*
X173816796Y-142375345D01*
X173888158Y-142375345D01*
X173916702Y-142389618D01*
X173930975Y-142403890D01*
X173945247Y-142432435D01*
X173945247Y-142518069D01*
X173930975Y-142546614D01*
X173916702Y-142560886D01*
D20*
D19*
X171745607Y-143904183D02*
X171445887Y-143904183D01*
X171445887Y-143832821D01*
X171460160Y-143790004D01*
X171488704Y-143761460D01*
X171517249Y-143747187D01*
X171574339Y-143732915D01*
X171617156Y-143732915D01*
X171674245Y-143747187D01*
X171702790Y-143761460D01*
X171731335Y-143790004D01*
X171745607Y-143832821D01*
X171745607Y-143904183D01*
X171745607Y-143604463D02*
X171445887Y-143604463D01*
X171445887Y-143404650D02*
X171445887Y-143347560D01*
X171460160Y-143319016D01*
X171488704Y-143290471D01*
X171545794Y-143276199D01*
X171645700Y-143276199D01*
X171702790Y-143290471D01*
X171731335Y-143319016D01*
X171745607Y-143347560D01*
X171745607Y-143404650D01*
X171731335Y-143433195D01*
X171702790Y-143461740D01*
X171645700Y-143476012D01*
X171545794Y-143476012D01*
X171488704Y-143461740D01*
X171460160Y-143433195D01*
X171445887Y-143404650D01*
X171745607Y-143147747D02*
X171445887Y-143147747D01*
X171445887Y-143076385D01*
X171460160Y-143033568D01*
X171488704Y-143005023D01*
X171517249Y-142990751D01*
X171574339Y-142976479D01*
X171617156Y-142976479D01*
X171674245Y-142990751D01*
X171702790Y-143005023D01*
X171731335Y-143033568D01*
X171745607Y-143076385D01*
X171745607Y-143147747D01*
X171588611Y-142848027D02*
X171588611Y-142748120D01*
X171745607Y-142705303D02*
X171745607Y-142848027D01*
X171445887Y-142848027D01*
X171445887Y-142705303D01*
D20*
G04 #@! TO.C,U5*
D11*
X157019171Y-145414395D02*
X157944457Y-145414395D01*
X158053314Y-145366014D01*
X158107742Y-145317633D01*
X158162171Y-145220871D01*
X158162171Y-145027347D01*
X158107742Y-144930585D01*
X158053314Y-144882204D01*
X157944457Y-144833823D01*
X157019171Y-144833823D01*
X157019171Y-143866204D02*
X157019171Y-144350014D01*
X157563457Y-144398395D01*
X157509028Y-144350014D01*
X157454600Y-144253252D01*
X157454600Y-144011347D01*
X157509028Y-143914585D01*
X157563457Y-143866204D01*
X157672314Y-143817823D01*
X157944457Y-143817823D01*
X158053314Y-143866204D01*
X158107742Y-143914585D01*
X158162171Y-144011347D01*
X158162171Y-144253252D01*
X158107742Y-144350014D01*
X158053314Y-144398395D01*
X155564719Y-145366014D02*
X155564719Y-145849823D01*
X154548719Y-145849823D01*
X155564719Y-145027347D02*
X154548719Y-145027347D01*
X155274433Y-144688680D01*
X154548719Y-144350014D01*
X155564719Y-144350014D01*
X155032528Y-143866204D02*
X155032528Y-143527538D01*
X155564719Y-143382395D02*
X155564719Y-143866204D01*
X154548719Y-143866204D01*
X154548719Y-143382395D01*
G04 #@! TO.C,U6*
X155080304Y-122490411D02*
X155080304Y-123415697D01*
X155128685Y-123524554D01*
X155177066Y-123578982D01*
X155273828Y-123633411D01*
X155467352Y-123633411D01*
X155564114Y-123578982D01*
X155612495Y-123524554D01*
X155660876Y-123415697D01*
X155660876Y-122490411D01*
X156580114Y-122490411D02*
X156386590Y-122490411D01*
X156289828Y-122544840D01*
X156241447Y-122599268D01*
X156144685Y-122762554D01*
X156096304Y-122980268D01*
X156096304Y-123415697D01*
X156144685Y-123524554D01*
X156193066Y-123578982D01*
X156289828Y-123633411D01*
X156483352Y-123633411D01*
X156580114Y-123578982D01*
X156628495Y-123524554D01*
X156676876Y-123415697D01*
X156676876Y-123143554D01*
X156628495Y-123034697D01*
X156580114Y-122980268D01*
X156483352Y-122925840D01*
X156289828Y-122925840D01*
X156193066Y-122980268D01*
X156144685Y-123034697D01*
X156096304Y-123143554D01*
X155028779Y-125014566D02*
X154012779Y-125014566D01*
X154738493Y-124675900D01*
X154012779Y-124337233D01*
X155028779Y-124337233D01*
X154932017Y-123272852D02*
X154980398Y-123321233D01*
X155028779Y-123466376D01*
X155028779Y-123563138D01*
X154980398Y-123708280D01*
X154883636Y-123805042D01*
X154786874Y-123853423D01*
X154593350Y-123901804D01*
X154448207Y-123901804D01*
X154254683Y-123853423D01*
X154157921Y-123805042D01*
X154061160Y-123708280D01*
X154012779Y-123563138D01*
X154012779Y-123466376D01*
X154061160Y-123321233D01*
X154109540Y-123272852D01*
X155028779Y-122837423D02*
X154012779Y-122837423D01*
X154012779Y-122450376D01*
X154061160Y-122353614D01*
X154109540Y-122305233D01*
X154206302Y-122256852D01*
X154351445Y-122256852D01*
X154448207Y-122305233D01*
X154496588Y-122353614D01*
X154544969Y-122450376D01*
X154544969Y-122837423D01*
G04 #@! TO.C,U9*
X138624491Y-150082915D02*
X139549777Y-150082915D01*
X139658634Y-150034534D01*
X139713062Y-149986153D01*
X139767491Y-149889391D01*
X139767491Y-149695867D01*
X139713062Y-149599105D01*
X139658634Y-149550724D01*
X139549777Y-149502343D01*
X138624491Y-149502343D01*
X139767491Y-148970153D02*
X139767491Y-148776629D01*
X139713062Y-148679867D01*
X139658634Y-148631486D01*
X139495348Y-148534724D01*
X139277634Y-148486343D01*
X138842205Y-148486343D01*
X138733348Y-148534724D01*
X138678920Y-148583105D01*
X138624491Y-148679867D01*
X138624491Y-148873391D01*
X138678920Y-148970153D01*
X138733348Y-149018534D01*
X138842205Y-149066915D01*
X139114348Y-149066915D01*
X139223205Y-149018534D01*
X139277634Y-148970153D01*
X139332062Y-148873391D01*
X139332062Y-148679867D01*
X139277634Y-148583105D01*
X139223205Y-148534724D01*
X139114348Y-148486343D01*
X138091333Y-148554319D02*
X138091333Y-147538319D01*
X138430000Y-148264033D01*
X138768666Y-147538319D01*
X138768666Y-148554319D01*
X139833047Y-148457557D02*
X139784666Y-148505938D01*
X139639523Y-148554319D01*
X139542761Y-148554319D01*
X139397619Y-148505938D01*
X139300857Y-148409176D01*
X139252476Y-148312414D01*
X139204095Y-148118890D01*
X139204095Y-147973747D01*
X139252476Y-147780223D01*
X139300857Y-147683461D01*
X139397619Y-147586700D01*
X139542761Y-147538319D01*
X139639523Y-147538319D01*
X139784666Y-147586700D01*
X139833047Y-147635080D01*
X140268476Y-148554319D02*
X140268476Y-147538319D01*
X140655523Y-147538319D01*
X140752285Y-147586700D01*
X140800666Y-147635080D01*
X140849047Y-147731842D01*
X140849047Y-147876985D01*
X140800666Y-147973747D01*
X140752285Y-148022128D01*
X140655523Y-148070509D01*
X140268476Y-148070509D01*
G04 #@! TO.C,U10*
X130321231Y-146881184D02*
X131246517Y-146881184D01*
X131355374Y-146832803D01*
X131409802Y-146784422D01*
X131464231Y-146687660D01*
X131464231Y-146494137D01*
X131409802Y-146397375D01*
X131355374Y-146348994D01*
X131246517Y-146300613D01*
X130321231Y-146300613D01*
X131464231Y-145284613D02*
X131464231Y-145865184D01*
X131464231Y-145574899D02*
X130321231Y-145574899D01*
X130484517Y-145671660D01*
X130593374Y-145768422D01*
X130647802Y-145865184D01*
X130321231Y-144655660D02*
X130321231Y-144558899D01*
X130375660Y-144462137D01*
X130430088Y-144413756D01*
X130538945Y-144365375D01*
X130756660Y-144316994D01*
X131028802Y-144316994D01*
X131246517Y-144365375D01*
X131355374Y-144413756D01*
X131409802Y-144462137D01*
X131464231Y-144558899D01*
X131464231Y-144655660D01*
X131409802Y-144752422D01*
X131355374Y-144800803D01*
X131246517Y-144849184D01*
X131028802Y-144897565D01*
X130756660Y-144897565D01*
X130538945Y-144849184D01*
X130430088Y-144800803D01*
X130375660Y-144752422D01*
X130321231Y-144655660D01*
X130085979Y-147028746D02*
X129069979Y-147028746D01*
X129795693Y-146690080D01*
X129069979Y-146351413D01*
X130085979Y-146351413D01*
X129989217Y-145287032D02*
X130037598Y-145335413D01*
X130085979Y-145480556D01*
X130085979Y-145577318D01*
X130037598Y-145722460D01*
X129940836Y-145819222D01*
X129844074Y-145867603D01*
X129650550Y-145915984D01*
X129505407Y-145915984D01*
X129311883Y-145867603D01*
X129215121Y-145819222D01*
X129118360Y-145722460D01*
X129069979Y-145577318D01*
X129069979Y-145480556D01*
X129118360Y-145335413D01*
X129166740Y-145287032D01*
X130085979Y-144851603D02*
X129069979Y-144851603D01*
X129069979Y-144464556D01*
X129118360Y-144367794D01*
X129166740Y-144319413D01*
X129263502Y-144271032D01*
X129408645Y-144271032D01*
X129505407Y-144319413D01*
X129553788Y-144367794D01*
X129602169Y-144464556D01*
X129602169Y-144851603D01*
G04 #@! TO.C,C34*
X157521002Y-110231282D02*
X157484717Y-110267568D01*
X157375860Y-110303854D01*
X157303288Y-110303854D01*
X157194431Y-110267568D01*
X157121860Y-110194997D01*
X157085574Y-110122425D01*
X157049288Y-109977282D01*
X157049288Y-109868425D01*
X157085574Y-109723282D01*
X157121860Y-109650711D01*
X157194431Y-109578140D01*
X157303288Y-109541854D01*
X157375860Y-109541854D01*
X157484717Y-109578140D01*
X157521002Y-109614425D01*
X157775002Y-109541854D02*
X158246717Y-109541854D01*
X157992717Y-109832140D01*
X158101574Y-109832140D01*
X158174145Y-109868425D01*
X158210431Y-109904711D01*
X158246717Y-109977282D01*
X158246717Y-110158711D01*
X158210431Y-110231282D01*
X158174145Y-110267568D01*
X158101574Y-110303854D01*
X157883860Y-110303854D01*
X157811288Y-110267568D01*
X157775002Y-110231282D01*
X158899860Y-109795854D02*
X158899860Y-110303854D01*
X158718431Y-109505568D02*
X158537002Y-110049854D01*
X159008717Y-110049854D01*
G04 #@! TO.C,C25*
X153357942Y-68053857D02*
X153394228Y-68090142D01*
X153430514Y-68199000D01*
X153430514Y-68271571D01*
X153394228Y-68380428D01*
X153321657Y-68453000D01*
X153249085Y-68489285D01*
X153103942Y-68525571D01*
X152995085Y-68525571D01*
X152849942Y-68489285D01*
X152777371Y-68453000D01*
X152704800Y-68380428D01*
X152668514Y-68271571D01*
X152668514Y-68199000D01*
X152704800Y-68090142D01*
X152741085Y-68053857D01*
X152741085Y-67763571D02*
X152704800Y-67727285D01*
X152668514Y-67654714D01*
X152668514Y-67473285D01*
X152704800Y-67400714D01*
X152741085Y-67364428D01*
X152813657Y-67328142D01*
X152886228Y-67328142D01*
X152995085Y-67364428D01*
X153430514Y-67799857D01*
X153430514Y-67328142D01*
X152668514Y-66638714D02*
X152668514Y-67001571D01*
X153031371Y-67037857D01*
X152995085Y-67001571D01*
X152958800Y-66929000D01*
X152958800Y-66747571D01*
X152995085Y-66675000D01*
X153031371Y-66638714D01*
X153103942Y-66602428D01*
X153285371Y-66602428D01*
X153357942Y-66638714D01*
X153394228Y-66675000D01*
X153430514Y-66747571D01*
X153430514Y-66929000D01*
X153394228Y-67001571D01*
X153357942Y-67037857D01*
G04 #@! TO.C,C26*
X170160042Y-109812182D02*
X170123757Y-109848468D01*
X170014900Y-109884754D01*
X169942328Y-109884754D01*
X169833471Y-109848468D01*
X169760900Y-109775897D01*
X169724614Y-109703325D01*
X169688328Y-109558182D01*
X169688328Y-109449325D01*
X169724614Y-109304182D01*
X169760900Y-109231611D01*
X169833471Y-109159040D01*
X169942328Y-109122754D01*
X170014900Y-109122754D01*
X170123757Y-109159040D01*
X170160042Y-109195325D01*
X170450328Y-109195325D02*
X170486614Y-109159040D01*
X170559185Y-109122754D01*
X170740614Y-109122754D01*
X170813185Y-109159040D01*
X170849471Y-109195325D01*
X170885757Y-109267897D01*
X170885757Y-109340468D01*
X170849471Y-109449325D01*
X170414042Y-109884754D01*
X170885757Y-109884754D01*
X171538900Y-109122754D02*
X171393757Y-109122754D01*
X171321185Y-109159040D01*
X171284900Y-109195325D01*
X171212328Y-109304182D01*
X171176042Y-109449325D01*
X171176042Y-109739611D01*
X171212328Y-109812182D01*
X171248614Y-109848468D01*
X171321185Y-109884754D01*
X171466328Y-109884754D01*
X171538900Y-109848468D01*
X171575185Y-109812182D01*
X171611471Y-109739611D01*
X171611471Y-109558182D01*
X171575185Y-109485611D01*
X171538900Y-109449325D01*
X171466328Y-109413040D01*
X171321185Y-109413040D01*
X171248614Y-109449325D01*
X171212328Y-109485611D01*
X171176042Y-109558182D01*
G04 #@! TO.C,C20*
X163314742Y-142996557D02*
X163351028Y-143032842D01*
X163387314Y-143141700D01*
X163387314Y-143214271D01*
X163351028Y-143323128D01*
X163278457Y-143395700D01*
X163205885Y-143431985D01*
X163060742Y-143468271D01*
X162951885Y-143468271D01*
X162806742Y-143431985D01*
X162734171Y-143395700D01*
X162661600Y-143323128D01*
X162625314Y-143214271D01*
X162625314Y-143141700D01*
X162661600Y-143032842D01*
X162697885Y-142996557D01*
X162697885Y-142706271D02*
X162661600Y-142669985D01*
X162625314Y-142597414D01*
X162625314Y-142415985D01*
X162661600Y-142343414D01*
X162697885Y-142307128D01*
X162770457Y-142270842D01*
X162843028Y-142270842D01*
X162951885Y-142307128D01*
X163387314Y-142742557D01*
X163387314Y-142270842D01*
X162625314Y-141799128D02*
X162625314Y-141726557D01*
X162661600Y-141653985D01*
X162697885Y-141617700D01*
X162770457Y-141581414D01*
X162915600Y-141545128D01*
X163097028Y-141545128D01*
X163242171Y-141581414D01*
X163314742Y-141617700D01*
X163351028Y-141653985D01*
X163387314Y-141726557D01*
X163387314Y-141799128D01*
X163351028Y-141871700D01*
X163314742Y-141907985D01*
X163242171Y-141944271D01*
X163097028Y-141980557D01*
X162915600Y-141980557D01*
X162770457Y-141944271D01*
X162697885Y-141907985D01*
X162661600Y-141871700D01*
X162625314Y-141799128D01*
G04 #@! TO.C,C21*
X147462602Y-68099577D02*
X147498888Y-68135862D01*
X147535174Y-68244720D01*
X147535174Y-68317291D01*
X147498888Y-68426148D01*
X147426317Y-68498720D01*
X147353745Y-68535005D01*
X147208602Y-68571291D01*
X147099745Y-68571291D01*
X146954602Y-68535005D01*
X146882031Y-68498720D01*
X146809460Y-68426148D01*
X146773174Y-68317291D01*
X146773174Y-68244720D01*
X146809460Y-68135862D01*
X146845745Y-68099577D01*
X146845745Y-67809291D02*
X146809460Y-67773005D01*
X146773174Y-67700434D01*
X146773174Y-67519005D01*
X146809460Y-67446434D01*
X146845745Y-67410148D01*
X146918317Y-67373862D01*
X146990888Y-67373862D01*
X147099745Y-67410148D01*
X147535174Y-67845577D01*
X147535174Y-67373862D01*
X147535174Y-66648148D02*
X147535174Y-67083577D01*
X147535174Y-66865862D02*
X146773174Y-66865862D01*
X146882031Y-66938434D01*
X146954602Y-67011005D01*
X146990888Y-67083577D01*
G04 #@! TO.C,C22*
X139210142Y-73387857D02*
X139246428Y-73424142D01*
X139282714Y-73533000D01*
X139282714Y-73605571D01*
X139246428Y-73714428D01*
X139173857Y-73787000D01*
X139101285Y-73823285D01*
X138956142Y-73859571D01*
X138847285Y-73859571D01*
X138702142Y-73823285D01*
X138629571Y-73787000D01*
X138557000Y-73714428D01*
X138520714Y-73605571D01*
X138520714Y-73533000D01*
X138557000Y-73424142D01*
X138593285Y-73387857D01*
X138593285Y-73097571D02*
X138557000Y-73061285D01*
X138520714Y-72988714D01*
X138520714Y-72807285D01*
X138557000Y-72734714D01*
X138593285Y-72698428D01*
X138665857Y-72662142D01*
X138738428Y-72662142D01*
X138847285Y-72698428D01*
X139282714Y-73133857D01*
X139282714Y-72662142D01*
X138593285Y-72371857D02*
X138557000Y-72335571D01*
X138520714Y-72263000D01*
X138520714Y-72081571D01*
X138557000Y-72009000D01*
X138593285Y-71972714D01*
X138665857Y-71936428D01*
X138738428Y-71936428D01*
X138847285Y-71972714D01*
X139282714Y-72408142D01*
X139282714Y-71936428D01*
G04 #@! TO.C,C23*
X139083142Y-62798597D02*
X139119428Y-62834882D01*
X139155714Y-62943740D01*
X139155714Y-63016311D01*
X139119428Y-63125168D01*
X139046857Y-63197740D01*
X138974285Y-63234025D01*
X138829142Y-63270311D01*
X138720285Y-63270311D01*
X138575142Y-63234025D01*
X138502571Y-63197740D01*
X138430000Y-63125168D01*
X138393714Y-63016311D01*
X138393714Y-62943740D01*
X138430000Y-62834882D01*
X138466285Y-62798597D01*
X138466285Y-62508311D02*
X138430000Y-62472025D01*
X138393714Y-62399454D01*
X138393714Y-62218025D01*
X138430000Y-62145454D01*
X138466285Y-62109168D01*
X138538857Y-62072882D01*
X138611428Y-62072882D01*
X138720285Y-62109168D01*
X139155714Y-62544597D01*
X139155714Y-62072882D01*
X138393714Y-61818882D02*
X138393714Y-61347168D01*
X138684000Y-61601168D01*
X138684000Y-61492311D01*
X138720285Y-61419740D01*
X138756571Y-61383454D01*
X138829142Y-61347168D01*
X139010571Y-61347168D01*
X139083142Y-61383454D01*
X139119428Y-61419740D01*
X139155714Y-61492311D01*
X139155714Y-61710025D01*
X139119428Y-61782597D01*
X139083142Y-61818882D01*
G04 #@! TO.C,C24*
X150602042Y-68053857D02*
X150638328Y-68090142D01*
X150674614Y-68199000D01*
X150674614Y-68271571D01*
X150638328Y-68380428D01*
X150565757Y-68453000D01*
X150493185Y-68489285D01*
X150348042Y-68525571D01*
X150239185Y-68525571D01*
X150094042Y-68489285D01*
X150021471Y-68453000D01*
X149948900Y-68380428D01*
X149912614Y-68271571D01*
X149912614Y-68199000D01*
X149948900Y-68090142D01*
X149985185Y-68053857D01*
X149985185Y-67763571D02*
X149948900Y-67727285D01*
X149912614Y-67654714D01*
X149912614Y-67473285D01*
X149948900Y-67400714D01*
X149985185Y-67364428D01*
X150057757Y-67328142D01*
X150130328Y-67328142D01*
X150239185Y-67364428D01*
X150674614Y-67799857D01*
X150674614Y-67328142D01*
X150166614Y-66675000D02*
X150674614Y-66675000D01*
X149876328Y-66856428D02*
X150420614Y-67037857D01*
X150420614Y-66566142D01*
G04 #@! TO.C,C35*
X155450902Y-97390857D02*
X155487188Y-97427142D01*
X155523474Y-97536000D01*
X155523474Y-97608571D01*
X155487188Y-97717428D01*
X155414617Y-97790000D01*
X155342045Y-97826285D01*
X155196902Y-97862571D01*
X155088045Y-97862571D01*
X154942902Y-97826285D01*
X154870331Y-97790000D01*
X154797760Y-97717428D01*
X154761474Y-97608571D01*
X154761474Y-97536000D01*
X154797760Y-97427142D01*
X154834045Y-97390857D01*
X154761474Y-97136857D02*
X154761474Y-96665142D01*
X155051760Y-96919142D01*
X155051760Y-96810285D01*
X155088045Y-96737714D01*
X155124331Y-96701428D01*
X155196902Y-96665142D01*
X155378331Y-96665142D01*
X155450902Y-96701428D01*
X155487188Y-96737714D01*
X155523474Y-96810285D01*
X155523474Y-97028000D01*
X155487188Y-97100571D01*
X155450902Y-97136857D01*
X154761474Y-95975714D02*
X154761474Y-96338571D01*
X155124331Y-96374857D01*
X155088045Y-96338571D01*
X155051760Y-96266000D01*
X155051760Y-96084571D01*
X155088045Y-96012000D01*
X155124331Y-95975714D01*
X155196902Y-95939428D01*
X155378331Y-95939428D01*
X155450902Y-95975714D01*
X155487188Y-96012000D01*
X155523474Y-96084571D01*
X155523474Y-96266000D01*
X155487188Y-96338571D01*
X155450902Y-96374857D01*
G04 #@! TO.C,C36*
X143990422Y-92662102D02*
X143954137Y-92698388D01*
X143845280Y-92734674D01*
X143772708Y-92734674D01*
X143663851Y-92698388D01*
X143591280Y-92625817D01*
X143554994Y-92553245D01*
X143518708Y-92408102D01*
X143518708Y-92299245D01*
X143554994Y-92154102D01*
X143591280Y-92081531D01*
X143663851Y-92008960D01*
X143772708Y-91972674D01*
X143845280Y-91972674D01*
X143954137Y-92008960D01*
X143990422Y-92045245D01*
X144244422Y-91972674D02*
X144716137Y-91972674D01*
X144462137Y-92262960D01*
X144570994Y-92262960D01*
X144643565Y-92299245D01*
X144679851Y-92335531D01*
X144716137Y-92408102D01*
X144716137Y-92589531D01*
X144679851Y-92662102D01*
X144643565Y-92698388D01*
X144570994Y-92734674D01*
X144353280Y-92734674D01*
X144280708Y-92698388D01*
X144244422Y-92662102D01*
X145369280Y-91972674D02*
X145224137Y-91972674D01*
X145151565Y-92008960D01*
X145115280Y-92045245D01*
X145042708Y-92154102D01*
X145006422Y-92299245D01*
X145006422Y-92589531D01*
X145042708Y-92662102D01*
X145078994Y-92698388D01*
X145151565Y-92734674D01*
X145296708Y-92734674D01*
X145369280Y-92698388D01*
X145405565Y-92662102D01*
X145441851Y-92589531D01*
X145441851Y-92408102D01*
X145405565Y-92335531D01*
X145369280Y-92299245D01*
X145296708Y-92262960D01*
X145151565Y-92262960D01*
X145078994Y-92299245D01*
X145042708Y-92335531D01*
X145006422Y-92408102D01*
G04 #@! TO.C,C38*
X134650842Y-105302957D02*
X134687128Y-105339242D01*
X134723414Y-105448100D01*
X134723414Y-105520671D01*
X134687128Y-105629528D01*
X134614557Y-105702100D01*
X134541985Y-105738385D01*
X134396842Y-105774671D01*
X134287985Y-105774671D01*
X134142842Y-105738385D01*
X134070271Y-105702100D01*
X133997700Y-105629528D01*
X133961414Y-105520671D01*
X133961414Y-105448100D01*
X133997700Y-105339242D01*
X134033985Y-105302957D01*
X133961414Y-105048957D02*
X133961414Y-104577242D01*
X134251700Y-104831242D01*
X134251700Y-104722385D01*
X134287985Y-104649814D01*
X134324271Y-104613528D01*
X134396842Y-104577242D01*
X134578271Y-104577242D01*
X134650842Y-104613528D01*
X134687128Y-104649814D01*
X134723414Y-104722385D01*
X134723414Y-104940100D01*
X134687128Y-105012671D01*
X134650842Y-105048957D01*
X134287985Y-104141814D02*
X134251700Y-104214385D01*
X134215414Y-104250671D01*
X134142842Y-104286957D01*
X134106557Y-104286957D01*
X134033985Y-104250671D01*
X133997700Y-104214385D01*
X133961414Y-104141814D01*
X133961414Y-103996671D01*
X133997700Y-103924100D01*
X134033985Y-103887814D01*
X134106557Y-103851528D01*
X134142842Y-103851528D01*
X134215414Y-103887814D01*
X134251700Y-103924100D01*
X134287985Y-103996671D01*
X134287985Y-104141814D01*
X134324271Y-104214385D01*
X134360557Y-104250671D01*
X134433128Y-104286957D01*
X134578271Y-104286957D01*
X134650842Y-104250671D01*
X134687128Y-104214385D01*
X134723414Y-104141814D01*
X134723414Y-103996671D01*
X134687128Y-103924100D01*
X134650842Y-103887814D01*
X134578271Y-103851528D01*
X134433128Y-103851528D01*
X134360557Y-103887814D01*
X134324271Y-103924100D01*
X134287985Y-103996671D01*
G04 #@! TO.C,C14*
X164218982Y-109852822D02*
X164182697Y-109889108D01*
X164073840Y-109925394D01*
X164001268Y-109925394D01*
X163892411Y-109889108D01*
X163819840Y-109816537D01*
X163783554Y-109743965D01*
X163747268Y-109598822D01*
X163747268Y-109489965D01*
X163783554Y-109344822D01*
X163819840Y-109272251D01*
X163892411Y-109199680D01*
X164001268Y-109163394D01*
X164073840Y-109163394D01*
X164182697Y-109199680D01*
X164218982Y-109235965D01*
X164944697Y-109925394D02*
X164509268Y-109925394D01*
X164726982Y-109925394D02*
X164726982Y-109163394D01*
X164654411Y-109272251D01*
X164581840Y-109344822D01*
X164509268Y-109381108D01*
X165597840Y-109417394D02*
X165597840Y-109925394D01*
X165416411Y-109127108D02*
X165234982Y-109671394D01*
X165706697Y-109671394D01*
G04 #@! TO.C,C27*
X163136942Y-149664057D02*
X163173228Y-149700342D01*
X163209514Y-149809200D01*
X163209514Y-149881771D01*
X163173228Y-149990628D01*
X163100657Y-150063200D01*
X163028085Y-150099485D01*
X162882942Y-150135771D01*
X162774085Y-150135771D01*
X162628942Y-150099485D01*
X162556371Y-150063200D01*
X162483800Y-149990628D01*
X162447514Y-149881771D01*
X162447514Y-149809200D01*
X162483800Y-149700342D01*
X162520085Y-149664057D01*
X162520085Y-149373771D02*
X162483800Y-149337485D01*
X162447514Y-149264914D01*
X162447514Y-149083485D01*
X162483800Y-149010914D01*
X162520085Y-148974628D01*
X162592657Y-148938342D01*
X162665228Y-148938342D01*
X162774085Y-148974628D01*
X163209514Y-149410057D01*
X163209514Y-148938342D01*
X162447514Y-148684342D02*
X162447514Y-148176342D01*
X163209514Y-148502914D01*
G04 #@! TO.C,R5*
X138194626Y-126068061D02*
X137982960Y-125765680D01*
X137831769Y-126068061D02*
X137831769Y-125433061D01*
X138073674Y-125433061D01*
X138134150Y-125463300D01*
X138164388Y-125493538D01*
X138194626Y-125554014D01*
X138194626Y-125644728D01*
X138164388Y-125705204D01*
X138134150Y-125735442D01*
X138073674Y-125765680D01*
X137831769Y-125765680D01*
X138769150Y-125433061D02*
X138466769Y-125433061D01*
X138436531Y-125735442D01*
X138466769Y-125705204D01*
X138527245Y-125674966D01*
X138678436Y-125674966D01*
X138738912Y-125705204D01*
X138769150Y-125735442D01*
X138799388Y-125795919D01*
X138799388Y-125947109D01*
X138769150Y-126007585D01*
X138738912Y-126037823D01*
X138678436Y-126068061D01*
X138527245Y-126068061D01*
X138466769Y-126037823D01*
X138436531Y-126007585D01*
G04 #@! TO.C,R1*
X135276166Y-141341081D02*
X135064500Y-141038700D01*
X134913309Y-141341081D02*
X134913309Y-140706081D01*
X135155214Y-140706081D01*
X135215690Y-140736320D01*
X135245928Y-140766558D01*
X135276166Y-140827034D01*
X135276166Y-140917748D01*
X135245928Y-140978224D01*
X135215690Y-141008462D01*
X135155214Y-141038700D01*
X134913309Y-141038700D01*
X135880928Y-141341081D02*
X135518071Y-141341081D01*
X135699500Y-141341081D02*
X135699500Y-140706081D01*
X135639023Y-140796796D01*
X135578547Y-140857272D01*
X135518071Y-140887510D01*
G04 #@! TO.C,R6*
X148875326Y-120038101D02*
X148663660Y-119735720D01*
X148512469Y-120038101D02*
X148512469Y-119403101D01*
X148754374Y-119403101D01*
X148814850Y-119433340D01*
X148845088Y-119463578D01*
X148875326Y-119524054D01*
X148875326Y-119614768D01*
X148845088Y-119675244D01*
X148814850Y-119705482D01*
X148754374Y-119735720D01*
X148512469Y-119735720D01*
X149419612Y-119403101D02*
X149298660Y-119403101D01*
X149238183Y-119433340D01*
X149207945Y-119463578D01*
X149147469Y-119554292D01*
X149117231Y-119675244D01*
X149117231Y-119917149D01*
X149147469Y-119977625D01*
X149177707Y-120007863D01*
X149238183Y-120038101D01*
X149359136Y-120038101D01*
X149419612Y-120007863D01*
X149449850Y-119977625D01*
X149480088Y-119917149D01*
X149480088Y-119765959D01*
X149449850Y-119705482D01*
X149419612Y-119675244D01*
X149359136Y-119645006D01*
X149238183Y-119645006D01*
X149177707Y-119675244D01*
X149147469Y-119705482D01*
X149117231Y-119765959D01*
G04 #@! TO.C,R4*
X146543606Y-89707961D02*
X146331940Y-89405580D01*
X146180749Y-89707961D02*
X146180749Y-89072961D01*
X146422654Y-89072961D01*
X146483130Y-89103200D01*
X146513368Y-89133438D01*
X146543606Y-89193914D01*
X146543606Y-89284628D01*
X146513368Y-89345104D01*
X146483130Y-89375342D01*
X146422654Y-89405580D01*
X146180749Y-89405580D01*
X147087892Y-89284628D02*
X147087892Y-89707961D01*
X146936701Y-89042723D02*
X146785511Y-89496295D01*
X147178606Y-89496295D01*
G04 #@! TO.C,R3*
X158923566Y-136408401D02*
X158711900Y-136106020D01*
X158560709Y-136408401D02*
X158560709Y-135773401D01*
X158802614Y-135773401D01*
X158863090Y-135803640D01*
X158893328Y-135833878D01*
X158923566Y-135894354D01*
X158923566Y-135985068D01*
X158893328Y-136045544D01*
X158863090Y-136075782D01*
X158802614Y-136106020D01*
X158560709Y-136106020D01*
X159135233Y-135773401D02*
X159528328Y-135773401D01*
X159316661Y-136015306D01*
X159407376Y-136015306D01*
X159467852Y-136045544D01*
X159498090Y-136075782D01*
X159528328Y-136136259D01*
X159528328Y-136287449D01*
X159498090Y-136347925D01*
X159467852Y-136378163D01*
X159407376Y-136408401D01*
X159225947Y-136408401D01*
X159165471Y-136378163D01*
X159135233Y-136347925D01*
G04 #@! TO.C,R2*
X135375226Y-101478321D02*
X135163560Y-101175940D01*
X135012369Y-101478321D02*
X135012369Y-100843321D01*
X135254274Y-100843321D01*
X135314750Y-100873560D01*
X135344988Y-100903798D01*
X135375226Y-100964274D01*
X135375226Y-101054988D01*
X135344988Y-101115464D01*
X135314750Y-101145702D01*
X135254274Y-101175940D01*
X135012369Y-101175940D01*
X135617131Y-100903798D02*
X135647369Y-100873560D01*
X135707845Y-100843321D01*
X135859036Y-100843321D01*
X135919512Y-100873560D01*
X135949750Y-100903798D01*
X135979988Y-100964274D01*
X135979988Y-101024750D01*
X135949750Y-101115464D01*
X135586893Y-101478321D01*
X135979988Y-101478321D01*
G04 #@! TO.C,R34*
X153871385Y-128366761D02*
X153659719Y-128064380D01*
X153508528Y-128366761D02*
X153508528Y-127731761D01*
X153750433Y-127731761D01*
X153810909Y-127762000D01*
X153841147Y-127792238D01*
X153871385Y-127852714D01*
X153871385Y-127943428D01*
X153841147Y-128003904D01*
X153810909Y-128034142D01*
X153750433Y-128064380D01*
X153508528Y-128064380D01*
X154083052Y-127731761D02*
X154476147Y-127731761D01*
X154264480Y-127973666D01*
X154355195Y-127973666D01*
X154415671Y-128003904D01*
X154445909Y-128034142D01*
X154476147Y-128094619D01*
X154476147Y-128245809D01*
X154445909Y-128306285D01*
X154415671Y-128336523D01*
X154355195Y-128366761D01*
X154173766Y-128366761D01*
X154113290Y-128336523D01*
X154083052Y-128306285D01*
X155020433Y-127943428D02*
X155020433Y-128366761D01*
X154869242Y-127701523D02*
X154718052Y-128155095D01*
X155111147Y-128155095D01*
G04 #@! TO.C,R17*
X121857225Y-146286461D02*
X121645559Y-145984080D01*
X121494368Y-146286461D02*
X121494368Y-145651461D01*
X121736273Y-145651461D01*
X121796749Y-145681700D01*
X121826987Y-145711938D01*
X121857225Y-145772414D01*
X121857225Y-145863128D01*
X121826987Y-145923604D01*
X121796749Y-145953842D01*
X121736273Y-145984080D01*
X121494368Y-145984080D01*
X122461987Y-146286461D02*
X122099130Y-146286461D01*
X122280559Y-146286461D02*
X122280559Y-145651461D01*
X122220082Y-145742176D01*
X122159606Y-145802652D01*
X122099130Y-145832890D01*
X122673654Y-145651461D02*
X123096987Y-145651461D01*
X122824844Y-146286461D01*
G04 #@! TO.C,R33*
X150582085Y-151968441D02*
X150370419Y-151666060D01*
X150219228Y-151968441D02*
X150219228Y-151333441D01*
X150461133Y-151333441D01*
X150521609Y-151363680D01*
X150551847Y-151393918D01*
X150582085Y-151454394D01*
X150582085Y-151545108D01*
X150551847Y-151605584D01*
X150521609Y-151635822D01*
X150461133Y-151666060D01*
X150219228Y-151666060D01*
X150793752Y-151333441D02*
X151186847Y-151333441D01*
X150975180Y-151575346D01*
X151065895Y-151575346D01*
X151126371Y-151605584D01*
X151156609Y-151635822D01*
X151186847Y-151696299D01*
X151186847Y-151847489D01*
X151156609Y-151907965D01*
X151126371Y-151938203D01*
X151065895Y-151968441D01*
X150884466Y-151968441D01*
X150823990Y-151938203D01*
X150793752Y-151907965D01*
X151398514Y-151333441D02*
X151791609Y-151333441D01*
X151579942Y-151575346D01*
X151670657Y-151575346D01*
X151731133Y-151605584D01*
X151761371Y-151635822D01*
X151791609Y-151696299D01*
X151791609Y-151847489D01*
X151761371Y-151907965D01*
X151731133Y-151938203D01*
X151670657Y-151968441D01*
X151489228Y-151968441D01*
X151428752Y-151938203D01*
X151398514Y-151907965D01*
G04 #@! TO.C,R32*
X153871385Y-130487661D02*
X153659719Y-130185280D01*
X153508528Y-130487661D02*
X153508528Y-129852661D01*
X153750433Y-129852661D01*
X153810909Y-129882900D01*
X153841147Y-129913138D01*
X153871385Y-129973614D01*
X153871385Y-130064328D01*
X153841147Y-130124804D01*
X153810909Y-130155042D01*
X153750433Y-130185280D01*
X153508528Y-130185280D01*
X154083052Y-129852661D02*
X154476147Y-129852661D01*
X154264480Y-130094566D01*
X154355195Y-130094566D01*
X154415671Y-130124804D01*
X154445909Y-130155042D01*
X154476147Y-130215519D01*
X154476147Y-130366709D01*
X154445909Y-130427185D01*
X154415671Y-130457423D01*
X154355195Y-130487661D01*
X154173766Y-130487661D01*
X154113290Y-130457423D01*
X154083052Y-130427185D01*
X154718052Y-129913138D02*
X154748290Y-129882900D01*
X154808766Y-129852661D01*
X154959957Y-129852661D01*
X155020433Y-129882900D01*
X155050671Y-129913138D01*
X155080909Y-129973614D01*
X155080909Y-130034090D01*
X155050671Y-130124804D01*
X154687814Y-130487661D01*
X155080909Y-130487661D01*
G04 #@! TO.C,R31*
X155161705Y-103048041D02*
X154950039Y-102745660D01*
X154798848Y-103048041D02*
X154798848Y-102413041D01*
X155040753Y-102413041D01*
X155101229Y-102443280D01*
X155131467Y-102473518D01*
X155161705Y-102533994D01*
X155161705Y-102624708D01*
X155131467Y-102685184D01*
X155101229Y-102715422D01*
X155040753Y-102745660D01*
X154798848Y-102745660D01*
X155373372Y-102413041D02*
X155766467Y-102413041D01*
X155554800Y-102654946D01*
X155645515Y-102654946D01*
X155705991Y-102685184D01*
X155736229Y-102715422D01*
X155766467Y-102775899D01*
X155766467Y-102927089D01*
X155736229Y-102987565D01*
X155705991Y-103017803D01*
X155645515Y-103048041D01*
X155464086Y-103048041D01*
X155403610Y-103017803D01*
X155373372Y-102987565D01*
X156371229Y-103048041D02*
X156008372Y-103048041D01*
X156189800Y-103048041D02*
X156189800Y-102413041D01*
X156129324Y-102503756D01*
X156068848Y-102564232D01*
X156008372Y-102594470D01*
G04 #@! TO.C,R30*
X155161705Y-101148121D02*
X154950039Y-100845740D01*
X154798848Y-101148121D02*
X154798848Y-100513121D01*
X155040753Y-100513121D01*
X155101229Y-100543360D01*
X155131467Y-100573598D01*
X155161705Y-100634074D01*
X155161705Y-100724788D01*
X155131467Y-100785264D01*
X155101229Y-100815502D01*
X155040753Y-100845740D01*
X154798848Y-100845740D01*
X155373372Y-100513121D02*
X155766467Y-100513121D01*
X155554800Y-100755026D01*
X155645515Y-100755026D01*
X155705991Y-100785264D01*
X155736229Y-100815502D01*
X155766467Y-100875979D01*
X155766467Y-101027169D01*
X155736229Y-101087645D01*
X155705991Y-101117883D01*
X155645515Y-101148121D01*
X155464086Y-101148121D01*
X155403610Y-101117883D01*
X155373372Y-101087645D01*
X156159562Y-100513121D02*
X156220039Y-100513121D01*
X156280515Y-100543360D01*
X156310753Y-100573598D01*
X156340991Y-100634074D01*
X156371229Y-100755026D01*
X156371229Y-100906217D01*
X156340991Y-101027169D01*
X156310753Y-101087645D01*
X156280515Y-101117883D01*
X156220039Y-101148121D01*
X156159562Y-101148121D01*
X156099086Y-101117883D01*
X156068848Y-101087645D01*
X156038610Y-101027169D01*
X156008372Y-100906217D01*
X156008372Y-100755026D01*
X156038610Y-100634074D01*
X156068848Y-100573598D01*
X156099086Y-100543360D01*
X156159562Y-100513121D01*
G04 #@! TO.C,R29*
X154785785Y-151417261D02*
X154574119Y-151114880D01*
X154422928Y-151417261D02*
X154422928Y-150782261D01*
X154664833Y-150782261D01*
X154725309Y-150812500D01*
X154755547Y-150842738D01*
X154785785Y-150903214D01*
X154785785Y-150993928D01*
X154755547Y-151054404D01*
X154725309Y-151084642D01*
X154664833Y-151114880D01*
X154422928Y-151114880D01*
X155027690Y-150842738D02*
X155057928Y-150812500D01*
X155118404Y-150782261D01*
X155269595Y-150782261D01*
X155330071Y-150812500D01*
X155360309Y-150842738D01*
X155390547Y-150903214D01*
X155390547Y-150963690D01*
X155360309Y-151054404D01*
X154997452Y-151417261D01*
X155390547Y-151417261D01*
X155692928Y-151417261D02*
X155813880Y-151417261D01*
X155874357Y-151387023D01*
X155904595Y-151356785D01*
X155965071Y-151266071D01*
X155995309Y-151145119D01*
X155995309Y-150903214D01*
X155965071Y-150842738D01*
X155934833Y-150812500D01*
X155874357Y-150782261D01*
X155753404Y-150782261D01*
X155692928Y-150812500D01*
X155662690Y-150842738D01*
X155632452Y-150903214D01*
X155632452Y-151054404D01*
X155662690Y-151114880D01*
X155692928Y-151145119D01*
X155753404Y-151175357D01*
X155874357Y-151175357D01*
X155934833Y-151145119D01*
X155965071Y-151114880D01*
X155995309Y-151054404D01*
G04 #@! TO.C,R28*
X155806381Y-139859294D02*
X155504000Y-140070960D01*
X155806381Y-140222151D02*
X155171381Y-140222151D01*
X155171381Y-139980246D01*
X155201620Y-139919770D01*
X155231858Y-139889532D01*
X155292334Y-139859294D01*
X155383048Y-139859294D01*
X155443524Y-139889532D01*
X155473762Y-139919770D01*
X155504000Y-139980246D01*
X155504000Y-140222151D01*
X155231858Y-139617389D02*
X155201620Y-139587151D01*
X155171381Y-139526675D01*
X155171381Y-139375484D01*
X155201620Y-139315008D01*
X155231858Y-139284770D01*
X155292334Y-139254532D01*
X155352810Y-139254532D01*
X155443524Y-139284770D01*
X155806381Y-139647627D01*
X155806381Y-139254532D01*
X155443524Y-138891675D02*
X155413286Y-138952151D01*
X155383048Y-138982389D01*
X155322572Y-139012627D01*
X155292334Y-139012627D01*
X155231858Y-138982389D01*
X155201620Y-138952151D01*
X155171381Y-138891675D01*
X155171381Y-138770722D01*
X155201620Y-138710246D01*
X155231858Y-138680008D01*
X155292334Y-138649770D01*
X155322572Y-138649770D01*
X155383048Y-138680008D01*
X155413286Y-138710246D01*
X155443524Y-138770722D01*
X155443524Y-138891675D01*
X155473762Y-138952151D01*
X155504000Y-138982389D01*
X155564477Y-139012627D01*
X155685429Y-139012627D01*
X155745905Y-138982389D01*
X155776143Y-138952151D01*
X155806381Y-138891675D01*
X155806381Y-138770722D01*
X155776143Y-138710246D01*
X155745905Y-138680008D01*
X155685429Y-138649770D01*
X155564477Y-138649770D01*
X155504000Y-138680008D01*
X155473762Y-138710246D01*
X155443524Y-138770722D01*
G04 #@! TO.C,R27*
X158595785Y-149385261D02*
X158384119Y-149082880D01*
X158232928Y-149385261D02*
X158232928Y-148750261D01*
X158474833Y-148750261D01*
X158535309Y-148780500D01*
X158565547Y-148810738D01*
X158595785Y-148871214D01*
X158595785Y-148961928D01*
X158565547Y-149022404D01*
X158535309Y-149052642D01*
X158474833Y-149082880D01*
X158232928Y-149082880D01*
X158837690Y-148810738D02*
X158867928Y-148780500D01*
X158928404Y-148750261D01*
X159079595Y-148750261D01*
X159140071Y-148780500D01*
X159170309Y-148810738D01*
X159200547Y-148871214D01*
X159200547Y-148931690D01*
X159170309Y-149022404D01*
X158807452Y-149385261D01*
X159200547Y-149385261D01*
X159412214Y-148750261D02*
X159835547Y-148750261D01*
X159563404Y-149385261D01*
G04 #@! TO.C,R26*
X141386801Y-62597574D02*
X141084420Y-62809240D01*
X141386801Y-62960431D02*
X140751801Y-62960431D01*
X140751801Y-62718526D01*
X140782040Y-62658050D01*
X140812278Y-62627812D01*
X140872754Y-62597574D01*
X140963468Y-62597574D01*
X141023944Y-62627812D01*
X141054182Y-62658050D01*
X141084420Y-62718526D01*
X141084420Y-62960431D01*
X140812278Y-62355669D02*
X140782040Y-62325431D01*
X140751801Y-62264955D01*
X140751801Y-62113764D01*
X140782040Y-62053288D01*
X140812278Y-62023050D01*
X140872754Y-61992812D01*
X140933230Y-61992812D01*
X141023944Y-62023050D01*
X141386801Y-62385907D01*
X141386801Y-61992812D01*
X140751801Y-61448526D02*
X140751801Y-61569479D01*
X140782040Y-61629955D01*
X140812278Y-61660193D01*
X140902992Y-61720669D01*
X141023944Y-61750907D01*
X141265849Y-61750907D01*
X141326325Y-61720669D01*
X141356563Y-61690431D01*
X141386801Y-61629955D01*
X141386801Y-61509002D01*
X141356563Y-61448526D01*
X141326325Y-61418288D01*
X141265849Y-61388050D01*
X141114659Y-61388050D01*
X141054182Y-61418288D01*
X141023944Y-61448526D01*
X140993706Y-61509002D01*
X140993706Y-61629955D01*
X141023944Y-61690431D01*
X141054182Y-61720669D01*
X141114659Y-61750907D01*
G04 #@! TO.C,R24*
X153906461Y-139818654D02*
X153604080Y-140030320D01*
X153906461Y-140181511D02*
X153271461Y-140181511D01*
X153271461Y-139939606D01*
X153301700Y-139879130D01*
X153331938Y-139848892D01*
X153392414Y-139818654D01*
X153483128Y-139818654D01*
X153543604Y-139848892D01*
X153573842Y-139879130D01*
X153604080Y-139939606D01*
X153604080Y-140181511D01*
X153331938Y-139576749D02*
X153301700Y-139546511D01*
X153271461Y-139486035D01*
X153271461Y-139334844D01*
X153301700Y-139274368D01*
X153331938Y-139244130D01*
X153392414Y-139213892D01*
X153452890Y-139213892D01*
X153543604Y-139244130D01*
X153906461Y-139606987D01*
X153906461Y-139213892D01*
X153483128Y-138669606D02*
X153906461Y-138669606D01*
X153241223Y-138820797D02*
X153694795Y-138971987D01*
X153694795Y-138578892D01*
G04 #@! TO.C,R18*
X158595785Y-151417261D02*
X158384119Y-151114880D01*
X158232928Y-151417261D02*
X158232928Y-150782261D01*
X158474833Y-150782261D01*
X158535309Y-150812500D01*
X158565547Y-150842738D01*
X158595785Y-150903214D01*
X158595785Y-150993928D01*
X158565547Y-151054404D01*
X158535309Y-151084642D01*
X158474833Y-151114880D01*
X158232928Y-151114880D01*
X159200547Y-151417261D02*
X158837690Y-151417261D01*
X159019119Y-151417261D02*
X159019119Y-150782261D01*
X158958642Y-150872976D01*
X158898166Y-150933452D01*
X158837690Y-150963690D01*
X159563404Y-151054404D02*
X159502928Y-151024166D01*
X159472690Y-150993928D01*
X159442452Y-150933452D01*
X159442452Y-150903214D01*
X159472690Y-150842738D01*
X159502928Y-150812500D01*
X159563404Y-150782261D01*
X159684357Y-150782261D01*
X159744833Y-150812500D01*
X159775071Y-150842738D01*
X159805309Y-150903214D01*
X159805309Y-150933452D01*
X159775071Y-150993928D01*
X159744833Y-151024166D01*
X159684357Y-151054404D01*
X159563404Y-151054404D01*
X159502928Y-151084642D01*
X159472690Y-151114880D01*
X159442452Y-151175357D01*
X159442452Y-151296309D01*
X159472690Y-151356785D01*
X159502928Y-151387023D01*
X159563404Y-151417261D01*
X159684357Y-151417261D01*
X159744833Y-151387023D01*
X159775071Y-151356785D01*
X159805309Y-151296309D01*
X159805309Y-151175357D01*
X159775071Y-151114880D01*
X159744833Y-151084642D01*
X159684357Y-151054404D01*
G04 #@! TO.C,R7*
X159025166Y-133726161D02*
X158813500Y-133423780D01*
X158662309Y-133726161D02*
X158662309Y-133091161D01*
X158904214Y-133091161D01*
X158964690Y-133121400D01*
X158994928Y-133151638D01*
X159025166Y-133212114D01*
X159025166Y-133302828D01*
X158994928Y-133363304D01*
X158964690Y-133393542D01*
X158904214Y-133423780D01*
X158662309Y-133423780D01*
X159236833Y-133091161D02*
X159660166Y-133091161D01*
X159388023Y-133726161D01*
G04 #@! TO.C,R16*
X121841985Y-143947121D02*
X121630319Y-143644740D01*
X121479128Y-143947121D02*
X121479128Y-143312121D01*
X121721033Y-143312121D01*
X121781509Y-143342360D01*
X121811747Y-143372598D01*
X121841985Y-143433074D01*
X121841985Y-143523788D01*
X121811747Y-143584264D01*
X121781509Y-143614502D01*
X121721033Y-143644740D01*
X121479128Y-143644740D01*
X122446747Y-143947121D02*
X122083890Y-143947121D01*
X122265319Y-143947121D02*
X122265319Y-143312121D01*
X122204842Y-143402836D01*
X122144366Y-143463312D01*
X122083890Y-143493550D01*
X122991033Y-143312121D02*
X122870080Y-143312121D01*
X122809604Y-143342360D01*
X122779366Y-143372598D01*
X122718890Y-143463312D01*
X122688652Y-143584264D01*
X122688652Y-143826169D01*
X122718890Y-143886645D01*
X122749128Y-143916883D01*
X122809604Y-143947121D01*
X122930557Y-143947121D01*
X122991033Y-143916883D01*
X123021271Y-143886645D01*
X123051509Y-143826169D01*
X123051509Y-143674979D01*
X123021271Y-143614502D01*
X122991033Y-143584264D01*
X122930557Y-143554026D01*
X122809604Y-143554026D01*
X122749128Y-143584264D01*
X122718890Y-143614502D01*
X122688652Y-143674979D01*
G04 #@! TO.C,R15*
X150521125Y-150048201D02*
X150309459Y-149745820D01*
X150158268Y-150048201D02*
X150158268Y-149413201D01*
X150400173Y-149413201D01*
X150460649Y-149443440D01*
X150490887Y-149473678D01*
X150521125Y-149534154D01*
X150521125Y-149624868D01*
X150490887Y-149685344D01*
X150460649Y-149715582D01*
X150400173Y-149745820D01*
X150158268Y-149745820D01*
X151125887Y-150048201D02*
X150763030Y-150048201D01*
X150944459Y-150048201D02*
X150944459Y-149413201D01*
X150883982Y-149503916D01*
X150823506Y-149564392D01*
X150763030Y-149594630D01*
X151700411Y-149413201D02*
X151398030Y-149413201D01*
X151367792Y-149715582D01*
X151398030Y-149685344D01*
X151458506Y-149655106D01*
X151609697Y-149655106D01*
X151670173Y-149685344D01*
X151700411Y-149715582D01*
X151730649Y-149776059D01*
X151730649Y-149927249D01*
X151700411Y-149987725D01*
X151670173Y-150017963D01*
X151609697Y-150048201D01*
X151458506Y-150048201D01*
X151398030Y-150017963D01*
X151367792Y-149987725D01*
G04 #@! TO.C,R14*
X137950665Y-123507741D02*
X137738999Y-123205360D01*
X137587808Y-123507741D02*
X137587808Y-122872741D01*
X137829713Y-122872741D01*
X137890189Y-122902980D01*
X137920427Y-122933218D01*
X137950665Y-122993694D01*
X137950665Y-123084408D01*
X137920427Y-123144884D01*
X137890189Y-123175122D01*
X137829713Y-123205360D01*
X137587808Y-123205360D01*
X138555427Y-123507741D02*
X138192570Y-123507741D01*
X138373999Y-123507741D02*
X138373999Y-122872741D01*
X138313522Y-122963456D01*
X138253046Y-123023932D01*
X138192570Y-123054170D01*
X139099713Y-123084408D02*
X139099713Y-123507741D01*
X138948522Y-122842503D02*
X138797332Y-123296075D01*
X139190427Y-123296075D01*
G04 #@! TO.C,R13*
X158263045Y-112626381D02*
X158051379Y-112324000D01*
X157900188Y-112626381D02*
X157900188Y-111991381D01*
X158142093Y-111991381D01*
X158202569Y-112021620D01*
X158232807Y-112051858D01*
X158263045Y-112112334D01*
X158263045Y-112203048D01*
X158232807Y-112263524D01*
X158202569Y-112293762D01*
X158142093Y-112324000D01*
X157900188Y-112324000D01*
X158867807Y-112626381D02*
X158504950Y-112626381D01*
X158686379Y-112626381D02*
X158686379Y-111991381D01*
X158625902Y-112082096D01*
X158565426Y-112142572D01*
X158504950Y-112172810D01*
X159079474Y-111991381D02*
X159472569Y-111991381D01*
X159260902Y-112233286D01*
X159351617Y-112233286D01*
X159412093Y-112263524D01*
X159442331Y-112293762D01*
X159472569Y-112354239D01*
X159472569Y-112505429D01*
X159442331Y-112565905D01*
X159412093Y-112596143D01*
X159351617Y-112626381D01*
X159170188Y-112626381D01*
X159109712Y-112596143D01*
X159079474Y-112565905D01*
G04 #@! TO.C,R12*
X137922725Y-121186181D02*
X137711059Y-120883800D01*
X137559868Y-121186181D02*
X137559868Y-120551181D01*
X137801773Y-120551181D01*
X137862249Y-120581420D01*
X137892487Y-120611658D01*
X137922725Y-120672134D01*
X137922725Y-120762848D01*
X137892487Y-120823324D01*
X137862249Y-120853562D01*
X137801773Y-120883800D01*
X137559868Y-120883800D01*
X138527487Y-121186181D02*
X138164630Y-121186181D01*
X138346059Y-121186181D02*
X138346059Y-120551181D01*
X138285582Y-120641896D01*
X138225106Y-120702372D01*
X138164630Y-120732610D01*
X138769392Y-120611658D02*
X138799630Y-120581420D01*
X138860106Y-120551181D01*
X139011297Y-120551181D01*
X139071773Y-120581420D01*
X139102011Y-120611658D01*
X139132249Y-120672134D01*
X139132249Y-120732610D01*
X139102011Y-120823324D01*
X138739154Y-121186181D01*
X139132249Y-121186181D01*
G04 #@! TO.C,R11*
X126690845Y-141907501D02*
X126479179Y-141605120D01*
X126327988Y-141907501D02*
X126327988Y-141272501D01*
X126569893Y-141272501D01*
X126630369Y-141302740D01*
X126660607Y-141332978D01*
X126690845Y-141393454D01*
X126690845Y-141484168D01*
X126660607Y-141544644D01*
X126630369Y-141574882D01*
X126569893Y-141605120D01*
X126327988Y-141605120D01*
X127295607Y-141907501D02*
X126932750Y-141907501D01*
X127114179Y-141907501D02*
X127114179Y-141272501D01*
X127053702Y-141363216D01*
X126993226Y-141423692D01*
X126932750Y-141453930D01*
X127900369Y-141907501D02*
X127537512Y-141907501D01*
X127718940Y-141907501D02*
X127718940Y-141272501D01*
X127658464Y-141363216D01*
X127597988Y-141423692D01*
X127537512Y-141453930D01*
G04 #@! TO.C,R10*
X136553665Y-145184101D02*
X136341999Y-144881720D01*
X136190808Y-145184101D02*
X136190808Y-144549101D01*
X136432713Y-144549101D01*
X136493189Y-144579340D01*
X136523427Y-144609578D01*
X136553665Y-144670054D01*
X136553665Y-144760768D01*
X136523427Y-144821244D01*
X136493189Y-144851482D01*
X136432713Y-144881720D01*
X136190808Y-144881720D01*
X137158427Y-145184101D02*
X136795570Y-145184101D01*
X136976999Y-145184101D02*
X136976999Y-144549101D01*
X136916522Y-144639816D01*
X136856046Y-144700292D01*
X136795570Y-144730530D01*
X137551522Y-144549101D02*
X137611999Y-144549101D01*
X137672475Y-144579340D01*
X137702713Y-144609578D01*
X137732951Y-144670054D01*
X137763189Y-144791006D01*
X137763189Y-144942197D01*
X137732951Y-145063149D01*
X137702713Y-145123625D01*
X137672475Y-145153863D01*
X137611999Y-145184101D01*
X137551522Y-145184101D01*
X137491046Y-145153863D01*
X137460808Y-145123625D01*
X137430570Y-145063149D01*
X137400332Y-144942197D01*
X137400332Y-144791006D01*
X137430570Y-144670054D01*
X137460808Y-144609578D01*
X137491046Y-144579340D01*
X137551522Y-144549101D01*
G04 #@! TO.C,R9*
X156464846Y-117797821D02*
X156253180Y-117495440D01*
X156101989Y-117797821D02*
X156101989Y-117162821D01*
X156343894Y-117162821D01*
X156404370Y-117193060D01*
X156434608Y-117223298D01*
X156464846Y-117283774D01*
X156464846Y-117374488D01*
X156434608Y-117434964D01*
X156404370Y-117465202D01*
X156343894Y-117495440D01*
X156101989Y-117495440D01*
X156767227Y-117797821D02*
X156888180Y-117797821D01*
X156948656Y-117767583D01*
X156978894Y-117737345D01*
X157039370Y-117646631D01*
X157069608Y-117525679D01*
X157069608Y-117283774D01*
X157039370Y-117223298D01*
X157009132Y-117193060D01*
X156948656Y-117162821D01*
X156827703Y-117162821D01*
X156767227Y-117193060D01*
X156736989Y-117223298D01*
X156706751Y-117283774D01*
X156706751Y-117434964D01*
X156736989Y-117495440D01*
X156767227Y-117525679D01*
X156827703Y-117555917D01*
X156948656Y-117555917D01*
X157009132Y-117525679D01*
X157039370Y-117495440D01*
X157069608Y-117434964D01*
G04 #@! TO.C,R8*
X155088166Y-155481261D02*
X154876500Y-155178880D01*
X154725309Y-155481261D02*
X154725309Y-154846261D01*
X154967214Y-154846261D01*
X155027690Y-154876500D01*
X155057928Y-154906738D01*
X155088166Y-154967214D01*
X155088166Y-155057928D01*
X155057928Y-155118404D01*
X155027690Y-155148642D01*
X154967214Y-155178880D01*
X154725309Y-155178880D01*
X155451023Y-155118404D02*
X155390547Y-155088166D01*
X155360309Y-155057928D01*
X155330071Y-154997452D01*
X155330071Y-154967214D01*
X155360309Y-154906738D01*
X155390547Y-154876500D01*
X155451023Y-154846261D01*
X155571976Y-154846261D01*
X155632452Y-154876500D01*
X155662690Y-154906738D01*
X155692928Y-154967214D01*
X155692928Y-154997452D01*
X155662690Y-155057928D01*
X155632452Y-155088166D01*
X155571976Y-155118404D01*
X155451023Y-155118404D01*
X155390547Y-155148642D01*
X155360309Y-155178880D01*
X155330071Y-155239357D01*
X155330071Y-155360309D01*
X155360309Y-155420785D01*
X155390547Y-155451023D01*
X155451023Y-155481261D01*
X155571976Y-155481261D01*
X155632452Y-155451023D01*
X155662690Y-155420785D01*
X155692928Y-155360309D01*
X155692928Y-155239357D01*
X155662690Y-155178880D01*
X155632452Y-155148642D01*
X155571976Y-155118404D01*
G04 #@! TO.C,C16*
X153117005Y-96359254D02*
X153147243Y-96389492D01*
X153177481Y-96480206D01*
X153177481Y-96540682D01*
X153147243Y-96631397D01*
X153086767Y-96691873D01*
X153026291Y-96722111D01*
X152905339Y-96752349D01*
X152814624Y-96752349D01*
X152693672Y-96722111D01*
X152633196Y-96691873D01*
X152572720Y-96631397D01*
X152542481Y-96540682D01*
X152542481Y-96480206D01*
X152572720Y-96389492D01*
X152602958Y-96359254D01*
X153177481Y-95754492D02*
X153177481Y-96117349D01*
X153177481Y-95935920D02*
X152542481Y-95935920D01*
X152633196Y-95996397D01*
X152693672Y-96056873D01*
X152723910Y-96117349D01*
X152542481Y-95210206D02*
X152542481Y-95331159D01*
X152572720Y-95391635D01*
X152602958Y-95421873D01*
X152693672Y-95482349D01*
X152814624Y-95512587D01*
X153056529Y-95512587D01*
X153117005Y-95482349D01*
X153147243Y-95452111D01*
X153177481Y-95391635D01*
X153177481Y-95270682D01*
X153147243Y-95210206D01*
X153117005Y-95179968D01*
X153056529Y-95149730D01*
X152905339Y-95149730D01*
X152844862Y-95179968D01*
X152814624Y-95210206D01*
X152784386Y-95270682D01*
X152784386Y-95391635D01*
X152814624Y-95452111D01*
X152844862Y-95482349D01*
X152905339Y-95512587D01*
G04 #@! TO.C,C3*
X171996825Y-99015973D02*
X172027063Y-99046211D01*
X172057301Y-99136925D01*
X172057301Y-99197401D01*
X172027063Y-99288116D01*
X171966587Y-99348592D01*
X171906111Y-99378830D01*
X171785159Y-99409068D01*
X171694444Y-99409068D01*
X171573492Y-99378830D01*
X171513016Y-99348592D01*
X171452540Y-99288116D01*
X171422301Y-99197401D01*
X171422301Y-99136925D01*
X171452540Y-99046211D01*
X171482778Y-99015973D01*
X171422301Y-98804306D02*
X171422301Y-98411211D01*
X171664206Y-98622878D01*
X171664206Y-98532163D01*
X171694444Y-98471687D01*
X171724682Y-98441449D01*
X171785159Y-98411211D01*
X171936349Y-98411211D01*
X171996825Y-98441449D01*
X172027063Y-98471687D01*
X172057301Y-98532163D01*
X172057301Y-98713592D01*
X172027063Y-98774068D01*
X171996825Y-98804306D01*
G04 #@! TO.C,C4*
X160325525Y-104436333D02*
X160355763Y-104466571D01*
X160386001Y-104557285D01*
X160386001Y-104617761D01*
X160355763Y-104708476D01*
X160295287Y-104768952D01*
X160234811Y-104799190D01*
X160113859Y-104829428D01*
X160023144Y-104829428D01*
X159902192Y-104799190D01*
X159841716Y-104768952D01*
X159781240Y-104708476D01*
X159751001Y-104617761D01*
X159751001Y-104557285D01*
X159781240Y-104466571D01*
X159811478Y-104436333D01*
X159962668Y-103892047D02*
X160386001Y-103892047D01*
X159720763Y-104043238D02*
X160174335Y-104194428D01*
X160174335Y-103801333D01*
G04 #@! TO.C,C5*
X158087785Y-105665693D02*
X158118023Y-105695931D01*
X158148261Y-105786645D01*
X158148261Y-105847121D01*
X158118023Y-105937836D01*
X158057547Y-105998312D01*
X157997071Y-106028550D01*
X157876119Y-106058788D01*
X157785404Y-106058788D01*
X157664452Y-106028550D01*
X157603976Y-105998312D01*
X157543500Y-105937836D01*
X157513261Y-105847121D01*
X157513261Y-105786645D01*
X157543500Y-105695931D01*
X157573738Y-105665693D01*
X157513261Y-105091169D02*
X157513261Y-105393550D01*
X157815642Y-105423788D01*
X157785404Y-105393550D01*
X157755166Y-105333074D01*
X157755166Y-105181883D01*
X157785404Y-105121407D01*
X157815642Y-105091169D01*
X157876119Y-105060931D01*
X158027309Y-105060931D01*
X158087785Y-105091169D01*
X158118023Y-105121407D01*
X158148261Y-105181883D01*
X158148261Y-105333074D01*
X158118023Y-105393550D01*
X158087785Y-105423788D01*
G04 #@! TO.C,C6*
X156485166Y-119997945D02*
X156454928Y-120028183D01*
X156364214Y-120058421D01*
X156303738Y-120058421D01*
X156213023Y-120028183D01*
X156152547Y-119967707D01*
X156122309Y-119907231D01*
X156092071Y-119786279D01*
X156092071Y-119695564D01*
X156122309Y-119574612D01*
X156152547Y-119514136D01*
X156213023Y-119453660D01*
X156303738Y-119423421D01*
X156364214Y-119423421D01*
X156454928Y-119453660D01*
X156485166Y-119483898D01*
X157029452Y-119423421D02*
X156908500Y-119423421D01*
X156848023Y-119453660D01*
X156817785Y-119483898D01*
X156757309Y-119574612D01*
X156727071Y-119695564D01*
X156727071Y-119937469D01*
X156757309Y-119997945D01*
X156787547Y-120028183D01*
X156848023Y-120058421D01*
X156968976Y-120058421D01*
X157029452Y-120028183D01*
X157059690Y-119997945D01*
X157089928Y-119937469D01*
X157089928Y-119786279D01*
X157059690Y-119725802D01*
X157029452Y-119695564D01*
X156968976Y-119665326D01*
X156848023Y-119665326D01*
X156787547Y-119695564D01*
X156757309Y-119725802D01*
X156727071Y-119786279D01*
G04 #@! TO.C,C7*
X152553246Y-118186925D02*
X152523008Y-118217163D01*
X152432294Y-118247401D01*
X152371818Y-118247401D01*
X152281103Y-118217163D01*
X152220627Y-118156687D01*
X152190389Y-118096211D01*
X152160151Y-117975259D01*
X152160151Y-117884544D01*
X152190389Y-117763592D01*
X152220627Y-117703116D01*
X152281103Y-117642640D01*
X152371818Y-117612401D01*
X152432294Y-117612401D01*
X152523008Y-117642640D01*
X152553246Y-117672878D01*
X152764913Y-117612401D02*
X153188246Y-117612401D01*
X152916103Y-118247401D01*
G04 #@! TO.C,C8*
X131565226Y-150457625D02*
X131534988Y-150487863D01*
X131444274Y-150518101D01*
X131383798Y-150518101D01*
X131293083Y-150487863D01*
X131232607Y-150427387D01*
X131202369Y-150366911D01*
X131172131Y-150245959D01*
X131172131Y-150155244D01*
X131202369Y-150034292D01*
X131232607Y-149973816D01*
X131293083Y-149913340D01*
X131383798Y-149883101D01*
X131444274Y-149883101D01*
X131534988Y-149913340D01*
X131565226Y-149943578D01*
X131928083Y-150155244D02*
X131867607Y-150125006D01*
X131837369Y-150094768D01*
X131807131Y-150034292D01*
X131807131Y-150004054D01*
X131837369Y-149943578D01*
X131867607Y-149913340D01*
X131928083Y-149883101D01*
X132049036Y-149883101D01*
X132109512Y-149913340D01*
X132139750Y-149943578D01*
X132169988Y-150004054D01*
X132169988Y-150034292D01*
X132139750Y-150094768D01*
X132109512Y-150125006D01*
X132049036Y-150155244D01*
X131928083Y-150155244D01*
X131867607Y-150185482D01*
X131837369Y-150215720D01*
X131807131Y-150276197D01*
X131807131Y-150397149D01*
X131837369Y-150457625D01*
X131867607Y-150487863D01*
X131928083Y-150518101D01*
X132049036Y-150518101D01*
X132109512Y-150487863D01*
X132139750Y-150457625D01*
X132169988Y-150397149D01*
X132169988Y-150276197D01*
X132139750Y-150215720D01*
X132109512Y-150185482D01*
X132049036Y-150155244D01*
G04 #@! TO.C,C9*
X145359966Y-148054785D02*
X145329728Y-148085023D01*
X145239014Y-148115261D01*
X145178538Y-148115261D01*
X145087823Y-148085023D01*
X145027347Y-148024547D01*
X144997109Y-147964071D01*
X144966871Y-147843119D01*
X144966871Y-147752404D01*
X144997109Y-147631452D01*
X145027347Y-147570976D01*
X145087823Y-147510500D01*
X145178538Y-147480261D01*
X145239014Y-147480261D01*
X145329728Y-147510500D01*
X145359966Y-147540738D01*
X145662347Y-148115261D02*
X145783300Y-148115261D01*
X145843776Y-148085023D01*
X145874014Y-148054785D01*
X145934490Y-147964071D01*
X145964728Y-147843119D01*
X145964728Y-147601214D01*
X145934490Y-147540738D01*
X145904252Y-147510500D01*
X145843776Y-147480261D01*
X145722823Y-147480261D01*
X145662347Y-147510500D01*
X145632109Y-147540738D01*
X145601871Y-147601214D01*
X145601871Y-147752404D01*
X145632109Y-147812880D01*
X145662347Y-147843119D01*
X145722823Y-147873357D01*
X145843776Y-147873357D01*
X145904252Y-147843119D01*
X145934490Y-147812880D01*
X145964728Y-147752404D01*
G04 #@! TO.C,C10*
X122022325Y-150797985D02*
X121992087Y-150828223D01*
X121901373Y-150858461D01*
X121840897Y-150858461D01*
X121750182Y-150828223D01*
X121689706Y-150767747D01*
X121659468Y-150707271D01*
X121629230Y-150586319D01*
X121629230Y-150495604D01*
X121659468Y-150374652D01*
X121689706Y-150314176D01*
X121750182Y-150253700D01*
X121840897Y-150223461D01*
X121901373Y-150223461D01*
X121992087Y-150253700D01*
X122022325Y-150283938D01*
X122627087Y-150858461D02*
X122264230Y-150858461D01*
X122445659Y-150858461D02*
X122445659Y-150223461D01*
X122385182Y-150314176D01*
X122324706Y-150374652D01*
X122264230Y-150404890D01*
X123020182Y-150223461D02*
X123080659Y-150223461D01*
X123141135Y-150253700D01*
X123171373Y-150283938D01*
X123201611Y-150344414D01*
X123231849Y-150465366D01*
X123231849Y-150616557D01*
X123201611Y-150737509D01*
X123171373Y-150797985D01*
X123141135Y-150828223D01*
X123080659Y-150858461D01*
X123020182Y-150858461D01*
X122959706Y-150828223D01*
X122929468Y-150797985D01*
X122899230Y-150737509D01*
X122868992Y-150616557D01*
X122868992Y-150465366D01*
X122899230Y-150344414D01*
X122929468Y-150283938D01*
X122959706Y-150253700D01*
X123020182Y-150223461D01*
G04 #@! TO.C,C11*
X158189385Y-128179285D02*
X158159147Y-128209523D01*
X158068433Y-128239761D01*
X158007957Y-128239761D01*
X157917242Y-128209523D01*
X157856766Y-128149047D01*
X157826528Y-128088571D01*
X157796290Y-127967619D01*
X157796290Y-127876904D01*
X157826528Y-127755952D01*
X157856766Y-127695476D01*
X157917242Y-127635000D01*
X158007957Y-127604761D01*
X158068433Y-127604761D01*
X158159147Y-127635000D01*
X158189385Y-127665238D01*
X158794147Y-128239761D02*
X158431290Y-128239761D01*
X158612719Y-128239761D02*
X158612719Y-127604761D01*
X158552242Y-127695476D01*
X158491766Y-127755952D01*
X158431290Y-127786190D01*
X159398909Y-128239761D02*
X159036052Y-128239761D01*
X159217480Y-128239761D02*
X159217480Y-127604761D01*
X159157004Y-127695476D01*
X159096528Y-127755952D01*
X159036052Y-127786190D01*
G04 #@! TO.C,C12*
X145260785Y-150516045D02*
X145230547Y-150546283D01*
X145139833Y-150576521D01*
X145079357Y-150576521D01*
X144988642Y-150546283D01*
X144928166Y-150485807D01*
X144897928Y-150425331D01*
X144867690Y-150304379D01*
X144867690Y-150213664D01*
X144897928Y-150092712D01*
X144928166Y-150032236D01*
X144988642Y-149971760D01*
X145079357Y-149941521D01*
X145139833Y-149941521D01*
X145230547Y-149971760D01*
X145260785Y-150001998D01*
X145865547Y-150576521D02*
X145502690Y-150576521D01*
X145684119Y-150576521D02*
X145684119Y-149941521D01*
X145623642Y-150032236D01*
X145563166Y-150092712D01*
X145502690Y-150122950D01*
X146107452Y-150001998D02*
X146137690Y-149971760D01*
X146198166Y-149941521D01*
X146349357Y-149941521D01*
X146409833Y-149971760D01*
X146440071Y-150001998D01*
X146470309Y-150062474D01*
X146470309Y-150122950D01*
X146440071Y-150213664D01*
X146077214Y-150576521D01*
X146470309Y-150576521D01*
G04 #@! TO.C,C13*
X144737545Y-64449234D02*
X144767783Y-64479472D01*
X144798021Y-64570186D01*
X144798021Y-64630662D01*
X144767783Y-64721377D01*
X144707307Y-64781853D01*
X144646831Y-64812091D01*
X144525879Y-64842329D01*
X144435164Y-64842329D01*
X144314212Y-64812091D01*
X144253736Y-64781853D01*
X144193260Y-64721377D01*
X144163021Y-64630662D01*
X144163021Y-64570186D01*
X144193260Y-64479472D01*
X144223498Y-64449234D01*
X144798021Y-63844472D02*
X144798021Y-64207329D01*
X144798021Y-64025900D02*
X144163021Y-64025900D01*
X144253736Y-64086377D01*
X144314212Y-64146853D01*
X144344450Y-64207329D01*
X144163021Y-63632805D02*
X144163021Y-63239710D01*
X144404926Y-63451377D01*
X144404926Y-63360662D01*
X144435164Y-63300186D01*
X144465402Y-63269948D01*
X144525879Y-63239710D01*
X144677069Y-63239710D01*
X144737545Y-63269948D01*
X144767783Y-63300186D01*
X144798021Y-63360662D01*
X144798021Y-63542091D01*
X144767783Y-63602567D01*
X144737545Y-63632805D01*
G04 #@! TO.C,C15*
X141755585Y-94917985D02*
X141725347Y-94948223D01*
X141634633Y-94978461D01*
X141574157Y-94978461D01*
X141483442Y-94948223D01*
X141422966Y-94887747D01*
X141392728Y-94827271D01*
X141362490Y-94706319D01*
X141362490Y-94615604D01*
X141392728Y-94494652D01*
X141422966Y-94434176D01*
X141483442Y-94373700D01*
X141574157Y-94343461D01*
X141634633Y-94343461D01*
X141725347Y-94373700D01*
X141755585Y-94403938D01*
X142360347Y-94978461D02*
X141997490Y-94978461D01*
X142178919Y-94978461D02*
X142178919Y-94343461D01*
X142118442Y-94434176D01*
X142057966Y-94494652D01*
X141997490Y-94524890D01*
X142934871Y-94343461D02*
X142632490Y-94343461D01*
X142602252Y-94645842D01*
X142632490Y-94615604D01*
X142692966Y-94585366D01*
X142844157Y-94585366D01*
X142904633Y-94615604D01*
X142934871Y-94645842D01*
X142965109Y-94706319D01*
X142965109Y-94857509D01*
X142934871Y-94917985D01*
X142904633Y-94948223D01*
X142844157Y-94978461D01*
X142692966Y-94978461D01*
X142632490Y-94948223D01*
X142602252Y-94917985D01*
G04 #@! TO.C,C17*
X154455585Y-108307414D02*
X154485823Y-108337652D01*
X154516061Y-108428366D01*
X154516061Y-108488842D01*
X154485823Y-108579557D01*
X154425347Y-108640033D01*
X154364871Y-108670271D01*
X154243919Y-108700509D01*
X154153204Y-108700509D01*
X154032252Y-108670271D01*
X153971776Y-108640033D01*
X153911300Y-108579557D01*
X153881061Y-108488842D01*
X153881061Y-108428366D01*
X153911300Y-108337652D01*
X153941538Y-108307414D01*
X154516061Y-107702652D02*
X154516061Y-108065509D01*
X154516061Y-107884080D02*
X153881061Y-107884080D01*
X153971776Y-107944557D01*
X154032252Y-108005033D01*
X154062490Y-108065509D01*
X153881061Y-107490985D02*
X153881061Y-107067652D01*
X154516061Y-107339795D01*
G04 #@! TO.C,C18*
X137155645Y-104797134D02*
X137185883Y-104827372D01*
X137216121Y-104918086D01*
X137216121Y-104978562D01*
X137185883Y-105069277D01*
X137125407Y-105129753D01*
X137064931Y-105159991D01*
X136943979Y-105190229D01*
X136853264Y-105190229D01*
X136732312Y-105159991D01*
X136671836Y-105129753D01*
X136611360Y-105069277D01*
X136581121Y-104978562D01*
X136581121Y-104918086D01*
X136611360Y-104827372D01*
X136641598Y-104797134D01*
X137216121Y-104192372D02*
X137216121Y-104555229D01*
X137216121Y-104373800D02*
X136581121Y-104373800D01*
X136671836Y-104434277D01*
X136732312Y-104494753D01*
X136762550Y-104555229D01*
X136853264Y-103829515D02*
X136823026Y-103889991D01*
X136792788Y-103920229D01*
X136732312Y-103950467D01*
X136702074Y-103950467D01*
X136641598Y-103920229D01*
X136611360Y-103889991D01*
X136581121Y-103829515D01*
X136581121Y-103708562D01*
X136611360Y-103648086D01*
X136641598Y-103617848D01*
X136702074Y-103587610D01*
X136732312Y-103587610D01*
X136792788Y-103617848D01*
X136823026Y-103648086D01*
X136853264Y-103708562D01*
X136853264Y-103829515D01*
X136883502Y-103889991D01*
X136913740Y-103920229D01*
X136974217Y-103950467D01*
X137095169Y-103950467D01*
X137155645Y-103920229D01*
X137185883Y-103889991D01*
X137216121Y-103829515D01*
X137216121Y-103708562D01*
X137185883Y-103648086D01*
X137155645Y-103617848D01*
X137095169Y-103587610D01*
X136974217Y-103587610D01*
X136913740Y-103617848D01*
X136883502Y-103648086D01*
X136853264Y-103708562D01*
G04 #@! TO.C,C19*
X121857225Y-148257985D02*
X121826987Y-148288223D01*
X121736273Y-148318461D01*
X121675797Y-148318461D01*
X121585082Y-148288223D01*
X121524606Y-148227747D01*
X121494368Y-148167271D01*
X121464130Y-148046319D01*
X121464130Y-147955604D01*
X121494368Y-147834652D01*
X121524606Y-147774176D01*
X121585082Y-147713700D01*
X121675797Y-147683461D01*
X121736273Y-147683461D01*
X121826987Y-147713700D01*
X121857225Y-147743938D01*
X122461987Y-148318461D02*
X122099130Y-148318461D01*
X122280559Y-148318461D02*
X122280559Y-147683461D01*
X122220082Y-147774176D01*
X122159606Y-147834652D01*
X122099130Y-147864890D01*
X122764368Y-148318461D02*
X122885320Y-148318461D01*
X122945797Y-148288223D01*
X122976035Y-148257985D01*
X123036511Y-148167271D01*
X123066749Y-148046319D01*
X123066749Y-147804414D01*
X123036511Y-147743938D01*
X123006273Y-147713700D01*
X122945797Y-147683461D01*
X122824844Y-147683461D01*
X122764368Y-147713700D01*
X122734130Y-147743938D01*
X122703892Y-147804414D01*
X122703892Y-147955604D01*
X122734130Y-148016080D01*
X122764368Y-148046319D01*
X122824844Y-148076557D01*
X122945797Y-148076557D01*
X123006273Y-148046319D01*
X123036511Y-148016080D01*
X123066749Y-147955604D01*
G04 #@! TO.C,C28*
X134059385Y-112431285D02*
X134029147Y-112461523D01*
X133938433Y-112491761D01*
X133877957Y-112491761D01*
X133787242Y-112461523D01*
X133726766Y-112401047D01*
X133696528Y-112340571D01*
X133666290Y-112219619D01*
X133666290Y-112128904D01*
X133696528Y-112007952D01*
X133726766Y-111947476D01*
X133787242Y-111887000D01*
X133877957Y-111856761D01*
X133938433Y-111856761D01*
X134029147Y-111887000D01*
X134059385Y-111917238D01*
X134301290Y-111917238D02*
X134331528Y-111887000D01*
X134392004Y-111856761D01*
X134543195Y-111856761D01*
X134603671Y-111887000D01*
X134633909Y-111917238D01*
X134664147Y-111977714D01*
X134664147Y-112038190D01*
X134633909Y-112128904D01*
X134271052Y-112491761D01*
X134664147Y-112491761D01*
X135027004Y-112128904D02*
X134966528Y-112098666D01*
X134936290Y-112068428D01*
X134906052Y-112007952D01*
X134906052Y-111977714D01*
X134936290Y-111917238D01*
X134966528Y-111887000D01*
X135027004Y-111856761D01*
X135147957Y-111856761D01*
X135208433Y-111887000D01*
X135238671Y-111917238D01*
X135268909Y-111977714D01*
X135268909Y-112007952D01*
X135238671Y-112068428D01*
X135208433Y-112098666D01*
X135147957Y-112128904D01*
X135027004Y-112128904D01*
X134966528Y-112159142D01*
X134936290Y-112189380D01*
X134906052Y-112249857D01*
X134906052Y-112370809D01*
X134936290Y-112431285D01*
X134966528Y-112461523D01*
X135027004Y-112491761D01*
X135147957Y-112491761D01*
X135208433Y-112461523D01*
X135238671Y-112431285D01*
X135268909Y-112370809D01*
X135268909Y-112249857D01*
X135238671Y-112189380D01*
X135208433Y-112159142D01*
X135147957Y-112128904D01*
G04 #@! TO.C,C29*
X154310805Y-113426965D02*
X154280567Y-113457203D01*
X154189853Y-113487441D01*
X154129377Y-113487441D01*
X154038662Y-113457203D01*
X153978186Y-113396727D01*
X153947948Y-113336251D01*
X153917710Y-113215299D01*
X153917710Y-113124584D01*
X153947948Y-113003632D01*
X153978186Y-112943156D01*
X154038662Y-112882680D01*
X154129377Y-112852441D01*
X154189853Y-112852441D01*
X154280567Y-112882680D01*
X154310805Y-112912918D01*
X154552710Y-112912918D02*
X154582948Y-112882680D01*
X154643424Y-112852441D01*
X154794615Y-112852441D01*
X154855091Y-112882680D01*
X154885329Y-112912918D01*
X154915567Y-112973394D01*
X154915567Y-113033870D01*
X154885329Y-113124584D01*
X154522472Y-113487441D01*
X154915567Y-113487441D01*
X155217948Y-113487441D02*
X155338900Y-113487441D01*
X155399377Y-113457203D01*
X155429615Y-113426965D01*
X155490091Y-113336251D01*
X155520329Y-113215299D01*
X155520329Y-112973394D01*
X155490091Y-112912918D01*
X155459853Y-112882680D01*
X155399377Y-112852441D01*
X155278424Y-112852441D01*
X155217948Y-112882680D01*
X155187710Y-112912918D01*
X155157472Y-112973394D01*
X155157472Y-113124584D01*
X155187710Y-113185060D01*
X155217948Y-113215299D01*
X155278424Y-113245537D01*
X155399377Y-113245537D01*
X155459853Y-113215299D01*
X155490091Y-113185060D01*
X155520329Y-113124584D01*
G04 #@! TO.C,C30*
X154740065Y-153307505D02*
X154709827Y-153337743D01*
X154619113Y-153367981D01*
X154558637Y-153367981D01*
X154467922Y-153337743D01*
X154407446Y-153277267D01*
X154377208Y-153216791D01*
X154346970Y-153095839D01*
X154346970Y-153005124D01*
X154377208Y-152884172D01*
X154407446Y-152823696D01*
X154467922Y-152763220D01*
X154558637Y-152732981D01*
X154619113Y-152732981D01*
X154709827Y-152763220D01*
X154740065Y-152793458D01*
X154951732Y-152732981D02*
X155344827Y-152732981D01*
X155133160Y-152974886D01*
X155223875Y-152974886D01*
X155284351Y-153005124D01*
X155314589Y-153035362D01*
X155344827Y-153095839D01*
X155344827Y-153247029D01*
X155314589Y-153307505D01*
X155284351Y-153337743D01*
X155223875Y-153367981D01*
X155042446Y-153367981D01*
X154981970Y-153337743D01*
X154951732Y-153307505D01*
X155737922Y-152732981D02*
X155798399Y-152732981D01*
X155858875Y-152763220D01*
X155889113Y-152793458D01*
X155919351Y-152853934D01*
X155949589Y-152974886D01*
X155949589Y-153126077D01*
X155919351Y-153247029D01*
X155889113Y-153307505D01*
X155858875Y-153337743D01*
X155798399Y-153367981D01*
X155737922Y-153367981D01*
X155677446Y-153337743D01*
X155647208Y-153307505D01*
X155616970Y-153247029D01*
X155586732Y-153126077D01*
X155586732Y-152974886D01*
X155616970Y-152853934D01*
X155647208Y-152793458D01*
X155677446Y-152763220D01*
X155737922Y-152732981D01*
G04 #@! TO.C,C31*
X154762925Y-149477185D02*
X154732687Y-149507423D01*
X154641973Y-149537661D01*
X154581497Y-149537661D01*
X154490782Y-149507423D01*
X154430306Y-149446947D01*
X154400068Y-149386471D01*
X154369830Y-149265519D01*
X154369830Y-149174804D01*
X154400068Y-149053852D01*
X154430306Y-148993376D01*
X154490782Y-148932900D01*
X154581497Y-148902661D01*
X154641973Y-148902661D01*
X154732687Y-148932900D01*
X154762925Y-148963138D01*
X154974592Y-148902661D02*
X155367687Y-148902661D01*
X155156020Y-149144566D01*
X155246735Y-149144566D01*
X155307211Y-149174804D01*
X155337449Y-149205042D01*
X155367687Y-149265519D01*
X155367687Y-149416709D01*
X155337449Y-149477185D01*
X155307211Y-149507423D01*
X155246735Y-149537661D01*
X155065306Y-149537661D01*
X155004830Y-149507423D01*
X154974592Y-149477185D01*
X155972449Y-149537661D02*
X155609592Y-149537661D01*
X155791020Y-149537661D02*
X155791020Y-148902661D01*
X155730544Y-148993376D01*
X155670068Y-149053852D01*
X155609592Y-149084090D01*
G04 #@! TO.C,C32*
X160267105Y-139678954D02*
X160297343Y-139709192D01*
X160327581Y-139799906D01*
X160327581Y-139860382D01*
X160297343Y-139951097D01*
X160236867Y-140011573D01*
X160176391Y-140041811D01*
X160055439Y-140072049D01*
X159964724Y-140072049D01*
X159843772Y-140041811D01*
X159783296Y-140011573D01*
X159722820Y-139951097D01*
X159692581Y-139860382D01*
X159692581Y-139799906D01*
X159722820Y-139709192D01*
X159753058Y-139678954D01*
X159692581Y-139467287D02*
X159692581Y-139074192D01*
X159934486Y-139285859D01*
X159934486Y-139195144D01*
X159964724Y-139134668D01*
X159994962Y-139104430D01*
X160055439Y-139074192D01*
X160206629Y-139074192D01*
X160267105Y-139104430D01*
X160297343Y-139134668D01*
X160327581Y-139195144D01*
X160327581Y-139376573D01*
X160297343Y-139437049D01*
X160267105Y-139467287D01*
X159753058Y-138832287D02*
X159722820Y-138802049D01*
X159692581Y-138741573D01*
X159692581Y-138590382D01*
X159722820Y-138529906D01*
X159753058Y-138499668D01*
X159813534Y-138469430D01*
X159874010Y-138469430D01*
X159964724Y-138499668D01*
X160327581Y-138862525D01*
X160327581Y-138469430D01*
G04 #@! TO.C,C33*
X149350185Y-147023545D02*
X149319947Y-147053783D01*
X149229233Y-147084021D01*
X149168757Y-147084021D01*
X149078042Y-147053783D01*
X149017566Y-146993307D01*
X148987328Y-146932831D01*
X148957090Y-146811879D01*
X148957090Y-146721164D01*
X148987328Y-146600212D01*
X149017566Y-146539736D01*
X149078042Y-146479260D01*
X149168757Y-146449021D01*
X149229233Y-146449021D01*
X149319947Y-146479260D01*
X149350185Y-146509498D01*
X149561852Y-146449021D02*
X149954947Y-146449021D01*
X149743280Y-146690926D01*
X149833995Y-146690926D01*
X149894471Y-146721164D01*
X149924709Y-146751402D01*
X149954947Y-146811879D01*
X149954947Y-146963069D01*
X149924709Y-147023545D01*
X149894471Y-147053783D01*
X149833995Y-147084021D01*
X149652566Y-147084021D01*
X149592090Y-147053783D01*
X149561852Y-147023545D01*
X150166614Y-146449021D02*
X150559709Y-146449021D01*
X150348042Y-146690926D01*
X150438757Y-146690926D01*
X150499233Y-146721164D01*
X150529471Y-146751402D01*
X150559709Y-146811879D01*
X150559709Y-146963069D01*
X150529471Y-147023545D01*
X150499233Y-147053783D01*
X150438757Y-147084021D01*
X150257328Y-147084021D01*
X150196852Y-147053783D01*
X150166614Y-147023545D01*
G04 #@! TO.C,C2*
X172677545Y-106387053D02*
X172707783Y-106417291D01*
X172738021Y-106508005D01*
X172738021Y-106568481D01*
X172707783Y-106659196D01*
X172647307Y-106719672D01*
X172586831Y-106749910D01*
X172465879Y-106780148D01*
X172375164Y-106780148D01*
X172254212Y-106749910D01*
X172193736Y-106719672D01*
X172133260Y-106659196D01*
X172103021Y-106568481D01*
X172103021Y-106508005D01*
X172133260Y-106417291D01*
X172163498Y-106387053D01*
X172163498Y-106145148D02*
X172133260Y-106114910D01*
X172103021Y-106054434D01*
X172103021Y-105903243D01*
X172133260Y-105842767D01*
X172163498Y-105812529D01*
X172223974Y-105782291D01*
X172284450Y-105782291D01*
X172375164Y-105812529D01*
X172738021Y-106175386D01*
X172738021Y-105782291D01*
G04 #@! TO.C,L1*
X144676101Y-68447073D02*
X144676101Y-68749454D01*
X144041101Y-68749454D01*
X144676101Y-67902787D02*
X144676101Y-68265644D01*
X144676101Y-68084216D02*
X144041101Y-68084216D01*
X144131816Y-68144692D01*
X144192292Y-68205168D01*
X144222530Y-68265644D01*
G04 #@! TO.C,C1*
X131029286Y-141392365D02*
X130999048Y-141422603D01*
X130908334Y-141452841D01*
X130847858Y-141452841D01*
X130757143Y-141422603D01*
X130696667Y-141362127D01*
X130666429Y-141301651D01*
X130636191Y-141180699D01*
X130636191Y-141089984D01*
X130666429Y-140969032D01*
X130696667Y-140908556D01*
X130757143Y-140848080D01*
X130847858Y-140817841D01*
X130908334Y-140817841D01*
X130999048Y-140848080D01*
X131029286Y-140878318D01*
X131634048Y-141452841D02*
X131271191Y-141452841D01*
X131452620Y-141452841D02*
X131452620Y-140817841D01*
X131392143Y-140908556D01*
X131331667Y-140969032D01*
X131271191Y-140999270D01*
G04 #@! TO.C,P45*
D21*
X130630385Y-76845099D02*
X130630385Y-75110279D01*
X131044526Y-75110279D01*
X131148061Y-75192890D01*
X131199829Y-75275500D01*
X131251597Y-75440721D01*
X131251597Y-75688552D01*
X131199829Y-75853773D01*
X131148061Y-75936384D01*
X131044526Y-76018994D01*
X130630385Y-76018994D01*
X132183414Y-75688552D02*
X132183414Y-76845099D01*
X131924576Y-75027669D02*
X131665738Y-76266826D01*
X132338717Y-76266826D01*
X133270534Y-75110279D02*
X132752858Y-75110279D01*
X132701090Y-75936384D01*
X132752858Y-75853773D01*
X132856393Y-75771163D01*
X133115231Y-75771163D01*
X133218766Y-75853773D01*
X133270534Y-75936384D01*
X133322301Y-76101605D01*
X133322301Y-76514657D01*
X133270534Y-76679878D01*
X133218766Y-76762489D01*
X133115231Y-76845099D01*
X132856393Y-76845099D01*
X132752858Y-76762489D01*
X132701090Y-76679878D01*
G04 #@! TO.C,RV2*
D11*
X143162987Y-72916263D02*
X142739654Y-72311501D01*
X142437273Y-72916263D02*
X142437273Y-71646263D01*
X142921082Y-71646263D01*
X143042035Y-71706740D01*
X143102511Y-71767216D01*
X143162987Y-71888168D01*
X143162987Y-72069597D01*
X143102511Y-72190549D01*
X143042035Y-72251025D01*
X142921082Y-72311501D01*
X142437273Y-72311501D01*
X143525844Y-71646263D02*
X143949178Y-72916263D01*
X144372511Y-71646263D01*
X144735368Y-71767216D02*
X144795844Y-71706740D01*
X144916797Y-71646263D01*
X145219178Y-71646263D01*
X145340130Y-71706740D01*
X145400606Y-71767216D01*
X145461082Y-71888168D01*
X145461082Y-72009120D01*
X145400606Y-72190549D01*
X144674892Y-72916263D01*
X145461082Y-72916263D01*
X148434213Y-87556823D02*
X148434213Y-86286823D01*
X148918022Y-86286823D01*
X149038975Y-86347300D01*
X149099451Y-86407776D01*
X149159927Y-86528728D01*
X149159927Y-86710157D01*
X149099451Y-86831109D01*
X149038975Y-86891585D01*
X148918022Y-86952061D01*
X148434213Y-86952061D01*
X149946118Y-86286823D02*
X150188022Y-86286823D01*
X150308975Y-86347300D01*
X150429927Y-86468252D01*
X150490403Y-86710157D01*
X150490403Y-87133490D01*
X150429927Y-87375395D01*
X150308975Y-87496347D01*
X150188022Y-87556823D01*
X149946118Y-87556823D01*
X149825165Y-87496347D01*
X149704213Y-87375395D01*
X149643737Y-87133490D01*
X149643737Y-86710157D01*
X149704213Y-86468252D01*
X149825165Y-86347300D01*
X149946118Y-86286823D01*
X150853260Y-86286823D02*
X151578975Y-86286823D01*
X151216118Y-87556823D02*
X151216118Y-86286823D01*
G04 #@! TO.C,RV1*
X163061347Y-113215903D02*
X162638014Y-112611141D01*
X162335633Y-113215903D02*
X162335633Y-111945903D01*
X162819442Y-111945903D01*
X162940395Y-112006380D01*
X163000871Y-112066856D01*
X163061347Y-112187808D01*
X163061347Y-112369237D01*
X163000871Y-112490189D01*
X162940395Y-112550665D01*
X162819442Y-112611141D01*
X162335633Y-112611141D01*
X163424204Y-111945903D02*
X163847538Y-113215903D01*
X164270871Y-111945903D01*
X165359442Y-113215903D02*
X164633728Y-113215903D01*
X164996585Y-113215903D02*
X164996585Y-111945903D01*
X164875633Y-112127332D01*
X164754680Y-112248284D01*
X164633728Y-112308760D01*
X168332573Y-127856463D02*
X168332573Y-126586463D01*
X168816382Y-126586463D01*
X168937335Y-126646940D01*
X168997811Y-126707416D01*
X169058287Y-126828368D01*
X169058287Y-127009797D01*
X168997811Y-127130749D01*
X168937335Y-127191225D01*
X168816382Y-127251701D01*
X168332573Y-127251701D01*
X169844478Y-126586463D02*
X170086382Y-126586463D01*
X170207335Y-126646940D01*
X170328287Y-126767892D01*
X170388763Y-127009797D01*
X170388763Y-127433130D01*
X170328287Y-127675035D01*
X170207335Y-127795987D01*
X170086382Y-127856463D01*
X169844478Y-127856463D01*
X169723525Y-127795987D01*
X169602573Y-127675035D01*
X169542097Y-127433130D01*
X169542097Y-127009797D01*
X169602573Y-126767892D01*
X169723525Y-126646940D01*
X169844478Y-126586463D01*
X170751620Y-126586463D02*
X171477335Y-126586463D01*
X171114478Y-127856463D02*
X171114478Y-126586463D01*
G04 #@! TO.C,RV3*
X123963127Y-82215203D02*
X123539794Y-81610441D01*
X123237413Y-82215203D02*
X123237413Y-80945203D01*
X123721222Y-80945203D01*
X123842175Y-81005680D01*
X123902651Y-81066156D01*
X123963127Y-81187108D01*
X123963127Y-81368537D01*
X123902651Y-81489489D01*
X123842175Y-81549965D01*
X123721222Y-81610441D01*
X123237413Y-81610441D01*
X124325984Y-80945203D02*
X124749318Y-82215203D01*
X125172651Y-80945203D01*
X125475032Y-80945203D02*
X126261222Y-80945203D01*
X125837889Y-81429013D01*
X126019318Y-81429013D01*
X126140270Y-81489489D01*
X126200746Y-81549965D01*
X126261222Y-81670918D01*
X126261222Y-81973299D01*
X126200746Y-82094251D01*
X126140270Y-82154727D01*
X126019318Y-82215203D01*
X125656460Y-82215203D01*
X125535508Y-82154727D01*
X125475032Y-82094251D01*
X129234353Y-96855763D02*
X129234353Y-95585763D01*
X129718162Y-95585763D01*
X129839115Y-95646240D01*
X129899591Y-95706716D01*
X129960067Y-95827668D01*
X129960067Y-96009097D01*
X129899591Y-96130049D01*
X129839115Y-96190525D01*
X129718162Y-96251001D01*
X129234353Y-96251001D01*
X130746258Y-95585763D02*
X130988162Y-95585763D01*
X131109115Y-95646240D01*
X131230067Y-95767192D01*
X131290543Y-96009097D01*
X131290543Y-96432430D01*
X131230067Y-96674335D01*
X131109115Y-96795287D01*
X130988162Y-96855763D01*
X130746258Y-96855763D01*
X130625305Y-96795287D01*
X130504353Y-96674335D01*
X130443877Y-96432430D01*
X130443877Y-96009097D01*
X130504353Y-95767192D01*
X130625305Y-95646240D01*
X130746258Y-95585763D01*
X131653400Y-95585763D02*
X132379115Y-95585763D01*
X132016258Y-96855763D02*
X132016258Y-95585763D01*
G04 #@! TO.C,RV4*
X123963127Y-113215903D02*
X123539794Y-112611141D01*
X123237413Y-113215903D02*
X123237413Y-111945903D01*
X123721222Y-111945903D01*
X123842175Y-112006380D01*
X123902651Y-112066856D01*
X123963127Y-112187808D01*
X123963127Y-112369237D01*
X123902651Y-112490189D01*
X123842175Y-112550665D01*
X123721222Y-112611141D01*
X123237413Y-112611141D01*
X124325984Y-111945903D02*
X124749318Y-113215903D01*
X125172651Y-111945903D01*
X126140270Y-112369237D02*
X126140270Y-113215903D01*
X125837889Y-111885427D02*
X125535508Y-112792570D01*
X126321699Y-112792570D01*
X129234353Y-127856463D02*
X129234353Y-126586463D01*
X129718162Y-126586463D01*
X129839115Y-126646940D01*
X129899591Y-126707416D01*
X129960067Y-126828368D01*
X129960067Y-127009797D01*
X129899591Y-127130749D01*
X129839115Y-127191225D01*
X129718162Y-127251701D01*
X129234353Y-127251701D01*
X130746258Y-126586463D02*
X130988162Y-126586463D01*
X131109115Y-126646940D01*
X131230067Y-126767892D01*
X131290543Y-127009797D01*
X131290543Y-127433130D01*
X131230067Y-127675035D01*
X131109115Y-127795987D01*
X130988162Y-127856463D01*
X130746258Y-127856463D01*
X130625305Y-127795987D01*
X130504353Y-127675035D01*
X130443877Y-127433130D01*
X130443877Y-127009797D01*
X130504353Y-126767892D01*
X130625305Y-126646940D01*
X130746258Y-126586463D01*
X131653400Y-126586463D02*
X132379115Y-126586463D01*
X132016258Y-127856463D02*
X132016258Y-126586463D01*
G04 #@! TO.C,RV5*
X163061347Y-82215203D02*
X162638014Y-81610441D01*
X162335633Y-82215203D02*
X162335633Y-80945203D01*
X162819442Y-80945203D01*
X162940395Y-81005680D01*
X163000871Y-81066156D01*
X163061347Y-81187108D01*
X163061347Y-81368537D01*
X163000871Y-81489489D01*
X162940395Y-81549965D01*
X162819442Y-81610441D01*
X162335633Y-81610441D01*
X163424204Y-80945203D02*
X163847538Y-82215203D01*
X164270871Y-80945203D01*
X165298966Y-80945203D02*
X164694204Y-80945203D01*
X164633728Y-81549965D01*
X164694204Y-81489489D01*
X164815157Y-81429013D01*
X165117538Y-81429013D01*
X165238490Y-81489489D01*
X165298966Y-81549965D01*
X165359442Y-81670918D01*
X165359442Y-81973299D01*
X165298966Y-82094251D01*
X165238490Y-82154727D01*
X165117538Y-82215203D01*
X164815157Y-82215203D01*
X164694204Y-82154727D01*
X164633728Y-82094251D01*
X168332573Y-96855763D02*
X168332573Y-95585763D01*
X168816382Y-95585763D01*
X168937335Y-95646240D01*
X168997811Y-95706716D01*
X169058287Y-95827668D01*
X169058287Y-96009097D01*
X168997811Y-96130049D01*
X168937335Y-96190525D01*
X168816382Y-96251001D01*
X168332573Y-96251001D01*
X169844478Y-95585763D02*
X170086382Y-95585763D01*
X170207335Y-95646240D01*
X170328287Y-95767192D01*
X170388763Y-96009097D01*
X170388763Y-96432430D01*
X170328287Y-96674335D01*
X170207335Y-96795287D01*
X170086382Y-96855763D01*
X169844478Y-96855763D01*
X169723525Y-96795287D01*
X169602573Y-96674335D01*
X169542097Y-96432430D01*
X169542097Y-96009097D01*
X169602573Y-95767192D01*
X169723525Y-95646240D01*
X169844478Y-95585763D01*
X170751620Y-95585763D02*
X171477335Y-95585763D01*
X171114478Y-96855763D02*
X171114478Y-95585763D01*
G04 #@! TO.C,X1*
D13*
X142536333Y-113134986D02*
X143129000Y-114023986D01*
X143129000Y-113134986D02*
X142536333Y-114023986D01*
X143933333Y-114023986D02*
X143425333Y-114023986D01*
X143679333Y-114023986D02*
X143679333Y-113134986D01*
X143594666Y-113261986D01*
X143510000Y-113346653D01*
X143425333Y-113388986D01*
X141803966Y-116995786D02*
X141719300Y-116953453D01*
X141676966Y-116911120D01*
X141634633Y-116826453D01*
X141634633Y-116784120D01*
X141676966Y-116699453D01*
X141719300Y-116657120D01*
X141803966Y-116614786D01*
X141973300Y-116614786D01*
X142057966Y-116657120D01*
X142100300Y-116699453D01*
X142142633Y-116784120D01*
X142142633Y-116826453D01*
X142100300Y-116911120D01*
X142057966Y-116953453D01*
X141973300Y-116995786D01*
X141803966Y-116995786D01*
X141719300Y-117038120D01*
X141676966Y-117080453D01*
X141634633Y-117165120D01*
X141634633Y-117334453D01*
X141676966Y-117419120D01*
X141719300Y-117461453D01*
X141803966Y-117503786D01*
X141973300Y-117503786D01*
X142057966Y-117461453D01*
X142100300Y-117419120D01*
X142142633Y-117334453D01*
X142142633Y-117165120D01*
X142100300Y-117080453D01*
X142057966Y-117038120D01*
X141973300Y-116995786D01*
X142311966Y-117588453D02*
X142989300Y-117588453D01*
X143200966Y-117503786D02*
X143200966Y-116614786D01*
X143497300Y-117249786D01*
X143793633Y-116614786D01*
X143793633Y-117503786D01*
X144216966Y-117503786D02*
X144216966Y-116614786D01*
X144216966Y-117038120D02*
X144724966Y-117038120D01*
X144724966Y-117503786D02*
X144724966Y-116614786D01*
X145063633Y-116911120D02*
X145529300Y-116911120D01*
X145063633Y-117503786D01*
X145529300Y-117503786D01*
G04 #@! TO.C,P1*
X172409999Y-148575364D02*
X171393999Y-148575364D01*
X171393999Y-148188317D01*
X171442380Y-148091555D01*
X171490760Y-148043174D01*
X171587522Y-147994793D01*
X171732665Y-147994793D01*
X171829427Y-148043174D01*
X171877808Y-148091555D01*
X171926189Y-148188317D01*
X171926189Y-148575364D01*
X172409999Y-147027174D02*
X172409999Y-147607745D01*
X172409999Y-147317460D02*
X171393999Y-147317460D01*
X171539141Y-147414221D01*
X171635903Y-147510983D01*
X171684284Y-147607745D01*
G04 #@! TO.C,U14*
D22*
X145047304Y-101274396D02*
X145857443Y-101274396D01*
X145952754Y-101226740D01*
X146000409Y-101179085D01*
X146048064Y-101083775D01*
X146048064Y-100893154D01*
X146000409Y-100797843D01*
X145952754Y-100750188D01*
X145857443Y-100702533D01*
X145047304Y-100702533D01*
X146048064Y-99701773D02*
X146048064Y-100273636D01*
X146048064Y-99987704D02*
X145047304Y-99987704D01*
X145190270Y-100083015D01*
X145285580Y-100178325D01*
X145333236Y-100273636D01*
X145380891Y-98843979D02*
X146048064Y-98843979D01*
X144999649Y-99082255D02*
X145714478Y-99320531D01*
X145714478Y-98701013D01*
D23*
D22*
X139960410Y-103358889D02*
X140103376Y-103406544D01*
X140341652Y-103406544D01*
X140436962Y-103358889D01*
X140484618Y-103311234D01*
X140532273Y-103215923D01*
X140532273Y-103120613D01*
X140484618Y-103025302D01*
X140436962Y-102977647D01*
X140341652Y-102929992D01*
X140151031Y-102882337D01*
X140055720Y-102834681D01*
X140008065Y-102787026D01*
X139960410Y-102691716D01*
X139960410Y-102596405D01*
X140008065Y-102501095D01*
X140055720Y-102453440D01*
X140151031Y-102405784D01*
X140389307Y-102405784D01*
X140532273Y-102453440D01*
X140818204Y-102405784D02*
X141390067Y-102405784D01*
X141104136Y-103406544D02*
X141104136Y-102405784D01*
X141723654Y-103406544D02*
X141723654Y-102405784D01*
X142057240Y-103120613D01*
X142390827Y-102405784D01*
X142390827Y-103406544D01*
X142772069Y-102405784D02*
X143391587Y-102405784D01*
X143058000Y-102787026D01*
X143200966Y-102787026D01*
X143296277Y-102834681D01*
X143343932Y-102882337D01*
X143391587Y-102977647D01*
X143391587Y-103215923D01*
X143343932Y-103311234D01*
X143296277Y-103358889D01*
X143200966Y-103406544D01*
X142915035Y-103406544D01*
X142819724Y-103358889D01*
X142772069Y-103311234D01*
X143772829Y-102501095D02*
X143820484Y-102453440D01*
X143915795Y-102405784D01*
X144154071Y-102405784D01*
X144249381Y-102453440D01*
X144297037Y-102501095D01*
X144344692Y-102596405D01*
X144344692Y-102691716D01*
X144297037Y-102834681D01*
X143725174Y-103406544D01*
X144344692Y-103406544D01*
X145107176Y-102882337D02*
X144773589Y-102882337D01*
X144773589Y-103406544D02*
X144773589Y-102405784D01*
X145250141Y-102405784D01*
X146060280Y-102739371D02*
X146060280Y-103406544D01*
X145822004Y-102358129D02*
X145583728Y-103072958D01*
X146203246Y-103072958D01*
X146775109Y-102405784D02*
X146870420Y-102405784D01*
X146965730Y-102453440D01*
X147013385Y-102501095D01*
X147061040Y-102596405D01*
X147108696Y-102787026D01*
X147108696Y-103025302D01*
X147061040Y-103215923D01*
X147013385Y-103311234D01*
X146965730Y-103358889D01*
X146870420Y-103406544D01*
X146775109Y-103406544D01*
X146679799Y-103358889D01*
X146632143Y-103311234D01*
X146584488Y-103215923D01*
X146536833Y-103025302D01*
X146536833Y-102787026D01*
X146584488Y-102596405D01*
X146632143Y-102501095D01*
X146679799Y-102453440D01*
X146775109Y-102405784D01*
X148014145Y-102405784D02*
X147537593Y-102405784D01*
X147489938Y-102882337D01*
X147537593Y-102834681D01*
X147632903Y-102787026D01*
X147871180Y-102787026D01*
X147966490Y-102834681D01*
X148014145Y-102882337D01*
X148061800Y-102977647D01*
X148061800Y-103215923D01*
X148014145Y-103311234D01*
X147966490Y-103358889D01*
X147871180Y-103406544D01*
X147632903Y-103406544D01*
X147537593Y-103358889D01*
X147489938Y-103311234D01*
X149062560Y-103406544D02*
X148728974Y-102929992D01*
X148490698Y-103406544D02*
X148490698Y-102405784D01*
X148871940Y-102405784D01*
X148967250Y-102453440D01*
X149014905Y-102501095D01*
X149062560Y-102596405D01*
X149062560Y-102739371D01*
X149014905Y-102834681D01*
X148967250Y-102882337D01*
X148871940Y-102929992D01*
X148490698Y-102929992D01*
X150015665Y-102453440D02*
X149920355Y-102405784D01*
X149777389Y-102405784D01*
X149634423Y-102453440D01*
X149539113Y-102548750D01*
X149491458Y-102644060D01*
X149443802Y-102834681D01*
X149443802Y-102977647D01*
X149491458Y-103168268D01*
X149539113Y-103263579D01*
X149634423Y-103358889D01*
X149777389Y-103406544D01*
X149872700Y-103406544D01*
X150015665Y-103358889D01*
X150063320Y-103311234D01*
X150063320Y-102977647D01*
X149872700Y-102977647D01*
X150349252Y-102405784D02*
X150921115Y-102405784D01*
X150635183Y-103406544D02*
X150635183Y-102405784D01*
X151683599Y-102405784D02*
X151492978Y-102405784D01*
X151397667Y-102453440D01*
X151350012Y-102501095D01*
X151254701Y-102644060D01*
X151207046Y-102834681D01*
X151207046Y-103215923D01*
X151254701Y-103311234D01*
X151302357Y-103358889D01*
X151397667Y-103406544D01*
X151588288Y-103406544D01*
X151683599Y-103358889D01*
X151731254Y-103311234D01*
X151778909Y-103215923D01*
X151778909Y-102977647D01*
X151731254Y-102882337D01*
X151683599Y-102834681D01*
X151588288Y-102787026D01*
X151397667Y-102787026D01*
X151302357Y-102834681D01*
X151254701Y-102882337D01*
X151207046Y-102977647D01*
D23*
G04 #@! TO.C,D2*
D11*
X143275594Y-69683448D02*
X142513594Y-69683448D01*
X142513594Y-69502020D01*
X142549880Y-69393162D01*
X142622451Y-69320591D01*
X142695022Y-69284305D01*
X142840165Y-69248020D01*
X142949022Y-69248020D01*
X143094165Y-69284305D01*
X143166737Y-69320591D01*
X143239308Y-69393162D01*
X143275594Y-69502020D01*
X143275594Y-69683448D01*
X142586165Y-68957734D02*
X142549880Y-68921448D01*
X142513594Y-68848877D01*
X142513594Y-68667448D01*
X142549880Y-68594877D01*
X142586165Y-68558591D01*
X142658737Y-68522305D01*
X142731308Y-68522305D01*
X142840165Y-68558591D01*
X143275594Y-68994020D01*
X143275594Y-68522305D01*
X140735594Y-69610877D02*
X140735594Y-69973734D01*
X139973594Y-69973734D01*
X140336451Y-69356877D02*
X140336451Y-69102877D01*
X140735594Y-68994020D02*
X140735594Y-69356877D01*
X139973594Y-69356877D01*
X139973594Y-68994020D01*
X140735594Y-68667448D02*
X139973594Y-68667448D01*
X139973594Y-68486020D01*
X140009880Y-68377162D01*
X140082451Y-68304591D01*
X140155022Y-68268305D01*
X140300165Y-68232020D01*
X140409022Y-68232020D01*
X140554165Y-68268305D01*
X140626737Y-68304591D01*
X140699308Y-68377162D01*
X140735594Y-68486020D01*
X140735594Y-68667448D01*
G04 #@! TO.C,JACK7*
D16*
X116311800Y-164320703D02*
X116311800Y-165227846D01*
X116251324Y-165409275D01*
X116130372Y-165530227D01*
X115948943Y-165590703D01*
X115827991Y-165590703D01*
X116856086Y-165227846D02*
X117460848Y-165227846D01*
X116735134Y-165590703D02*
X117158467Y-164320703D01*
X117581800Y-165590703D01*
X118730848Y-165469751D02*
X118670372Y-165530227D01*
X118488943Y-165590703D01*
X118367991Y-165590703D01*
X118186562Y-165530227D01*
X118065610Y-165409275D01*
X118005134Y-165288322D01*
X117944658Y-165046418D01*
X117944658Y-164864989D01*
X118005134Y-164623084D01*
X118065610Y-164502132D01*
X118186562Y-164381180D01*
X118367991Y-164320703D01*
X118488943Y-164320703D01*
X118670372Y-164381180D01*
X118730848Y-164441656D01*
X119275134Y-165590703D02*
X119275134Y-164320703D01*
X120000848Y-165590703D02*
X119456562Y-164864989D01*
X120000848Y-164320703D02*
X119275134Y-165046418D01*
X120424181Y-164320703D02*
X121270848Y-164320703D01*
X120726562Y-165590703D01*
G04 #@! TO.C,JACK6*
X144112100Y-126093703D02*
X144112100Y-127000846D01*
X144051624Y-127182275D01*
X143930672Y-127303227D01*
X143749243Y-127363703D01*
X143628291Y-127363703D01*
X144656386Y-127000846D02*
X145261148Y-127000846D01*
X144535434Y-127363703D02*
X144958767Y-126093703D01*
X145382100Y-127363703D01*
X146531148Y-127242751D02*
X146470672Y-127303227D01*
X146289243Y-127363703D01*
X146168291Y-127363703D01*
X145986862Y-127303227D01*
X145865910Y-127182275D01*
X145805434Y-127061322D01*
X145744958Y-126819418D01*
X145744958Y-126637989D01*
X145805434Y-126396084D01*
X145865910Y-126275132D01*
X145986862Y-126154180D01*
X146168291Y-126093703D01*
X146289243Y-126093703D01*
X146470672Y-126154180D01*
X146531148Y-126214656D01*
X147075434Y-127363703D02*
X147075434Y-126093703D01*
X147801148Y-127363703D02*
X147256862Y-126637989D01*
X147801148Y-126093703D02*
X147075434Y-126819418D01*
X148889720Y-126093703D02*
X148647815Y-126093703D01*
X148526862Y-126154180D01*
X148466386Y-126214656D01*
X148345434Y-126396084D01*
X148284958Y-126637989D01*
X148284958Y-127121799D01*
X148345434Y-127242751D01*
X148405910Y-127303227D01*
X148526862Y-127363703D01*
X148768767Y-127363703D01*
X148889720Y-127303227D01*
X148950196Y-127242751D01*
X149010672Y-127121799D01*
X149010672Y-126819418D01*
X148950196Y-126698465D01*
X148889720Y-126637989D01*
X148768767Y-126577513D01*
X148526862Y-126577513D01*
X148405910Y-126637989D01*
X148345434Y-126698465D01*
X148284958Y-126819418D01*
G04 #@! TO.C,JACK5*
X159512120Y-164320703D02*
X159512120Y-165227846D01*
X159451644Y-165409275D01*
X159330692Y-165530227D01*
X159149263Y-165590703D01*
X159028311Y-165590703D01*
X160056406Y-165227846D02*
X160661168Y-165227846D01*
X159935454Y-165590703D02*
X160358787Y-164320703D01*
X160782120Y-165590703D01*
X161931168Y-165469751D02*
X161870692Y-165530227D01*
X161689263Y-165590703D01*
X161568311Y-165590703D01*
X161386882Y-165530227D01*
X161265930Y-165409275D01*
X161205454Y-165288322D01*
X161144978Y-165046418D01*
X161144978Y-164864989D01*
X161205454Y-164623084D01*
X161265930Y-164502132D01*
X161386882Y-164381180D01*
X161568311Y-164320703D01*
X161689263Y-164320703D01*
X161870692Y-164381180D01*
X161931168Y-164441656D01*
X162475454Y-165590703D02*
X162475454Y-164320703D01*
X163201168Y-165590703D02*
X162656882Y-164864989D01*
X163201168Y-164320703D02*
X162475454Y-165046418D01*
X164350216Y-164320703D02*
X163745454Y-164320703D01*
X163684978Y-164925465D01*
X163745454Y-164864989D01*
X163866406Y-164804513D01*
X164168787Y-164804513D01*
X164289740Y-164864989D01*
X164350216Y-164925465D01*
X164410692Y-165046418D01*
X164410692Y-165348799D01*
X164350216Y-165469751D01*
X164289740Y-165530227D01*
X164168787Y-165590703D01*
X163866406Y-165590703D01*
X163745454Y-165530227D01*
X163684978Y-165469751D01*
G04 #@! TO.C,JACK4*
X165341420Y-132634203D02*
X165341420Y-133541346D01*
X165280944Y-133722775D01*
X165159992Y-133843727D01*
X164978563Y-133904203D01*
X164857611Y-133904203D01*
X165885706Y-133541346D02*
X166490468Y-133541346D01*
X165764754Y-133904203D02*
X166188087Y-132634203D01*
X166611420Y-133904203D01*
X167760468Y-133783251D02*
X167699992Y-133843727D01*
X167518563Y-133904203D01*
X167397611Y-133904203D01*
X167216182Y-133843727D01*
X167095230Y-133722775D01*
X167034754Y-133601822D01*
X166974278Y-133359918D01*
X166974278Y-133178489D01*
X167034754Y-132936584D01*
X167095230Y-132815632D01*
X167216182Y-132694680D01*
X167397611Y-132634203D01*
X167518563Y-132634203D01*
X167699992Y-132694680D01*
X167760468Y-132755156D01*
X168304754Y-133904203D02*
X168304754Y-132634203D01*
X169030468Y-133904203D02*
X168486182Y-133178489D01*
X169030468Y-132634203D02*
X168304754Y-133359918D01*
X170119040Y-133057537D02*
X170119040Y-133904203D01*
X169816659Y-132573727D02*
X169514278Y-133480870D01*
X170300468Y-133480870D01*
G04 #@! TO.C,JACK3*
X116311800Y-138519383D02*
X116311800Y-139426526D01*
X116251324Y-139607955D01*
X116130372Y-139728907D01*
X115948943Y-139789383D01*
X115827991Y-139789383D01*
X116856086Y-139426526D02*
X117460848Y-139426526D01*
X116735134Y-139789383D02*
X117158467Y-138519383D01*
X117581800Y-139789383D01*
X118730848Y-139668431D02*
X118670372Y-139728907D01*
X118488943Y-139789383D01*
X118367991Y-139789383D01*
X118186562Y-139728907D01*
X118065610Y-139607955D01*
X118005134Y-139487002D01*
X117944658Y-139245098D01*
X117944658Y-139063669D01*
X118005134Y-138821764D01*
X118065610Y-138700812D01*
X118186562Y-138579860D01*
X118367991Y-138519383D01*
X118488943Y-138519383D01*
X118670372Y-138579860D01*
X118730848Y-138640336D01*
X119275134Y-139789383D02*
X119275134Y-138519383D01*
X120000848Y-139789383D02*
X119456562Y-139063669D01*
X120000848Y-138519383D02*
X119275134Y-139245098D01*
X120424181Y-138519383D02*
X121210372Y-138519383D01*
X120787039Y-139003193D01*
X120968467Y-139003193D01*
X121089420Y-139063669D01*
X121149896Y-139124145D01*
X121210372Y-139245098D01*
X121210372Y-139547479D01*
X121149896Y-139668431D01*
X121089420Y-139728907D01*
X120968467Y-139789383D01*
X120605610Y-139789383D01*
X120484658Y-139728907D01*
X120424181Y-139668431D01*
G04 #@! TO.C,OUT*
X151180800Y-152890703D02*
X151422704Y-152890703D01*
X151543657Y-152951180D01*
X151664609Y-153072132D01*
X151725085Y-153314037D01*
X151725085Y-153737370D01*
X151664609Y-153979275D01*
X151543657Y-154100227D01*
X151422704Y-154160703D01*
X151180800Y-154160703D01*
X151059847Y-154100227D01*
X150938895Y-153979275D01*
X150878419Y-153737370D01*
X150878419Y-153314037D01*
X150938895Y-153072132D01*
X151059847Y-152951180D01*
X151180800Y-152890703D01*
X152269371Y-152890703D02*
X152269371Y-153918799D01*
X152329847Y-154039751D01*
X152390323Y-154100227D01*
X152511276Y-154160703D01*
X152753180Y-154160703D01*
X152874133Y-154100227D01*
X152934609Y-154039751D01*
X152995085Y-153918799D01*
X152995085Y-152890703D01*
X153418419Y-152890703D02*
X154144133Y-152890703D01*
X153781276Y-154160703D02*
X153781276Y-152890703D01*
G04 #@! TO.C,IN!*
X138689200Y-134099783D02*
X138689200Y-132829783D01*
X139293962Y-134099783D02*
X139293962Y-132829783D01*
X140019677Y-134099783D01*
X140019677Y-132829783D01*
X140624439Y-133978831D02*
X140684915Y-134039307D01*
X140624439Y-134099783D01*
X140563962Y-134039307D01*
X140624439Y-133978831D01*
X140624439Y-134099783D01*
X140624439Y-133615974D02*
X140563962Y-132890260D01*
X140624439Y-132829783D01*
X140684915Y-132890260D01*
X140624439Y-133615974D01*
X140624439Y-132829783D01*
G04 #@! TO.C,D5*
D20*
X136760494Y-136035868D02*
X135998494Y-136035868D01*
X135998494Y-135854440D01*
X136034780Y-135745582D01*
X136107351Y-135673011D01*
X136179922Y-135636725D01*
X136325065Y-135600440D01*
X136433922Y-135600440D01*
X136579065Y-135636725D01*
X136651637Y-135673011D01*
X136724208Y-135745582D01*
X136760494Y-135854440D01*
X136760494Y-136035868D01*
X135998494Y-134911011D02*
X135998494Y-135273868D01*
X136361351Y-135310154D01*
X136325065Y-135273868D01*
X136288780Y-135201297D01*
X136288780Y-135019868D01*
X136325065Y-134947297D01*
X136361351Y-134911011D01*
X136433922Y-134874725D01*
X136615351Y-134874725D01*
X136687922Y-134911011D01*
X136724208Y-134947297D01*
X136760494Y-135019868D01*
X136760494Y-135201297D01*
X136724208Y-135273868D01*
X136687922Y-135310154D01*
X133566928Y-135336582D02*
X133900514Y-135336582D01*
X133566928Y-135836962D01*
X133900514Y-135836962D01*
X134091135Y-135574858D02*
X134257929Y-135574858D01*
X134329411Y-135836962D02*
X134091135Y-135836962D01*
X134091135Y-135336582D01*
X134329411Y-135336582D01*
X134543860Y-135836962D02*
X134543860Y-135336582D01*
X134829791Y-135836962D01*
X134829791Y-135336582D01*
X135068068Y-135574858D02*
X135234861Y-135574858D01*
X135306344Y-135836962D02*
X135068068Y-135836962D01*
X135068068Y-135336582D01*
X135306344Y-135336582D01*
X135806724Y-135836962D02*
X135639930Y-135598686D01*
X135520792Y-135836962D02*
X135520792Y-135336582D01*
X135711413Y-135336582D01*
X135759069Y-135360410D01*
X135782896Y-135384237D01*
X135806724Y-135431892D01*
X135806724Y-135503375D01*
X135782896Y-135551030D01*
X135759069Y-135574858D01*
X135711413Y-135598686D01*
X135520792Y-135598686D01*
G04 #@! TO.C,SIL-1*
D21*
X151749276Y-159140252D02*
X151904579Y-159222621D01*
X152163417Y-159222621D01*
X152266952Y-159140252D01*
X152318720Y-159057884D01*
X152370487Y-158893147D01*
X152370487Y-158728410D01*
X152318720Y-158563672D01*
X152266952Y-158481304D01*
X152163417Y-158398935D01*
X151956346Y-158316567D01*
X151852811Y-158234198D01*
X151801043Y-158151830D01*
X151749276Y-157987092D01*
X151749276Y-157822355D01*
X151801043Y-157657618D01*
X151852811Y-157575250D01*
X151956346Y-157492881D01*
X152215184Y-157492881D01*
X152370487Y-157575250D01*
X152836396Y-159222621D02*
X152836396Y-157492881D01*
X153871748Y-159222621D02*
X153354072Y-159222621D01*
X153354072Y-157492881D01*
X154234121Y-158563672D02*
X155062403Y-158563672D01*
X156149523Y-159222621D02*
X155528312Y-159222621D01*
X155838918Y-159222621D02*
X155838918Y-157492881D01*
X155735382Y-157739987D01*
X155631847Y-157904724D01*
X155528312Y-157987092D01*
G04 #@! TD*
M02*
