M48
;DRILL file {KiCad (6.0.0-rc1-dev-209-g91e3d21d6)} date Sat Feb 26 20:17:16 2022
;FORMAT={-:-/ absolute / inch / decimal}
FMAT,2
INCH,TZ
T1C0.0250
T2C0.0320
T3C0.0393
T4C0.0400
T5C0.0590
T6C0.0866
T7C0.0984
%
G90
G05
M72
T1
X4.7894Y-6.0126
X4.8642Y-6.0083
X4.9142Y-5.8169
X4.95Y-5.9839
X4.985Y-4.1098
X4.9949Y-3.885
X4.9949Y-4.635
X4.9965Y-4.4055
X5.0051Y-4.2752
X5.0051Y-4.7902
X5.0181Y-5.9465
X5.0717Y-5.8799
X5.0783Y-5.95
X5.089Y-5.6476
X5.1217Y-5.8232
X5.1346Y-5.9921
X5.1744Y-5.1063
X5.1787Y-5.3701
X5.1811Y-3.1945
X5.1831Y-2.6642
X5.1854Y-4.122
X5.1886Y-4.3846
X5.1976Y-2.8
X5.1976Y-3.9902
X5.1976Y-4.0634
X5.1976Y-4.1791
X5.2031Y-5.4449
X5.2079Y-4.228
X5.2256Y-3.9236
X5.2303Y-4.5091
X5.235Y-5.9799
X5.2469Y-4.128
X5.2469Y-4.3335
X5.2535Y-4.263
X5.265Y-2.8831
X5.2744Y-3.6433
X5.2756Y-4.7783
X5.2823Y-2.4906
X5.2906Y-3.8969
X5.2921Y-5.6921
X5.2933Y-2.6992
X5.2949Y-4.2886
X5.3059Y-4.8335
X5.3063Y-4.9476
X5.3157Y-3.4917
X5.3374Y-2.9295
X5.3374Y-3.7067
X5.3417Y-4.7232
X5.3461Y-6.0118
X5.3516Y-4.2909
X5.3744Y-4.2197
X5.3921Y-3.7555
X5.3945Y-3.8169
X5.3965Y-4.4197
X5.3969Y-3.4858
X5.3988Y-3.8898
X5.4039Y-3.6154
X5.4039Y-5.1559
X5.4142Y-5.9575
X5.4181Y-5.9016
X5.4516Y-4.4614
X5.4579Y-5.5512
X5.4634Y-6.0795
X5.4669Y-4.2945
X5.472Y-5.7921
X5.478Y-5.9575
X5.4811Y-2.6913
X5.4913Y-5.6142
X5.4949Y-2.6217
X5.5079Y-3.8051
X5.5079Y-4.4087
X5.5126Y-6.1354
X5.5287Y-4.3012
X5.535Y-4.261
X5.5421Y-4.7209
X5.5543Y-5.7224
X5.5594Y-5.6409
X5.5614Y-6.0016
X5.565Y-2.8457
X5.589Y-4.848
X5.5953Y-3.4957
X5.6071Y-5.6244
X5.6244Y-3.2724
X5.628Y-6.0709
X5.6319Y-6.0083
X5.6331Y-3.8921
X5.6531Y-5.7642
X5.6587Y-3.4819
X5.6701Y-5.5161
X5.6776Y-4.2106
X5.6783Y-3.5441
X5.7051Y-3.1988
X5.748Y-4.2201
X5.7819Y-3.1744
X5.7882Y-3.8862
X5.7945Y-4.3421
X5.8161Y-3.687
X5.8205Y-5.8067
X5.8295Y-3.7319
X5.8358Y-4.3669
X5.8382Y-2.9752
X5.8413Y-2.9087
X5.8449Y-2.4988
X5.8457Y-4.2106
X5.8476Y-2.8358
X5.8488Y-3.885
X5.8799Y-5.3303
X5.8799Y-5.6909
X5.8831Y-3.5669
X5.9268Y-4.2476
X5.9512Y-5.3217
X5.9531Y-2.8425
X5.9579Y-3.5626
X5.961Y-4.7598
X5.9642Y-2.5201
X5.9669Y-5.178
X5.9685Y-2.4531
X5.9902Y-4.5272
X5.9941Y-4.3114
X6.0059Y-6.0449
X6.0252Y-5.811
X6.0374Y-2.8488
X6.0398Y-5.1925
X6.0413Y-3.5642
X6.0465Y-5.574
X6.0512Y-3.935
X6.0551Y-2.5201
X6.0587Y-4.5299
X6.0618Y-3.2445
X6.0642Y-4.1421
X6.0827Y-4.8134
X6.085Y-3.648
X6.0858Y-4.9791
X6.0858Y-5.3642
X6.0902Y-4.926
X6.0961Y-3.5618
X6.1051Y-2.8402
X6.1091Y-4.113
X6.1094Y-5.7622
X6.1102Y-5.824
X6.1118Y-5.1913
X6.1181Y-3.2933
X6.1402Y-3.6059
X6.1591Y-4.987
X6.1622Y-6.1819
X6.1776Y-2.7929
X6.1776Y-3.3567
X6.1783Y-4.2476
X6.1929Y-3.6543
X6.2012Y-4.861
X6.2091Y-5.628
X6.2118Y-3.8358
X6.213Y-5.4976
X6.2165Y-3.8988
X6.2181Y-4.3539
X6.2217Y-5.5661
X6.2264Y-5.439
X6.2264Y-5.7256
X6.2579Y-4.587
X6.261Y-5.2091
X6.2634Y-3.7138
X6.265Y-2.9402
X6.2681Y-6.0291
X6.2728Y-4.1969
X6.2929Y-4.55
X6.3051Y-3.7642
X6.3071Y-3.9677
X6.3098Y-4.478
X6.324Y-4.252
X6.335Y-2.4886
X6.3406Y-5.9094
X6.3421Y-5.3669
X6.3512Y-5.7461
X6.3571Y-6.011
X6.363Y-3.7591
X6.372Y-5.4031
X6.3795Y-5.3413
X6.3902Y-5.1512
X6.398Y-3.5772
X6.4087Y-3.0799
X6.4902Y-5.7531
X6.4933Y-3.9724
X6.4945Y-5.9555
X6.5118Y-5.522
X6.5189Y-4.122
X6.5413Y-3.2024
X6.561Y-3.8654
X6.5862Y-4.102
X6.6091Y-4.1539
X6.6114Y-3.9417
X6.613Y-5.3012
X6.6256Y-3.2969
X6.6287Y-4.4835
X6.6398Y-3.815
X6.6406Y-4.4055
X6.6465Y-4.7846
X6.6465Y-4.8476
X6.7244Y-4.4071
X6.7472Y-3.7728
X6.776Y-3.5909
X6.8055Y-4.4087
X6.8331Y-4.015
X6.8354Y-3.8059
T2
X5.0449Y-3.0945
X5.1449Y-3.0945
X5.2449Y-3.0945
X5.3449Y-3.0945
X6.061Y-6.3378
T3
X4.9102Y-4.952
X5.0086Y-4.952
X5.107Y-4.952
X4.9102Y-3.7315
X5.0086Y-3.7315
X5.107Y-3.7315
X6.4495Y-4.952
X6.5479Y-4.952
X6.6463Y-4.952
X5.6661Y-3.3654
X5.7645Y-3.3654
X5.8629Y-3.3654
X6.4495Y-3.7315
X6.5479Y-3.7315
X6.6463Y-3.7315
T4
X6.5697Y-5.5949
X6.5697Y-5.6949
X6.5697Y-5.7949
X6.5697Y-5.8949
X6.5697Y-5.9949
X6.6697Y-5.5949
X6.6697Y-5.6949
X6.6697Y-5.7949
X6.6697Y-5.8949
X6.6697Y-5.9949
T5
X5.9173Y-6.2717
X6.4528Y-5.2559
X4.752Y-6.2717
X4.752Y-5.2559
X6.4528Y-6.2717
X5.9173Y-5.0276
X5.5867Y-5.4921
T6
X4.7997Y-4.6693
X5.1987Y-4.6693
X4.7997Y-3.4488
X5.1987Y-3.4488
X6.339Y-4.6693
X6.738Y-4.6693
X5.5556Y-3.0827
X5.9546Y-3.0827
X6.339Y-3.4488
X6.738Y-3.4488
T7
X5.5867Y-6.2717
X5.752Y-6.0788
X5.752Y-6.4016
X6.6181Y-5.126
X6.6181Y-5.4488
X6.7834Y-5.2559
X4.9164Y-6.4646
X4.9173Y-6.1418
X5.0826Y-6.2717
X4.9173Y-5.126
X4.9173Y-5.4488
X5.0826Y-5.2559
X6.6181Y-6.1418
X6.6181Y-6.4646
X6.7834Y-6.2717
X5.5867Y-5.0276
X5.752Y-4.8347
X5.752Y-5.1575
X5.752Y-5.3622
X5.752Y-5.685
X5.9173Y-5.4921
T0
M30
