G04 #@! TF.GenerationSoftware,KiCad,Pcbnew,(6.0.0-rc1-dev-209-g91e3d21d6)*
G04 #@! TF.CreationDate,2022-02-26T20:17:17+01:00*
G04 #@! TF.ProjectId,new_worm3,6E65775F776F726D332E6B696361645F,rev?*
G04 #@! TF.SameCoordinates,Original*
G04 #@! TF.FileFunction,Copper,L2,Bot,Signal*
G04 #@! TF.FilePolarity,Positive*
%FSLAX46Y46*%
G04 Gerber Fmt 4.6, Leading zero omitted, Abs format (unit mm)*
G04 Created by KiCad (PCBNEW (6.0.0-rc1-dev-209-g91e3d21d6)) date Sat Feb 26 20:17:17 2022*
%MOMM*%
%LPD*%
G01*
G04 APERTURE LIST*
G04 #@! TA.AperFunction,ComponentPad*
%ADD10R,1.397000X1.397000*%
G04 #@! TD*
G04 #@! TA.AperFunction,ComponentPad*
%ADD11C,1.397000*%
G04 #@! TD*
G04 #@! TA.AperFunction,ComponentPad*
%ADD12O,2.032000X2.032000*%
G04 #@! TD*
G04 #@! TA.AperFunction,ComponentPad*
%ADD13O,3.810000X3.810000*%
G04 #@! TD*
G04 #@! TA.AperFunction,ComponentPad*
%ADD14O,3.799840X3.799840*%
G04 #@! TD*
G04 #@! TA.AperFunction,ComponentPad*
%ADD15R,1.524000X1.524000*%
G04 #@! TD*
G04 #@! TA.AperFunction,ComponentPad*
%ADD16C,1.524000*%
G04 #@! TD*
G04 #@! TA.AperFunction,ComponentPad*
%ADD17O,3.749040X3.749040*%
G04 #@! TD*
G04 #@! TA.AperFunction,ComponentPad*
%ADD18O,2.247900X2.247900*%
G04 #@! TD*
G04 #@! TA.AperFunction,ViaPad*
%ADD19C,0.889000*%
G04 #@! TD*
G04 #@! TA.AperFunction,Conductor*
%ADD20C,0.500380*%
G04 #@! TD*
G04 #@! TA.AperFunction,Conductor*
%ADD21C,0.248920*%
G04 #@! TD*
G04 #@! TA.AperFunction,Conductor*
%ADD22C,0.254000*%
G04 #@! TD*
G04 APERTURE END LIST*
D10*
G04 #@! TO.P,P45,1*
G04 #@! TO.N,+3.3V*
X128140460Y-78600300D03*
D11*
G04 #@! TO.P,P45,2*
G04 #@! TO.N,/SWCK*
X130680460Y-78600300D03*
G04 #@! TO.P,P45,3*
G04 #@! TO.N,GND*
X133220460Y-78600300D03*
G04 #@! TO.P,P45,4*
G04 #@! TO.N,/SWDIO*
X135760460Y-78600300D03*
G04 #@! TD*
D12*
G04 #@! TO.P,RV2,1*
G04 #@! TO.N,/Sheet550B4EA0/REF-10*
X143918940Y-85481160D03*
G04 #@! TO.P,RV2,2*
G04 #@! TO.N,N-000083*
X146418300Y-85481160D03*
G04 #@! TO.P,RV2,3*
G04 #@! TO.N,GND*
X148917660Y-85481160D03*
D13*
G04 #@! TO.P,RV2,N$1*
G04 #@! TO.N,N/C*
X141112240Y-78300580D03*
G04 #@! TO.P,RV2,N$2*
X151246840Y-78300580D03*
G04 #@! TD*
D12*
G04 #@! TO.P,RV1,1*
G04 #@! TO.N,/Sheet550B4EA0/REF-10*
X163817300Y-125780800D03*
G04 #@! TO.P,RV1,2*
G04 #@! TO.N,N-000082*
X166316660Y-125780800D03*
G04 #@! TO.P,RV1,3*
G04 #@! TO.N,GND*
X168816020Y-125780800D03*
D14*
G04 #@! TO.P,RV1,N$1*
G04 #@! TO.N,N/C*
X161010600Y-118600220D03*
G04 #@! TO.P,RV1,N$2*
X171145200Y-118600220D03*
G04 #@! TD*
D12*
G04 #@! TO.P,RV3,1*
G04 #@! TO.N,/Sheet550B4EA0/REF-10*
X124719080Y-94780100D03*
G04 #@! TO.P,RV3,2*
G04 #@! TO.N,N-000094*
X127218440Y-94780100D03*
G04 #@! TO.P,RV3,3*
G04 #@! TO.N,GND*
X129717800Y-94780100D03*
D13*
G04 #@! TO.P,RV3,N$1*
G04 #@! TO.N,N/C*
X121912380Y-87599520D03*
G04 #@! TO.P,RV3,N$2*
X132046980Y-87599520D03*
G04 #@! TD*
D12*
G04 #@! TO.P,RV4,1*
G04 #@! TO.N,/Sheet550B4EA0/REF-10*
X124719080Y-125780800D03*
G04 #@! TO.P,RV4,2*
G04 #@! TO.N,N-000096*
X127218440Y-125780800D03*
G04 #@! TO.P,RV4,3*
G04 #@! TO.N,GND*
X129717800Y-125780800D03*
D13*
G04 #@! TO.P,RV4,N$1*
G04 #@! TO.N,N/C*
X121912380Y-118600220D03*
D14*
G04 #@! TO.P,RV4,N$2*
X132046980Y-118600220D03*
G04 #@! TD*
D12*
G04 #@! TO.P,RV5,1*
G04 #@! TO.N,/Sheet550B4EA0/REF-10*
X163817300Y-94780100D03*
G04 #@! TO.P,RV5,2*
G04 #@! TO.N,N-000091*
X166316660Y-94780100D03*
G04 #@! TO.P,RV5,3*
G04 #@! TO.N,GND*
X168816020Y-94780100D03*
D14*
G04 #@! TO.P,RV5,N$1*
G04 #@! TO.N,N/C*
X161010600Y-87599520D03*
G04 #@! TO.P,RV5,N$2*
X171145200Y-87599520D03*
G04 #@! TD*
D15*
G04 #@! TO.P,P1,1*
G04 #@! TO.N,N-000071*
X166870380Y-142110460D03*
D16*
G04 #@! TO.P,P1,2*
X169410380Y-142110460D03*
G04 #@! TO.P,P1,3*
G04 #@! TO.N,GND*
X166870380Y-144650460D03*
G04 #@! TO.P,P1,4*
X169410380Y-144650460D03*
G04 #@! TO.P,P1,5*
X166870380Y-147190460D03*
G04 #@! TO.P,P1,6*
X169410380Y-147190460D03*
G04 #@! TO.P,P1,7*
X166870380Y-149730460D03*
G04 #@! TO.P,P1,8*
X169410380Y-149730460D03*
G04 #@! TO.P,P1,9*
G04 #@! TO.N,N-000070*
X166870380Y-152270460D03*
G04 #@! TO.P,P1,10*
X169410380Y-152270460D03*
G04 #@! TD*
D17*
G04 #@! TO.P,JACK7,1@1*
G04 #@! TO.N,GND*
X129098040Y-159301180D03*
G04 #@! TO.P,JACK7,3*
G04 #@! TO.N,/Sheet550B4EA0/CV5*
X124876560Y-164200840D03*
G04 #@! TO.P,JACK7,2*
G04 #@! TO.N,N/C*
X124899420Y-156001720D03*
D18*
G04 #@! TO.P,JACK7,1@2*
X120700800Y-159301180D03*
G04 #@! TD*
D17*
G04 #@! TO.P,JACK6,1@1*
G04 #@! TO.N,GND*
X141902180Y-127701040D03*
G04 #@! TO.P,JACK6,3*
G04 #@! TO.N,/Sheet550B4EA0/CV4*
X146100800Y-122801380D03*
G04 #@! TO.P,JACK6,2*
G04 #@! TO.N,N/C*
X146100800Y-131000500D03*
D18*
G04 #@! TO.P,JACK6,1@2*
X150299420Y-127701040D03*
G04 #@! TD*
D17*
G04 #@! TO.P,JACK5,1@1*
G04 #@! TO.N,GND*
X172298360Y-159301180D03*
G04 #@! TO.P,JACK5,3*
G04 #@! TO.N,/Sheet550B4EA0/CV3*
X168099740Y-164200840D03*
G04 #@! TO.P,JACK5,2*
G04 #@! TO.N,N/C*
X168099740Y-156001720D03*
D18*
G04 #@! TO.P,JACK5,1@2*
X163901120Y-159301180D03*
G04 #@! TD*
D17*
G04 #@! TO.P,JACK4,1@1*
G04 #@! TO.N,GND*
X172298360Y-133499860D03*
G04 #@! TO.P,JACK4,3*
G04 #@! TO.N,/Sheet550B4EA0/CV2*
X168099740Y-138399520D03*
G04 #@! TO.P,JACK4,2*
G04 #@! TO.N,N/C*
X168099740Y-130200400D03*
D18*
G04 #@! TO.P,JACK4,1@2*
X163901120Y-133499860D03*
G04 #@! TD*
D17*
G04 #@! TO.P,JACK3,1@1*
G04 #@! TO.N,GND*
X129098040Y-133499860D03*
G04 #@! TO.P,JACK3,3*
G04 #@! TO.N,/Sheet550B4EA0/CV1*
X124899420Y-138399520D03*
G04 #@! TO.P,JACK3,2*
G04 #@! TO.N,N/C*
X124899420Y-130200400D03*
D18*
G04 #@! TO.P,JACK3,1@2*
X120700800Y-133499860D03*
G04 #@! TD*
D17*
G04 #@! TO.P,OUT,1@1*
G04 #@! TO.N,GND*
X141902180Y-159301180D03*
G04 #@! TO.P,OUT,3*
G04 #@! TO.N,N-000101*
X146100800Y-154401520D03*
G04 #@! TO.P,OUT,2*
G04 #@! TO.N,N/C*
X146100800Y-162600640D03*
D18*
G04 #@! TO.P,OUT,1@2*
X150299420Y-159301180D03*
G04 #@! TD*
D17*
G04 #@! TO.P,IN!,1@1*
G04 #@! TO.N,GND*
X150299420Y-139499340D03*
G04 #@! TO.P,IN!,3*
G04 #@! TO.N,N-000084*
X146100800Y-144399000D03*
G04 #@! TO.P,IN!,2*
G04 #@! TO.N,N/C*
X146100800Y-136199880D03*
D18*
G04 #@! TO.P,IN!,1@2*
X141902180Y-139499340D03*
G04 #@! TD*
D10*
G04 #@! TO.P,SIL-1,1*
G04 #@! TO.N,N-000101*
X153949400Y-160980120D03*
G04 #@! TD*
D19*
G04 #@! TO.N,GND*
X131790440Y-111368840D03*
X134381240Y-98981260D03*
X134490460Y-108930440D03*
X131709160Y-104698800D03*
X153969720Y-82410300D03*
X155399740Y-83649820D03*
X132730240Y-99659440D03*
G04 #@! TO.N,+12V*
X167970200Y-134650480D03*
X171378880Y-95829120D03*
G04 #@! TO.N,-12V*
X155178760Y-146359880D03*
X138630660Y-141000480D03*
X153040080Y-147599400D03*
G04 #@! TO.N,/I2S_LRCK*
X157899100Y-99029520D03*
X164929820Y-100898960D03*
G04 #@! TO.N,/I2S_MCLK*
X147728940Y-93649800D03*
X167929560Y-100119180D03*
G04 #@! TO.N,/I2S_SCL*
X165580060Y-104698800D03*
X155171140Y-104470200D03*
G04 #@! TO.N,/I2S_SCLK*
X154559000Y-92659200D03*
X148559520Y-98679000D03*
G04 #@! TO.N,/I2S_SDA*
X167289480Y-104190800D03*
X153700480Y-99949000D03*
G04 #@! TO.N,/I2S_SDI*
X148069300Y-94790260D03*
X157779720Y-97429320D03*
G04 #@! TO.N,/I2S_SDO*
X160200340Y-100779580D03*
X147020280Y-98709480D03*
G04 #@! TO.N,/SWCK*
X135018780Y-88689180D03*
X131599940Y-81140300D03*
G04 #@! TO.N,/SWDIO*
X143080740Y-98859340D03*
X139900660Y-96649540D03*
G04 #@! TO.N,/Sheet550B4EA0/CV1*
X131429760Y-129700020D03*
G04 #@! TO.N,/Sheet550B4EA0/CV2*
X162039300Y-135669020D03*
G04 #@! TO.N,ADC0*
X141960600Y-123139200D03*
X148229320Y-110919260D03*
X152151080Y-114990880D03*
X151409400Y-120898920D03*
G04 #@! TO.N,ADC2*
X157939740Y-110589060D03*
X150540720Y-107889040D03*
X134419340Y-144579340D03*
X156928820Y-107889040D03*
G04 #@! TO.N,ADC3*
X138988800Y-147119340D03*
X154500580Y-122260360D03*
X153890980Y-115059460D03*
X152250140Y-109509560D03*
G04 #@! TO.N,ADC4*
X131538980Y-136400540D03*
X154030680Y-105209340D03*
G04 #@! TO.N,AVDD*
X147180300Y-110289340D03*
X142120620Y-88790780D03*
X159329120Y-106601260D03*
X148480780Y-106949240D03*
G04 #@! TO.N,GND*
X160149540Y-95610680D03*
X135679180Y-119969280D03*
X135569960Y-74409300D03*
X151330660Y-90490040D03*
X134000240Y-121368820D03*
X148529040Y-72029320D03*
X136509760Y-107180380D03*
X155069540Y-72141080D03*
X148460460Y-63469520D03*
X149430740Y-90599260D03*
X134449820Y-68559680D03*
X139900660Y-111980980D03*
X134780020Y-125669040D03*
X151490680Y-64010540D03*
X136959340Y-95389700D03*
X157299660Y-92819220D03*
X155961080Y-91589860D03*
X153449020Y-90530680D03*
X164851080Y-146128740D03*
X151160480Y-135171180D03*
X137129520Y-98800920D03*
X140428980Y-109250480D03*
X124820680Y-147749260D03*
X164960300Y-151269700D03*
X137071100Y-112260380D03*
X132019040Y-101351080D03*
X128821180Y-149349460D03*
X123550680Y-152610820D03*
X170799760Y-111940340D03*
X151599900Y-62308740D03*
X153799540Y-64010540D03*
X158031180Y-141378940D03*
X127129540Y-121671080D03*
X133271260Y-104851200D03*
X126911100Y-111899700D03*
X134170420Y-63261240D03*
X126619000Y-104388920D03*
X168650920Y-96901000D03*
X130091180Y-147909280D03*
X154691080Y-125120400D03*
X125730000Y-151991060D03*
X151208740Y-72199500D03*
X121650760Y-152720040D03*
X168671240Y-111899700D03*
X126870460Y-117729000D03*
X154840940Y-90469720D03*
X138470640Y-113319560D03*
X168368980Y-113880900D03*
X137020300Y-96949260D03*
X173619160Y-96669860D03*
X127459740Y-151041100D03*
X132849620Y-114531140D03*
X141208760Y-143278860D03*
X146860260Y-80629760D03*
X135930640Y-108988860D03*
X142951200Y-154200860D03*
X151559260Y-131521200D03*
X127129540Y-108590080D03*
X172110400Y-91208860D03*
X131650740Y-67670680D03*
X162509200Y-90860880D03*
X126870460Y-98679000D03*
X154579320Y-126469140D03*
X165399720Y-140258800D03*
X133271260Y-110070900D03*
X159090360Y-94330520D03*
X140020040Y-155839160D03*
X144020540Y-140108940D03*
X134769860Y-122770900D03*
X133969760Y-92539820D03*
X135569960Y-94150180D03*
X137259060Y-91831160D03*
X137081260Y-88539320D03*
X156911040Y-85260180D03*
X159131000Y-74681080D03*
X168290240Y-83741260D03*
X166149020Y-81340960D03*
X162780980Y-78229460D03*
X173560740Y-101981000D03*
X172859700Y-111980980D03*
X160909000Y-63210440D03*
X139570460Y-66591180D03*
X132019040Y-71120000D03*
X141351000Y-72280780D03*
X153349960Y-72359520D03*
X156911040Y-70939660D03*
X148369020Y-73880980D03*
X144909540Y-81249520D03*
X148290280Y-75570080D03*
X142859760Y-83118960D03*
X132280660Y-107391200D03*
X132019040Y-106149140D03*
X157711140Y-142951200D03*
X149349460Y-144548860D03*
X142420340Y-142859760D03*
X149349460Y-135389620D03*
X130418840Y-152199340D03*
X141259560Y-152440640D03*
X138770360Y-154419300D03*
X158150560Y-138150600D03*
X128988820Y-151130000D03*
X141079220Y-145348960D03*
X168821100Y-121528840D03*
X139479020Y-142600680D03*
X168821100Y-123129040D03*
X129260600Y-143449040D03*
X139219940Y-68359020D03*
X137520680Y-151320500D03*
X147840700Y-147490180D03*
X161620200Y-95481140D03*
X133438900Y-108280200D03*
X132019040Y-103210360D03*
X139141200Y-151320500D03*
X157810200Y-139639040D03*
X144228820Y-90020140D03*
X161470340Y-152679400D03*
X132158740Y-138300460D03*
X145999200Y-107190540D03*
X144211040Y-106949240D03*
X143588740Y-146410680D03*
X133731000Y-73230740D03*
X143050260Y-152610820D03*
X140589000Y-108229400D03*
G04 #@! TO.N,LINEINL*
X160629600Y-108000800D03*
X167871140Y-105509060D03*
G04 #@! TO.N,N-000078*
X159839660Y-115570000D03*
X135790940Y-152699720D03*
X156519880Y-157020260D03*
X132969000Y-151889460D03*
G04 #@! TO.N,N-000082*
X162311080Y-130840480D03*
X161089340Y-136319260D03*
G04 #@! TO.N,N-000091*
X166649400Y-98181160D03*
X160268920Y-113741200D03*
G04 #@! TO.N,N-000093*
X143730980Y-88440260D03*
X137259060Y-130959860D03*
X137619740Y-149900640D03*
X138859260Y-109080300D03*
G04 #@! TO.N,N-000095*
X156441140Y-126669800D03*
X155199080Y-147929600D03*
X155239720Y-131859020D03*
X158950660Y-116509800D03*
G04 #@! TO.N,N-000096*
X140769340Y-119910860D03*
G04 #@! TO.N,N-000102*
X157510480Y-123469400D03*
X159029400Y-132311140D03*
G04 #@! TO.N,N-000103*
X159209740Y-153139140D03*
X161320480Y-145950940D03*
G04 #@! TO.N,N-000105*
X161848800Y-137238740D03*
X161051240Y-150098760D03*
G04 #@! TO.N,N-000106*
X152549860Y-153540460D03*
X158150560Y-145430240D03*
G04 #@! TO.N,N-000107*
X154579320Y-136250680D03*
X153410920Y-131889500D03*
X153581100Y-141579600D03*
G04 #@! TD*
D20*
G04 #@! TO.N,+12V*
X165569900Y-121330720D02*
X165569900Y-110540800D01*
X169649140Y-106461560D02*
X169649140Y-97558860D01*
X167970200Y-134650480D02*
X162029140Y-128709420D01*
X162029140Y-128709420D02*
X162029140Y-124871480D01*
X169649140Y-97558860D02*
X171378880Y-95829120D01*
X162029140Y-124871480D02*
X165569900Y-121330720D01*
X165569900Y-110540800D02*
X169649140Y-106461560D01*
G04 #@! TO.N,-12V*
X154279600Y-147568920D02*
X154279600Y-147040600D01*
X155178760Y-146359880D02*
X154531060Y-147200620D01*
X154531060Y-147200620D02*
X154051000Y-147568920D01*
X154279600Y-147599400D02*
X153040080Y-147599400D01*
X154051000Y-147568920D02*
X154279600Y-147568920D01*
X154279600Y-147599400D02*
X154279600Y-147568920D01*
X148920200Y-141681200D02*
X144272000Y-141732000D01*
X154279600Y-147040600D02*
X148920200Y-141681200D01*
X144272000Y-141732000D02*
X138630660Y-141000480D01*
D21*
G04 #@! TO.N,/I2S_LRCK*
X158259780Y-99390200D02*
X163421060Y-99390200D01*
X163421060Y-99390200D02*
X164929820Y-100898960D01*
X157899100Y-99029520D02*
X158259780Y-99390200D01*
G04 #@! TO.N,/I2S_MCLK*
X167680640Y-97840800D02*
X166989760Y-97149920D01*
X155211780Y-93649800D02*
X147728940Y-93649800D01*
X167929560Y-100119180D02*
X167680640Y-99870260D01*
X158711900Y-97149920D02*
X155211780Y-93649800D01*
X167680640Y-99870260D02*
X167680640Y-97840800D01*
X166989760Y-97149920D02*
X158711900Y-97149920D01*
G04 #@! TO.N,/I2S_SCL*
X157380940Y-102260400D02*
X155171140Y-104470200D01*
X163141660Y-102260400D02*
X157380940Y-102260400D01*
X165580060Y-104698800D02*
X163141660Y-102260400D01*
G04 #@! TO.N,/I2S_SCLK*
X146789140Y-96908620D02*
X148559520Y-98679000D01*
X147830540Y-92250260D02*
X146789140Y-93291660D01*
X154150060Y-92250260D02*
X147830540Y-92250260D01*
X154559000Y-92659200D02*
X154150060Y-92250260D01*
X146789140Y-93291660D02*
X146789140Y-96908620D01*
G04 #@! TO.N,/I2S_SDA*
X167289480Y-104190800D02*
X162687000Y-99949000D01*
X162687000Y-99949000D02*
X153700480Y-99949000D01*
G04 #@! TO.N,/I2S_SDI*
X157779720Y-97429320D02*
X155369260Y-95018860D01*
X155369260Y-95018860D02*
X148297900Y-95018860D01*
X148297900Y-95018860D02*
X148069300Y-94790260D01*
G04 #@! TO.N,/I2S_SDO*
X155849320Y-101041200D02*
X156420820Y-100469700D01*
X156420820Y-100469700D02*
X159890460Y-100469700D01*
X159890460Y-100469700D02*
X160200340Y-100779580D01*
X147020280Y-98709480D02*
X149352000Y-101041200D01*
X149352000Y-101041200D02*
X155849320Y-101041200D01*
G04 #@! TO.N,/SWCK*
X134950200Y-84490560D02*
X135018780Y-88689180D01*
X131599940Y-81140300D02*
X134950200Y-84490560D01*
G04 #@! TO.N,/SWDIO*
X142440660Y-98219260D02*
X141470380Y-98219260D01*
X141470380Y-98219260D02*
X139900660Y-96649540D01*
X143080740Y-98859340D02*
X142440660Y-98219260D01*
D20*
G04 #@! TO.N,/Sheet550B4EA0/CV1*
X124899420Y-138399520D02*
X128821180Y-138399520D01*
X128821180Y-138399520D02*
X131208780Y-135120380D01*
X131599940Y-132488940D02*
X131429760Y-129700020D01*
X131208780Y-135120380D02*
X131599940Y-132488940D01*
G04 #@! TO.N,/Sheet550B4EA0/CV2*
X164769800Y-138399520D02*
X162039300Y-135669020D01*
X168099740Y-138399520D02*
X164769800Y-138399520D01*
G04 #@! TO.N,/Sheet550B4EA0/REF-10*
X172499020Y-105841800D02*
X166911020Y-111429800D01*
X142567660Y-85481160D02*
X143918940Y-85481160D01*
X146359880Y-83040220D02*
X143918940Y-85481160D01*
X163817300Y-94780100D02*
X163817300Y-93563440D01*
X163817300Y-94780100D02*
X163398200Y-94780100D01*
X170380660Y-93040200D02*
X172499020Y-95158560D01*
X164340540Y-93040200D02*
X170380660Y-93040200D01*
X163398200Y-94780100D02*
X160380680Y-91762580D01*
X124719080Y-94442280D02*
X128981200Y-90180160D01*
X128981200Y-90180160D02*
X137868660Y-90180160D01*
X160380680Y-91762580D02*
X151709120Y-83091020D01*
X146748500Y-83040220D02*
X146359880Y-83040220D01*
X172499020Y-95158560D02*
X172499020Y-105841800D01*
X137868660Y-90180160D02*
X142567660Y-85481160D01*
X146799300Y-83091020D02*
X146748500Y-83040220D01*
X166911020Y-122687080D02*
X163817300Y-125780800D01*
X166911020Y-111429800D02*
X166911020Y-122687080D01*
X163817300Y-93563440D02*
X164340540Y-93040200D01*
X124719080Y-94780100D02*
X124719080Y-94442280D01*
X151709120Y-83091020D02*
X146799300Y-83091020D01*
G04 #@! TO.N,ADC0*
X152400000Y-114741960D02*
X152400000Y-113281460D01*
X152151080Y-114990880D02*
X152400000Y-114741960D01*
X152400000Y-113281460D02*
X150037800Y-110919260D01*
X150037800Y-110919260D02*
X148229320Y-110919260D01*
X142158720Y-124759720D02*
X142158720Y-123898660D01*
X142158720Y-123898660D02*
X141960600Y-123139200D01*
X151409400Y-120898920D02*
X147728940Y-125369320D01*
X147728940Y-125369320D02*
X142768320Y-125369320D01*
X142768320Y-125369320D02*
X142158720Y-124759720D01*
G04 #@! TO.N,ADC2*
X140329920Y-129788920D02*
X140741400Y-130200400D01*
X135049260Y-131518660D02*
X136779000Y-129788920D01*
X157939740Y-116840000D02*
X157939740Y-110589060D01*
X156928820Y-107889040D02*
X150540720Y-107889040D01*
X135049260Y-143949420D02*
X135049260Y-131518660D01*
X136779000Y-129788920D02*
X140329920Y-129788920D01*
X148539200Y-126240540D02*
X157939740Y-116840000D01*
X140741400Y-130200400D02*
X143078200Y-130200400D01*
X147038060Y-126240540D02*
X148539200Y-126240540D01*
X143078200Y-130200400D02*
X147038060Y-126240540D01*
X134419340Y-144579340D02*
X135049260Y-143949420D01*
G04 #@! TO.N,ADC3*
X151798020Y-128930400D02*
X152029160Y-128699260D01*
X146880580Y-133540500D02*
X147180300Y-133540500D01*
X151790400Y-128930400D02*
X151798020Y-128930400D01*
X139169140Y-145120360D02*
X137119360Y-143070580D01*
X137119360Y-143070580D02*
X137119360Y-140970000D01*
X153499820Y-114668300D02*
X153499820Y-110759240D01*
X139169140Y-146939000D02*
X139169140Y-145120360D01*
X152019000Y-124211080D02*
X152029160Y-124203460D01*
X146880580Y-133540500D02*
X147060920Y-133540500D01*
X152029160Y-124211080D02*
X152029160Y-124203460D01*
X147180300Y-133540500D02*
X151790400Y-128930400D01*
X138988800Y-147119340D02*
X139169140Y-146939000D01*
X140428980Y-137660380D02*
X141198600Y-137660380D01*
X152029160Y-124203460D02*
X154500580Y-122260360D01*
X153499820Y-110759240D02*
X152250140Y-109509560D01*
X137119360Y-140970000D02*
X140428980Y-137660380D01*
X141198600Y-137660380D02*
X145318480Y-133540500D01*
X145318480Y-133540500D02*
X146880580Y-133540500D01*
X153890980Y-115059460D02*
X153499820Y-114668300D01*
X152029160Y-128699260D02*
X152029160Y-124211080D01*
X137119360Y-143070580D02*
X137259060Y-143210280D01*
G04 #@! TO.N,ADC4*
X156570680Y-110390940D02*
X158930340Y-108031280D01*
X159758380Y-105448100D02*
X154269440Y-105448100D01*
X160350200Y-106890820D02*
X160350200Y-106039920D01*
X138750040Y-125849380D02*
X138750040Y-124289820D01*
X154269440Y-105448100D02*
X154030680Y-105209340D01*
D21*
X158930340Y-108031280D02*
X158981140Y-107980480D01*
D20*
X142669260Y-120370600D02*
X150108920Y-120370600D01*
X132829300Y-130479800D02*
X138750040Y-125849380D01*
X160350200Y-106039920D02*
X159758380Y-105448100D01*
X156570680Y-113908840D02*
X156570680Y-110390940D01*
X138750040Y-124289820D02*
X142669260Y-120370600D01*
X159209740Y-108031280D02*
X160350200Y-106890820D01*
X150108920Y-120370600D02*
X156570680Y-113908840D01*
X132100320Y-135059420D02*
X132829300Y-130479800D01*
X158930340Y-108031280D02*
X159209740Y-108031280D01*
X131538980Y-136400540D02*
X132100320Y-135059420D01*
G04 #@! TO.N,AVDD*
X138341100Y-110289340D02*
X145869660Y-110289340D01*
X137660380Y-109608620D02*
X138341100Y-110289340D01*
X159090360Y-106949240D02*
X149628860Y-106949240D01*
X159329120Y-106601260D02*
X159090360Y-106949240D01*
X142120620Y-88790780D02*
X138760200Y-92049600D01*
X137660380Y-107970320D02*
X137660380Y-109608620D01*
X145869660Y-110289340D02*
X147180300Y-110289340D01*
X138760200Y-92049600D02*
X138760200Y-106870500D01*
X147769580Y-108331000D02*
X148617940Y-108099860D01*
X148617940Y-108099860D02*
X149628860Y-107088940D01*
X145869660Y-110289340D02*
X145869660Y-109880400D01*
X149628860Y-107088940D02*
X149628860Y-106949240D01*
X145869660Y-109880400D02*
X147769580Y-108331000D01*
X138760200Y-106870500D02*
X137660380Y-107970320D01*
X149628860Y-106949240D02*
X148480780Y-106949240D01*
D21*
G04 #@! TO.N,GND*
X173619160Y-96619060D02*
X173619160Y-96669860D01*
X153499820Y-90530680D02*
X153449020Y-90530680D01*
X168671240Y-111859060D02*
X168671240Y-111899700D01*
X141259560Y-143278860D02*
X141208760Y-143278860D01*
D20*
X161620200Y-95481140D02*
X161620200Y-95470980D01*
X168816020Y-94780100D02*
X168816020Y-95003620D01*
X148767800Y-85481160D02*
X144228820Y-90020140D01*
X151630380Y-85481160D02*
X148917660Y-85481160D01*
X162608260Y-96459040D02*
X161620200Y-95470980D01*
X161620200Y-95470980D02*
X151630380Y-85481160D01*
X167360600Y-96459040D02*
X162608260Y-96459040D01*
X168816020Y-95003620D02*
X167360600Y-96459040D01*
X121960640Y-139151360D02*
X126098300Y-143289020D01*
X148917660Y-85481160D02*
X148767800Y-85481160D01*
X121960640Y-136969500D02*
X121960640Y-139151360D01*
X133220460Y-73741280D02*
X133731000Y-73230740D01*
X164419280Y-149730460D02*
X166870380Y-149730460D01*
X140589000Y-108229400D02*
X141627860Y-107190540D01*
X172298360Y-152908000D02*
X169410380Y-150020020D01*
X129098040Y-133499860D02*
X125430280Y-133499860D01*
X161470340Y-152679400D02*
X164419280Y-149730460D01*
X144211040Y-107190540D02*
X145999200Y-107190540D01*
X141627860Y-107190540D02*
X144211040Y-107190540D01*
X143050260Y-152610820D02*
X143588740Y-152072340D01*
X143588740Y-152072340D02*
X143588740Y-146410680D01*
X169410380Y-150020020D02*
X169410380Y-149730460D01*
X144211040Y-106949240D02*
X144211040Y-107190540D01*
X172298360Y-159301180D02*
X172298360Y-152908000D01*
X125430280Y-133499860D02*
X121960640Y-136969500D01*
X126098300Y-143289020D02*
X129260600Y-143449040D01*
X133220460Y-78600300D02*
X133220460Y-73741280D01*
G04 #@! TO.N,LINEINL*
X160629600Y-108000800D02*
X161030920Y-107109260D01*
X161030920Y-107109260D02*
X166270940Y-107109260D01*
X166270940Y-107109260D02*
X167871140Y-105509060D01*
G04 #@! TO.N,N-000070*
X166870380Y-152270460D02*
X169410380Y-152270460D01*
G04 #@! TO.N,N-000078*
X156519880Y-157020260D02*
X158191200Y-155348940D01*
X160550860Y-124388880D02*
X163649660Y-121290080D01*
X159740600Y-144940020D02*
X159740600Y-133431280D01*
X159740600Y-133431280D02*
X160550860Y-132621020D01*
X163649660Y-121290080D02*
X163649660Y-117619780D01*
X161599880Y-115570000D02*
X159839660Y-115570000D01*
X135790940Y-152699720D02*
X134980680Y-151889460D01*
X158191200Y-155348940D02*
X158269940Y-151559260D01*
X158269940Y-151559260D02*
X159740600Y-144940020D01*
X160550860Y-132621020D02*
X160550860Y-124388880D01*
X134980680Y-151889460D02*
X132969000Y-151889460D01*
X163649660Y-117619780D02*
X161599880Y-115570000D01*
G04 #@! TO.N,N-000082*
X161089340Y-133451600D02*
X161089340Y-136319260D01*
X162311080Y-130840480D02*
X161089340Y-133451600D01*
G04 #@! TO.N,N-000091*
X168869360Y-105780840D02*
X166301420Y-108348780D01*
X166301420Y-108348780D02*
X162062160Y-108348780D01*
X166649400Y-98181160D02*
X167081200Y-101869240D01*
X168762680Y-104843580D02*
X168869360Y-104950260D01*
X167081200Y-101869240D02*
X168762680Y-103550720D01*
X168869360Y-104950260D02*
X168869360Y-105780840D01*
X162062160Y-108348780D02*
X160680400Y-109730540D01*
X160680400Y-109730540D02*
X160268920Y-113741200D01*
X168762680Y-103550720D02*
X168762680Y-104843580D01*
G04 #@! TO.N,N-000093*
X137259060Y-130959860D02*
X136128760Y-132090160D01*
X135547100Y-147370800D02*
X137619740Y-149900640D01*
X142941040Y-89499440D02*
X142941040Y-89230200D01*
X142941040Y-89230200D02*
X143730980Y-88440260D01*
X138859260Y-107970320D02*
X138859260Y-109080300D01*
X142941040Y-89499440D02*
X142941040Y-90970100D01*
X145740120Y-93769180D02*
X145740120Y-101089460D01*
X142941040Y-89468960D02*
X142941040Y-89499440D01*
X136128760Y-132090160D02*
X136128760Y-142976600D01*
X136128760Y-142976600D02*
X135547100Y-147370800D01*
X145740120Y-101089460D02*
X138859260Y-107970320D01*
X142941040Y-90970100D02*
X145740120Y-93769180D01*
G04 #@! TO.N,N-000095*
X156077920Y-147050760D02*
X156077920Y-132697220D01*
X156077920Y-132697220D02*
X155239720Y-131859020D01*
X155199080Y-147929600D02*
X156077920Y-147050760D01*
X156390340Y-119888000D02*
X158950660Y-117327680D01*
X156441140Y-126669800D02*
X156390340Y-126619000D01*
X156390340Y-126619000D02*
X156390340Y-119888000D01*
X158950660Y-117327680D02*
X158950660Y-116509800D01*
G04 #@! TO.N,N-000096*
X129070100Y-123929140D02*
X127218440Y-125780800D01*
X136751060Y-123929140D02*
X129070100Y-123929140D01*
X140769340Y-119910860D02*
X136751060Y-123929140D01*
G04 #@! TO.N,N-000101*
X153949400Y-158899860D02*
X149451060Y-154401520D01*
X149451060Y-154401520D02*
X146100800Y-154401520D01*
X153949400Y-160980120D02*
X153949400Y-158899860D01*
G04 #@! TO.N,N-000102*
X157510480Y-130792220D02*
X157510480Y-123469400D01*
X159029400Y-132311140D02*
X157510480Y-130792220D01*
G04 #@! TO.N,N-000103*
X160439100Y-148668740D02*
X159209740Y-153139140D01*
X161320480Y-145950940D02*
X160439100Y-148668740D01*
G04 #@! TO.N,N-000105*
X161851340Y-150098760D02*
X161051240Y-150098760D01*
X162941000Y-149009100D02*
X161851340Y-150098760D01*
X162941000Y-138330940D02*
X162941000Y-149009100D01*
X161848800Y-137238740D02*
X162941000Y-138330940D01*
G04 #@! TO.N,N-000106*
X158079440Y-147558760D02*
X157429200Y-150909020D01*
X157429200Y-150909020D02*
X152549860Y-153540460D01*
X158150560Y-145430240D02*
X158079440Y-147558760D01*
G04 #@! TO.N,N-000107*
X153489660Y-136458960D02*
X153410920Y-136458960D01*
X154371040Y-136458960D02*
X153489660Y-136458960D01*
X154579320Y-136250680D02*
X154371040Y-136458960D01*
X153410920Y-141409420D02*
X153410920Y-136458960D01*
X153410920Y-136458960D02*
X153410920Y-131889500D01*
X153581100Y-141579600D02*
X153410920Y-141409420D01*
G04 #@! TD*
D22*
G04 #@! TO.N,GND*
G36*
X159395160Y-101500940D02*
X157380940Y-101500940D01*
X157137100Y-101549200D01*
X157088840Y-101559360D01*
X156842460Y-101724460D01*
X155176220Y-103390700D01*
X154957780Y-103390700D01*
X154561540Y-103553260D01*
X154256740Y-103858060D01*
X154142440Y-104129840D01*
X153817320Y-104129840D01*
X153421080Y-104292400D01*
X153116280Y-104597200D01*
X152951180Y-104993440D01*
X152951180Y-105422700D01*
X153113740Y-105818940D01*
X153360120Y-106065320D01*
X149628860Y-106065320D01*
X149123400Y-106065320D01*
X149092920Y-106034840D01*
X148696680Y-105869740D01*
X148267420Y-105869740D01*
X147871180Y-106032300D01*
X147566380Y-106337100D01*
X147401280Y-106733340D01*
X147401280Y-107162600D01*
X147457160Y-107302300D01*
X147457160Y-107304840D01*
X147330160Y-107330240D01*
X147060920Y-107510580D01*
X145280380Y-109291120D01*
X145201640Y-109405420D01*
X139893040Y-109405420D01*
X139938760Y-109296200D01*
X139938760Y-108866940D01*
X139776200Y-108470700D01*
X139743180Y-108437680D01*
X139743180Y-108336080D01*
X146364960Y-101714300D01*
X146558000Y-101429820D01*
X146558000Y-101427280D01*
X146624040Y-101089460D01*
X146624040Y-99712780D01*
X146804380Y-99788980D01*
X147025360Y-99788980D01*
X148813520Y-101577140D01*
X148816060Y-101577140D01*
X149059900Y-101742240D01*
X149062440Y-101742240D01*
X149108160Y-101749860D01*
X149352000Y-101800660D01*
X155849320Y-101800660D01*
X155849320Y-101798120D01*
X156090620Y-101749860D01*
X156138880Y-101742240D01*
X156141420Y-101742240D01*
X156385260Y-101577140D01*
X156733240Y-101229160D01*
X159217360Y-101229160D01*
X159283400Y-101389180D01*
X159395160Y-101500940D01*
X159395160Y-101500940D01*
G37*
X159395160Y-101500940D02*
X157380940Y-101500940D01*
X157137100Y-101549200D01*
X157088840Y-101559360D01*
X156842460Y-101724460D01*
X155176220Y-103390700D01*
X154957780Y-103390700D01*
X154561540Y-103553260D01*
X154256740Y-103858060D01*
X154142440Y-104129840D01*
X153817320Y-104129840D01*
X153421080Y-104292400D01*
X153116280Y-104597200D01*
X152951180Y-104993440D01*
X152951180Y-105422700D01*
X153113740Y-105818940D01*
X153360120Y-106065320D01*
X149628860Y-106065320D01*
X149123400Y-106065320D01*
X149092920Y-106034840D01*
X148696680Y-105869740D01*
X148267420Y-105869740D01*
X147871180Y-106032300D01*
X147566380Y-106337100D01*
X147401280Y-106733340D01*
X147401280Y-107162600D01*
X147457160Y-107302300D01*
X147457160Y-107304840D01*
X147330160Y-107330240D01*
X147060920Y-107510580D01*
X145280380Y-109291120D01*
X145201640Y-109405420D01*
X139893040Y-109405420D01*
X139938760Y-109296200D01*
X139938760Y-108866940D01*
X139776200Y-108470700D01*
X139743180Y-108437680D01*
X139743180Y-108336080D01*
X146364960Y-101714300D01*
X146558000Y-101429820D01*
X146558000Y-101427280D01*
X146624040Y-101089460D01*
X146624040Y-99712780D01*
X146804380Y-99788980D01*
X147025360Y-99788980D01*
X148813520Y-101577140D01*
X148816060Y-101577140D01*
X149059900Y-101742240D01*
X149062440Y-101742240D01*
X149108160Y-101749860D01*
X149352000Y-101800660D01*
X155849320Y-101800660D01*
X155849320Y-101798120D01*
X156090620Y-101749860D01*
X156138880Y-101742240D01*
X156141420Y-101742240D01*
X156385260Y-101577140D01*
X156733240Y-101229160D01*
X159217360Y-101229160D01*
X159283400Y-101389180D01*
X159395160Y-101500940D01*
G36*
X170934380Y-94843600D02*
X170769280Y-94912180D01*
X170464480Y-95216980D01*
X170421300Y-95318580D01*
X170421300Y-95163640D01*
X170301920Y-94907100D01*
X168943020Y-94907100D01*
X168943020Y-96288860D01*
X169202100Y-96405700D01*
X169793920Y-96133920D01*
X170238420Y-95656400D01*
X170421300Y-95163640D01*
X170421300Y-95318580D01*
X170299380Y-95613220D01*
X170299380Y-95658940D01*
X169024300Y-96934020D01*
X168831260Y-97218500D01*
X168765220Y-97558860D01*
X168765220Y-99428300D01*
X168541700Y-99204780D01*
X168440100Y-99161600D01*
X168440100Y-97840800D01*
X168381680Y-97551240D01*
X168379140Y-97548700D01*
X168323260Y-97467420D01*
X168216580Y-97304860D01*
X168216580Y-97302320D01*
X167525700Y-96613980D01*
X167281860Y-96448880D01*
X167231060Y-96438720D01*
X166989760Y-96390460D01*
X166690040Y-96390460D01*
X167264080Y-96154240D01*
X167568880Y-95846900D01*
X167838120Y-96133920D01*
X168429940Y-96405700D01*
X168689020Y-96288860D01*
X168689020Y-95034100D01*
X168689020Y-94907100D01*
X168689020Y-94653100D01*
X168943020Y-94653100D01*
X169070020Y-94653100D01*
X170301920Y-94653100D01*
X170421300Y-94396560D01*
X170380660Y-94289880D01*
X170934380Y-94843600D01*
X170934380Y-94843600D01*
G37*
X170934380Y-94843600D02*
X170769280Y-94912180D01*
X170464480Y-95216980D01*
X170421300Y-95318580D01*
X170421300Y-95163640D01*
X170301920Y-94907100D01*
X168943020Y-94907100D01*
X168943020Y-96288860D01*
X169202100Y-96405700D01*
X169793920Y-96133920D01*
X170238420Y-95656400D01*
X170421300Y-95163640D01*
X170421300Y-95318580D01*
X170299380Y-95613220D01*
X170299380Y-95658940D01*
X169024300Y-96934020D01*
X168831260Y-97218500D01*
X168765220Y-97558860D01*
X168765220Y-99428300D01*
X168541700Y-99204780D01*
X168440100Y-99161600D01*
X168440100Y-97840800D01*
X168381680Y-97551240D01*
X168379140Y-97548700D01*
X168323260Y-97467420D01*
X168216580Y-97304860D01*
X168216580Y-97302320D01*
X167525700Y-96613980D01*
X167281860Y-96448880D01*
X167231060Y-96438720D01*
X166989760Y-96390460D01*
X166690040Y-96390460D01*
X167264080Y-96154240D01*
X167568880Y-95846900D01*
X167838120Y-96133920D01*
X168429940Y-96405700D01*
X168689020Y-96288860D01*
X168689020Y-95034100D01*
X168689020Y-94907100D01*
X168689020Y-94653100D01*
X168943020Y-94653100D01*
X169070020Y-94653100D01*
X170301920Y-94653100D01*
X170421300Y-94396560D01*
X170380660Y-94289880D01*
X170934380Y-94843600D01*
G36*
X173865540Y-166314120D02*
X172171360Y-166314120D01*
X172171360Y-161648140D01*
X172171360Y-159428180D01*
X172171360Y-159174180D01*
X172171360Y-156954220D01*
X172171360Y-135846820D01*
X172171360Y-133626860D01*
X172171360Y-133372860D01*
X172171360Y-131152900D01*
X171780200Y-131046220D01*
X170919140Y-131386580D01*
X170215560Y-132074920D01*
X169829480Y-132979160D01*
X169936160Y-133372860D01*
X172171360Y-133372860D01*
X172171360Y-133626860D01*
X169936160Y-133626860D01*
X169829480Y-134020560D01*
X170215560Y-134924800D01*
X170919140Y-135613140D01*
X171780200Y-135953500D01*
X172171360Y-135846820D01*
X172171360Y-156954220D01*
X171780200Y-156847540D01*
X170919140Y-157187900D01*
X170804840Y-157299660D01*
X170804840Y-152547320D01*
X170804840Y-151993600D01*
X170789600Y-151955500D01*
X170789600Y-149931120D01*
X170789600Y-147391120D01*
X170789600Y-144851120D01*
X170761660Y-144310100D01*
X170609260Y-143936720D01*
X170370500Y-143868140D01*
X169590720Y-144650460D01*
X170370500Y-145432780D01*
X170609260Y-145364200D01*
X170789600Y-144851120D01*
X170789600Y-147391120D01*
X170761660Y-146850100D01*
X170609260Y-146476720D01*
X170370500Y-146408140D01*
X170192700Y-146585940D01*
X170192700Y-146230340D01*
X170124120Y-145991580D01*
X169936160Y-145925540D01*
X170124120Y-145849340D01*
X170192700Y-145610580D01*
X169410380Y-144830800D01*
X169230040Y-145008600D01*
X169230040Y-144650460D01*
X168450260Y-143868140D01*
X168211500Y-143936720D01*
X168145460Y-144122140D01*
X168069260Y-143936720D01*
X167830500Y-143868140D01*
X167050720Y-144650460D01*
X167830500Y-145432780D01*
X168069260Y-145364200D01*
X168132760Y-145176240D01*
X168211500Y-145364200D01*
X168450260Y-145432780D01*
X169230040Y-144650460D01*
X169230040Y-145008600D01*
X168628060Y-145610580D01*
X168696640Y-145849340D01*
X168882060Y-145912840D01*
X168696640Y-145991580D01*
X168628060Y-146230340D01*
X169410380Y-147010120D01*
X170192700Y-146230340D01*
X170192700Y-146585940D01*
X169590720Y-147190460D01*
X170370500Y-147972780D01*
X170609260Y-147904200D01*
X170789600Y-147391120D01*
X170789600Y-149931120D01*
X170761660Y-149390100D01*
X170609260Y-149016720D01*
X170370500Y-148948140D01*
X170192700Y-149125940D01*
X170192700Y-148770340D01*
X170124120Y-148531580D01*
X169936160Y-148465540D01*
X170124120Y-148389340D01*
X170192700Y-148150580D01*
X169410380Y-147370800D01*
X169230040Y-147548600D01*
X169230040Y-147190460D01*
X168450260Y-146408140D01*
X168211500Y-146476720D01*
X168145460Y-146662140D01*
X168069260Y-146476720D01*
X167830500Y-146408140D01*
X167652700Y-146585940D01*
X167652700Y-146230340D01*
X167584120Y-145991580D01*
X167396160Y-145925540D01*
X167584120Y-145849340D01*
X167652700Y-145610580D01*
X166870380Y-144830800D01*
X166690040Y-145008600D01*
X166690040Y-144650460D01*
X165910260Y-143868140D01*
X165671500Y-143936720D01*
X165491160Y-144449800D01*
X165519100Y-144990820D01*
X165671500Y-145364200D01*
X165910260Y-145432780D01*
X166690040Y-144650460D01*
X166690040Y-145008600D01*
X166088060Y-145610580D01*
X166156640Y-145849340D01*
X166342060Y-145912840D01*
X166156640Y-145991580D01*
X166088060Y-146230340D01*
X166870380Y-147010120D01*
X167652700Y-146230340D01*
X167652700Y-146585940D01*
X167050720Y-147190460D01*
X167830500Y-147972780D01*
X168069260Y-147904200D01*
X168132760Y-147716240D01*
X168211500Y-147904200D01*
X168450260Y-147972780D01*
X169230040Y-147190460D01*
X169230040Y-147548600D01*
X168628060Y-148150580D01*
X168696640Y-148389340D01*
X168882060Y-148452840D01*
X168696640Y-148531580D01*
X168628060Y-148770340D01*
X169410380Y-149550120D01*
X170192700Y-148770340D01*
X170192700Y-149125940D01*
X169590720Y-149730460D01*
X170370500Y-150512780D01*
X170609260Y-150444200D01*
X170789600Y-149931120D01*
X170789600Y-151955500D01*
X170591480Y-151480520D01*
X170200320Y-151089360D01*
X169966640Y-150992840D01*
X170124120Y-150929340D01*
X170192700Y-150690580D01*
X169410380Y-149910800D01*
X169230040Y-150088600D01*
X169230040Y-149730460D01*
X168450260Y-148948140D01*
X168211500Y-149016720D01*
X168145460Y-149202140D01*
X168069260Y-149016720D01*
X167830500Y-148948140D01*
X167652700Y-149125940D01*
X167652700Y-148770340D01*
X167584120Y-148531580D01*
X167396160Y-148465540D01*
X167584120Y-148389340D01*
X167652700Y-148150580D01*
X166870380Y-147370800D01*
X166690040Y-147548600D01*
X166690040Y-147190460D01*
X165910260Y-146408140D01*
X165671500Y-146476720D01*
X165491160Y-146989800D01*
X165519100Y-147530820D01*
X165671500Y-147904200D01*
X165910260Y-147972780D01*
X166690040Y-147190460D01*
X166690040Y-147548600D01*
X166088060Y-148150580D01*
X166156640Y-148389340D01*
X166342060Y-148452840D01*
X166156640Y-148531580D01*
X166088060Y-148770340D01*
X166870380Y-149550120D01*
X167652700Y-148770340D01*
X167652700Y-149125940D01*
X167050720Y-149730460D01*
X167830500Y-150512780D01*
X168069260Y-150444200D01*
X168132760Y-150256240D01*
X168211500Y-150444200D01*
X168450260Y-150512780D01*
X169230040Y-149730460D01*
X169230040Y-150088600D01*
X168628060Y-150690580D01*
X168696640Y-150929340D01*
X168861740Y-150987760D01*
X168620440Y-151089360D01*
X168323260Y-151386540D01*
X167957500Y-151386540D01*
X167660320Y-151089360D01*
X167426640Y-150992840D01*
X167584120Y-150929340D01*
X167652700Y-150690580D01*
X166870380Y-149910800D01*
X166690040Y-150088600D01*
X166690040Y-149730460D01*
X165910260Y-148948140D01*
X165671500Y-149016720D01*
X165491160Y-149529800D01*
X165519100Y-150070820D01*
X165671500Y-150444200D01*
X165910260Y-150512780D01*
X166690040Y-149730460D01*
X166690040Y-150088600D01*
X166088060Y-150690580D01*
X166156640Y-150929340D01*
X166321740Y-150987760D01*
X166080440Y-151089360D01*
X165689280Y-151480520D01*
X165475920Y-151993600D01*
X165475920Y-152547320D01*
X165689280Y-153060400D01*
X166080440Y-153451560D01*
X166593520Y-153664920D01*
X167147240Y-153664920D01*
X167660320Y-153451560D01*
X167957500Y-153154380D01*
X168323260Y-153154380D01*
X168620440Y-153451560D01*
X169133520Y-153664920D01*
X169687240Y-153664920D01*
X170200320Y-153451560D01*
X170591480Y-153060400D01*
X170804840Y-152547320D01*
X170804840Y-157299660D01*
X170561000Y-157535880D01*
X170561000Y-156540200D01*
X170561000Y-155562300D01*
X170561000Y-155465780D01*
X170187620Y-154561540D01*
X169494200Y-153868120D01*
X168589960Y-153492200D01*
X167612060Y-153492200D01*
X166707820Y-153865580D01*
X166014400Y-154559000D01*
X165638480Y-155463240D01*
X165638480Y-156441140D01*
X165638480Y-156537660D01*
X166011860Y-157441900D01*
X166705280Y-158135320D01*
X167609520Y-158511240D01*
X168587420Y-158511240D01*
X169491660Y-158137860D01*
X170185080Y-157444440D01*
X170561000Y-156540200D01*
X170561000Y-157535880D01*
X170215560Y-157876240D01*
X169829480Y-158780480D01*
X169936160Y-159174180D01*
X172171360Y-159174180D01*
X172171360Y-159428180D01*
X169936160Y-159428180D01*
X169829480Y-159821880D01*
X170215560Y-160726120D01*
X170919140Y-161414460D01*
X171780200Y-161754820D01*
X172171360Y-161648140D01*
X172171360Y-166314120D01*
X169514520Y-166314120D01*
X170185080Y-165643560D01*
X170561000Y-164739320D01*
X170561000Y-163761420D01*
X170561000Y-163664900D01*
X170187620Y-162760660D01*
X169494200Y-162067240D01*
X168589960Y-161691320D01*
X167612060Y-161691320D01*
X166707820Y-162064700D01*
X166014400Y-162758120D01*
X165638480Y-163662360D01*
X165638480Y-164640260D01*
X165638480Y-164736780D01*
X166011860Y-165641020D01*
X166684960Y-166314120D01*
X165625780Y-166314120D01*
X165625780Y-159679640D01*
X165625780Y-158993840D01*
X165625780Y-158927800D01*
X165364160Y-158292800D01*
X164879020Y-157807660D01*
X164246560Y-157543500D01*
X163560760Y-157543500D01*
X162925760Y-157805120D01*
X162440620Y-158290260D01*
X162176460Y-158922720D01*
X162176460Y-159608520D01*
X162176460Y-159674560D01*
X162438080Y-160309560D01*
X162923220Y-160794700D01*
X163555680Y-161058860D01*
X164241480Y-161058860D01*
X164876480Y-160797240D01*
X165361620Y-160312100D01*
X165625780Y-159679640D01*
X165625780Y-166314120D01*
X155280360Y-166314120D01*
X155280360Y-161805620D01*
X155280360Y-161554160D01*
X155280360Y-160157160D01*
X155183840Y-159923480D01*
X155006040Y-159745680D01*
X154833320Y-159672020D01*
X154833320Y-158899860D01*
X154767280Y-158562040D01*
X154764740Y-158559500D01*
X154574240Y-158275020D01*
X150075900Y-153776680D01*
X149791420Y-153583640D01*
X149451060Y-153517600D01*
X148417280Y-153517600D01*
X148188680Y-152961340D01*
X147495260Y-152267920D01*
X146591020Y-151892000D01*
X145613120Y-151892000D01*
X144708880Y-152265380D01*
X144015460Y-152958800D01*
X143639540Y-153863040D01*
X143639540Y-154840940D01*
X143639540Y-154937460D01*
X144012920Y-155841700D01*
X144706340Y-156535120D01*
X145610580Y-156911040D01*
X146588480Y-156911040D01*
X147492720Y-156537660D01*
X148186140Y-155844240D01*
X148417280Y-155285440D01*
X149085300Y-155285440D01*
X153065480Y-159265620D01*
X153065480Y-159672020D01*
X152892760Y-159745680D01*
X152714960Y-159923480D01*
X152618440Y-160154620D01*
X152618440Y-160406080D01*
X152618440Y-161803080D01*
X152714960Y-162036760D01*
X152892760Y-162214560D01*
X153123900Y-162311080D01*
X153375360Y-162311080D01*
X154772360Y-162311080D01*
X155006040Y-162214560D01*
X155183840Y-162036760D01*
X155280360Y-161805620D01*
X155280360Y-166314120D01*
X152024080Y-166314120D01*
X152024080Y-159679640D01*
X152024080Y-158993840D01*
X152024080Y-158927800D01*
X151762460Y-158292800D01*
X151277320Y-157807660D01*
X150644860Y-157543500D01*
X149959060Y-157543500D01*
X149324060Y-157805120D01*
X148838920Y-158290260D01*
X148574760Y-158922720D01*
X148574760Y-159608520D01*
X148574760Y-159674560D01*
X148836380Y-160309560D01*
X149321520Y-160794700D01*
X149953980Y-161058860D01*
X150639780Y-161058860D01*
X151274780Y-160797240D01*
X151759920Y-160312100D01*
X152024080Y-159679640D01*
X152024080Y-166314120D01*
X148562060Y-166314120D01*
X148562060Y-163139120D01*
X148562060Y-162161220D01*
X148562060Y-162064700D01*
X148188680Y-161160460D01*
X147495260Y-160467040D01*
X146591020Y-160091120D01*
X145613120Y-160091120D01*
X144708880Y-160464500D01*
X144371060Y-160802320D01*
X144371060Y-159821880D01*
X144371060Y-158780480D01*
X143984980Y-157876240D01*
X143281400Y-157187900D01*
X142420340Y-156847540D01*
X142029180Y-156954220D01*
X142029180Y-159174180D01*
X144264380Y-159174180D01*
X144371060Y-158780480D01*
X144371060Y-159821880D01*
X144264380Y-159428180D01*
X142029180Y-159428180D01*
X142029180Y-161648140D01*
X142420340Y-161754820D01*
X143281400Y-161414460D01*
X143984980Y-160726120D01*
X144371060Y-159821880D01*
X144371060Y-160802320D01*
X144015460Y-161157920D01*
X143639540Y-162062160D01*
X143639540Y-163040060D01*
X143639540Y-163136580D01*
X144012920Y-164040820D01*
X144706340Y-164734240D01*
X145610580Y-165110160D01*
X146588480Y-165110160D01*
X147492720Y-164736780D01*
X148186140Y-164043360D01*
X148562060Y-163139120D01*
X148562060Y-166314120D01*
X141775180Y-166314120D01*
X141775180Y-161648140D01*
X141775180Y-159428180D01*
X141775180Y-159174180D01*
X141775180Y-156954220D01*
X141384020Y-156847540D01*
X140522960Y-157187900D01*
X139819380Y-157876240D01*
X139433300Y-158780480D01*
X139539980Y-159174180D01*
X141775180Y-159174180D01*
X141775180Y-159428180D01*
X139539980Y-159428180D01*
X139433300Y-159821880D01*
X139819380Y-160726120D01*
X140522960Y-161414460D01*
X141384020Y-161754820D01*
X141775180Y-161648140D01*
X141775180Y-166314120D01*
X136870440Y-166314120D01*
X136870440Y-152915620D01*
X136870440Y-152486360D01*
X136707880Y-152090120D01*
X136403080Y-151785320D01*
X136006840Y-151620220D01*
X135961120Y-151620220D01*
X135605520Y-151264620D01*
X135321040Y-151071580D01*
X134980680Y-151005540D01*
X133611620Y-151005540D01*
X133581140Y-150975060D01*
X133184900Y-150809960D01*
X132755640Y-150809960D01*
X132359400Y-150972520D01*
X132054600Y-151277320D01*
X131889500Y-151673560D01*
X131889500Y-152102820D01*
X132052060Y-152499060D01*
X132356860Y-152803860D01*
X132753100Y-152968960D01*
X133182360Y-152968960D01*
X133578600Y-152806400D01*
X133611620Y-152773380D01*
X134614920Y-152773380D01*
X134711440Y-152869900D01*
X134711440Y-152913080D01*
X134874000Y-153309320D01*
X135178800Y-153614120D01*
X135575040Y-153779220D01*
X136004300Y-153779220D01*
X136400540Y-153616660D01*
X136705340Y-153311860D01*
X136870440Y-152915620D01*
X136870440Y-166314120D01*
X131566920Y-166314120D01*
X131566920Y-159821880D01*
X131566920Y-158780480D01*
X131180840Y-157876240D01*
X130477260Y-157187900D01*
X129616200Y-156847540D01*
X129225040Y-156954220D01*
X129225040Y-159174180D01*
X131460240Y-159174180D01*
X131566920Y-158780480D01*
X131566920Y-159821880D01*
X131460240Y-159428180D01*
X129225040Y-159428180D01*
X129225040Y-161648140D01*
X129616200Y-161754820D01*
X130477260Y-161414460D01*
X131180840Y-160726120D01*
X131566920Y-159821880D01*
X131566920Y-166314120D01*
X128971040Y-166314120D01*
X128971040Y-161648140D01*
X128971040Y-159428180D01*
X128971040Y-159174180D01*
X128971040Y-156954220D01*
X128579880Y-156847540D01*
X127718820Y-157187900D01*
X127360680Y-157535880D01*
X127360680Y-156540200D01*
X127360680Y-155562300D01*
X127360680Y-155465780D01*
X126987300Y-154561540D01*
X126293880Y-153868120D01*
X125389640Y-153492200D01*
X124411740Y-153492200D01*
X123507500Y-153865580D01*
X122814080Y-154559000D01*
X122438160Y-155463240D01*
X122438160Y-156441140D01*
X122438160Y-156537660D01*
X122811540Y-157441900D01*
X123504960Y-158135320D01*
X124409200Y-158511240D01*
X125387100Y-158511240D01*
X126291340Y-158137860D01*
X126984760Y-157444440D01*
X127360680Y-156540200D01*
X127360680Y-157535880D01*
X127015240Y-157876240D01*
X126629160Y-158780480D01*
X126735840Y-159174180D01*
X128971040Y-159174180D01*
X128971040Y-159428180D01*
X126735840Y-159428180D01*
X126629160Y-159821880D01*
X127015240Y-160726120D01*
X127718820Y-161414460D01*
X128579880Y-161754820D01*
X128971040Y-161648140D01*
X128971040Y-166314120D01*
X126291340Y-166314120D01*
X126961900Y-165643560D01*
X127337820Y-164739320D01*
X127337820Y-163761420D01*
X127337820Y-163664900D01*
X126964440Y-162760660D01*
X126271020Y-162067240D01*
X125366780Y-161691320D01*
X124388880Y-161691320D01*
X123484640Y-162064700D01*
X122791220Y-162758120D01*
X122415300Y-163662360D01*
X122415300Y-164640260D01*
X122415300Y-164736780D01*
X122788680Y-165641020D01*
X123461780Y-166314120D01*
X119189500Y-166314120D01*
X119189500Y-160190180D01*
X119237760Y-160309560D01*
X119722900Y-160794700D01*
X120355360Y-161058860D01*
X121041160Y-161058860D01*
X121676160Y-160797240D01*
X122161300Y-160312100D01*
X122425460Y-159679640D01*
X122425460Y-158993840D01*
X122425460Y-158927800D01*
X122163840Y-158292800D01*
X121678700Y-157807660D01*
X121046240Y-157543500D01*
X120360440Y-157543500D01*
X119725440Y-157805120D01*
X119240300Y-158290260D01*
X119189500Y-158409640D01*
X119189500Y-134388860D01*
X119237760Y-134508240D01*
X119722900Y-134993380D01*
X120355360Y-135257540D01*
X121041160Y-135257540D01*
X121676160Y-134995920D01*
X122161300Y-134510780D01*
X122425460Y-133878320D01*
X122425460Y-133192520D01*
X122425460Y-133126480D01*
X122163840Y-132491480D01*
X121678700Y-132006340D01*
X121046240Y-131742180D01*
X120360440Y-131742180D01*
X119725440Y-132003800D01*
X119240300Y-132488940D01*
X119189500Y-132608320D01*
X119189500Y-59535060D01*
X173865540Y-59535060D01*
X173865540Y-131569460D01*
X173680120Y-131386580D01*
X173680120Y-119095520D01*
X173680120Y-118107460D01*
X173680120Y-88094820D01*
X173680120Y-87106760D01*
X173301660Y-86192360D01*
X172603160Y-85493860D01*
X171688760Y-85112860D01*
X170700700Y-85112860D01*
X170604180Y-85112860D01*
X169689780Y-85491320D01*
X168991280Y-86189820D01*
X168610280Y-87104220D01*
X168610280Y-88092280D01*
X168988740Y-89006680D01*
X169687240Y-89705180D01*
X170601640Y-90086180D01*
X171589700Y-90086180D01*
X171686220Y-90086180D01*
X172600620Y-89707720D01*
X173299120Y-89009220D01*
X173680120Y-88094820D01*
X173680120Y-118107460D01*
X173382940Y-117388640D01*
X173382940Y-105841800D01*
X173382940Y-95158560D01*
X173316900Y-94820740D01*
X173314360Y-94818200D01*
X173123860Y-94533720D01*
X171005500Y-92415360D01*
X170721020Y-92222320D01*
X170380660Y-92156280D01*
X164340540Y-92156280D01*
X164000180Y-92222320D01*
X163715700Y-92415360D01*
X163192460Y-92938600D01*
X163034980Y-93167200D01*
X161005520Y-91137740D01*
X159585660Y-89717880D01*
X160467040Y-90086180D01*
X161455100Y-90086180D01*
X161551620Y-90086180D01*
X162466020Y-89707720D01*
X163164520Y-89009220D01*
X163545520Y-88094820D01*
X163545520Y-87106760D01*
X163167060Y-86192360D01*
X162468560Y-85493860D01*
X161554160Y-85112860D01*
X160566100Y-85112860D01*
X160469580Y-85112860D01*
X159555180Y-85491320D01*
X158856680Y-86189820D01*
X158475680Y-87104220D01*
X158475680Y-88092280D01*
X158838900Y-88971120D01*
X153786840Y-83919060D01*
X153786840Y-78798420D01*
X153786840Y-77807820D01*
X153408380Y-76890880D01*
X152707340Y-76189840D01*
X151792940Y-75808840D01*
X150802340Y-75808840D01*
X150705820Y-75808840D01*
X149788880Y-76187300D01*
X149087840Y-76888340D01*
X148706840Y-77802740D01*
X148706840Y-78793340D01*
X149085300Y-79710280D01*
X149786340Y-80411320D01*
X150700740Y-80792320D01*
X151691340Y-80792320D01*
X151787860Y-80792320D01*
X152704800Y-80413860D01*
X153405840Y-79712820D01*
X153786840Y-78798420D01*
X153786840Y-83919060D01*
X152333960Y-82466180D01*
X152049480Y-82273140D01*
X151709120Y-82207100D01*
X147010120Y-82207100D01*
X146748500Y-82156300D01*
X146359880Y-82156300D01*
X146019520Y-82222340D01*
X145735040Y-82415380D01*
X144284700Y-83863180D01*
X144274540Y-83860640D01*
X143652240Y-83860640D01*
X143652240Y-78798420D01*
X143652240Y-77807820D01*
X143273780Y-76890880D01*
X142572740Y-76189840D01*
X141658340Y-75808840D01*
X140667740Y-75808840D01*
X140571220Y-75808840D01*
X139654280Y-76187300D01*
X138953240Y-76888340D01*
X138572240Y-77802740D01*
X138572240Y-78793340D01*
X138950700Y-79710280D01*
X139651740Y-80411320D01*
X140566140Y-80792320D01*
X141556740Y-80792320D01*
X141653260Y-80792320D01*
X142570200Y-80413860D01*
X143271240Y-79712820D01*
X143652240Y-78798420D01*
X143652240Y-83860640D01*
X143629380Y-83860640D01*
X143568420Y-83860640D01*
X142971520Y-84107020D01*
X142516860Y-84561680D01*
X142494000Y-84609940D01*
X142227300Y-84663280D01*
X141942820Y-84856320D01*
X137502900Y-89296240D01*
X137093960Y-89296240D01*
X137093960Y-78867000D01*
X137093960Y-78336140D01*
X136890760Y-77845920D01*
X136517380Y-77470000D01*
X136027160Y-77266800D01*
X135496300Y-77266800D01*
X135006080Y-77470000D01*
X134630160Y-77843380D01*
X134480300Y-78198980D01*
X134368540Y-77922120D01*
X134137400Y-77863700D01*
X133957060Y-78044040D01*
X133957060Y-77683360D01*
X133898640Y-77452220D01*
X133408420Y-77282040D01*
X132890260Y-77309980D01*
X132542280Y-77452220D01*
X132483860Y-77683360D01*
X133220460Y-78419960D01*
X133957060Y-77683360D01*
X133957060Y-78044040D01*
X133400800Y-78600300D01*
X134137400Y-79336900D01*
X134368540Y-79278480D01*
X134472680Y-78976220D01*
X134630160Y-79354680D01*
X135003540Y-79730600D01*
X135493760Y-79933800D01*
X136024620Y-79933800D01*
X136514840Y-79730600D01*
X136890760Y-79357220D01*
X137093960Y-78867000D01*
X137093960Y-89296240D01*
X135933180Y-89296240D01*
X136098280Y-88905080D01*
X136098280Y-88475820D01*
X135935720Y-88079580D01*
X135763000Y-87906860D01*
X135709660Y-84477860D01*
X135671560Y-84310220D01*
X135651240Y-84198460D01*
X135646160Y-84190840D01*
X135643620Y-84188300D01*
X135486140Y-83952080D01*
X135478520Y-83947000D01*
X133957060Y-82423000D01*
X133957060Y-79517240D01*
X133220460Y-78780640D01*
X133040120Y-78960980D01*
X133040120Y-78600300D01*
X132303520Y-77863700D01*
X132072380Y-77922120D01*
X131965700Y-78221840D01*
X131810760Y-77845920D01*
X131437380Y-77470000D01*
X130947160Y-77266800D01*
X130416300Y-77266800D01*
X129926080Y-77470000D01*
X129550160Y-77843380D01*
X129471420Y-78031340D01*
X129471420Y-77777340D01*
X129374900Y-77543660D01*
X129197100Y-77365860D01*
X128965960Y-77269340D01*
X128714500Y-77269340D01*
X127317500Y-77269340D01*
X127083820Y-77365860D01*
X126906020Y-77543660D01*
X126809500Y-77774800D01*
X126809500Y-78026260D01*
X126809500Y-79423260D01*
X126906020Y-79656940D01*
X127083820Y-79834740D01*
X127314960Y-79931260D01*
X127566420Y-79931260D01*
X128963420Y-79931260D01*
X129197100Y-79834740D01*
X129374900Y-79656940D01*
X129471420Y-79425800D01*
X129471420Y-79174340D01*
X129471420Y-79164180D01*
X129550160Y-79354680D01*
X129923540Y-79730600D01*
X130413760Y-79933800D01*
X130944620Y-79933800D01*
X131434840Y-79730600D01*
X131810760Y-79357220D01*
X131958080Y-78999080D01*
X132072380Y-79278480D01*
X132303520Y-79336900D01*
X133040120Y-78600300D01*
X133040120Y-78960980D01*
X132483860Y-79517240D01*
X132542280Y-79748380D01*
X133032500Y-79918560D01*
X133550660Y-79890620D01*
X133898640Y-79748380D01*
X133957060Y-79517240D01*
X133957060Y-82423000D01*
X132679440Y-81145380D01*
X132679440Y-80926940D01*
X132516880Y-80530700D01*
X132212080Y-80225900D01*
X131815840Y-80060800D01*
X131386580Y-80060800D01*
X130990340Y-80223360D01*
X130685540Y-80528160D01*
X130520440Y-80924400D01*
X130520440Y-81353660D01*
X130683000Y-81749900D01*
X130987800Y-82054700D01*
X131384040Y-82219800D01*
X131605020Y-82219800D01*
X134193280Y-84808060D01*
X134216140Y-86210140D01*
X134208520Y-86189820D01*
X133507480Y-85488780D01*
X132593080Y-85107780D01*
X131602480Y-85107780D01*
X131505960Y-85107780D01*
X130589020Y-85486240D01*
X129887980Y-86187280D01*
X129506980Y-87101680D01*
X129506980Y-88092280D01*
X129885440Y-89009220D01*
X130172460Y-89296240D01*
X128981200Y-89296240D01*
X128640840Y-89362280D01*
X128356360Y-89555320D01*
X124752100Y-93159580D01*
X124452380Y-93159580D01*
X124452380Y-88097360D01*
X124452380Y-87106760D01*
X124073920Y-86189820D01*
X123372880Y-85488780D01*
X122458480Y-85107780D01*
X121467880Y-85107780D01*
X121371360Y-85107780D01*
X120454420Y-85486240D01*
X119753380Y-86187280D01*
X119372380Y-87101680D01*
X119372380Y-88092280D01*
X119750840Y-89009220D01*
X120451880Y-89710260D01*
X121366280Y-90091260D01*
X122356880Y-90091260D01*
X122453400Y-90091260D01*
X123370340Y-89712800D01*
X124071380Y-89011760D01*
X124452380Y-88097360D01*
X124452380Y-93159580D01*
X124429520Y-93159580D01*
X124368560Y-93159580D01*
X123771660Y-93405960D01*
X123317000Y-93860620D01*
X123068080Y-94454980D01*
X123068080Y-95100140D01*
X123314460Y-95697040D01*
X123769120Y-96151700D01*
X124363480Y-96400620D01*
X125008640Y-96400620D01*
X125069600Y-96400620D01*
X125666500Y-96154240D01*
X125968760Y-95851980D01*
X126268480Y-96151700D01*
X126862840Y-96400620D01*
X127508000Y-96400620D01*
X127568960Y-96400620D01*
X128165860Y-96154240D01*
X128470660Y-95846900D01*
X128739900Y-96133920D01*
X129331720Y-96405700D01*
X129590800Y-96288860D01*
X129590800Y-95034100D01*
X129590800Y-94907100D01*
X129590800Y-94653100D01*
X129590800Y-94526100D01*
X129590800Y-93271340D01*
X129331720Y-93154500D01*
X128739900Y-93426280D01*
X128470660Y-93710760D01*
X128168400Y-93408500D01*
X127574040Y-93159580D01*
X127251460Y-93159580D01*
X129346960Y-91064080D01*
X137868660Y-91064080D01*
X138206480Y-90998040D01*
X138209020Y-90998040D01*
X138493500Y-90805000D01*
X142707360Y-86591140D01*
X142968980Y-86852760D01*
X143563340Y-87101680D01*
X144208500Y-87101680D01*
X144269460Y-87101680D01*
X144866360Y-86855300D01*
X145168620Y-86553040D01*
X145468340Y-86852760D01*
X146062700Y-87101680D01*
X146707860Y-87101680D01*
X146768820Y-87101680D01*
X147365720Y-86855300D01*
X147670520Y-86547960D01*
X147939760Y-86834980D01*
X148531580Y-87106760D01*
X148790660Y-86989920D01*
X148790660Y-85735160D01*
X148790660Y-85608160D01*
X148790660Y-85354160D01*
X149044660Y-85354160D01*
X149171660Y-85354160D01*
X150403560Y-85354160D01*
X150522940Y-85097620D01*
X150340060Y-84604860D01*
X149895560Y-84127340D01*
X149562820Y-83974940D01*
X151343360Y-83974940D01*
X159755840Y-92387420D01*
X162166300Y-94797880D01*
X162166300Y-95100140D01*
X162412680Y-95697040D01*
X162867340Y-96151700D01*
X163436300Y-96390460D01*
X159024320Y-96390460D01*
X155747720Y-93113860D01*
X155582620Y-93002100D01*
X155638500Y-92875100D01*
X155638500Y-92445840D01*
X155475940Y-92049600D01*
X155171140Y-91744800D01*
X154774900Y-91579700D01*
X154485340Y-91579700D01*
X154442160Y-91549220D01*
X154391360Y-91539060D01*
X154150060Y-91490800D01*
X150522940Y-91490800D01*
X150522940Y-85864700D01*
X150403560Y-85608160D01*
X149044660Y-85608160D01*
X149044660Y-86989920D01*
X149303740Y-87106760D01*
X149895560Y-86834980D01*
X150340060Y-86357460D01*
X150522940Y-85864700D01*
X150522940Y-91490800D01*
X147830540Y-91490800D01*
X147540980Y-91549220D01*
X147457160Y-91605100D01*
X147292060Y-91714320D01*
X146253200Y-92755720D01*
X146138900Y-92918280D01*
X143824960Y-90604340D01*
X143824960Y-89595960D01*
X143901160Y-89519760D01*
X143944340Y-89519760D01*
X144340580Y-89357200D01*
X144645380Y-89052400D01*
X144810480Y-88656160D01*
X144810480Y-88226900D01*
X144647920Y-87830660D01*
X144343120Y-87525860D01*
X143946880Y-87360760D01*
X143517620Y-87360760D01*
X143121380Y-87523320D01*
X142816580Y-87828120D01*
X142775940Y-87919560D01*
X142732760Y-87876380D01*
X142336520Y-87711280D01*
X141907260Y-87711280D01*
X141511020Y-87873840D01*
X141206220Y-88178640D01*
X141041120Y-88574880D01*
X141041120Y-88607900D01*
X138145520Y-91414600D01*
X138140440Y-91419680D01*
X138135360Y-91424760D01*
X138066780Y-91523820D01*
X137947400Y-91696540D01*
X137944860Y-91706700D01*
X137942320Y-91711780D01*
X137914380Y-91851480D01*
X137876280Y-92036900D01*
X137876280Y-92041980D01*
X137876280Y-92049600D01*
X137876280Y-106504740D01*
X137035540Y-107345480D01*
X136842500Y-107629960D01*
X136776460Y-107970320D01*
X136776460Y-109608620D01*
X136842500Y-109948980D01*
X137035540Y-110233460D01*
X137716260Y-110914180D01*
X138000740Y-111107220D01*
X138003280Y-111107220D01*
X138341100Y-111173260D01*
X145869660Y-111173260D01*
X146537680Y-111173260D01*
X146568160Y-111203740D01*
X146964400Y-111368840D01*
X147246340Y-111368840D01*
X147312380Y-111528860D01*
X147617180Y-111833660D01*
X148013420Y-111998760D01*
X148442680Y-111998760D01*
X148838920Y-111836200D01*
X148871940Y-111803180D01*
X149672040Y-111803180D01*
X151516080Y-113647220D01*
X151516080Y-114099340D01*
X151236680Y-114378740D01*
X151071580Y-114774980D01*
X151071580Y-115204240D01*
X151234140Y-115600480D01*
X151538940Y-115905280D01*
X151935180Y-116070380D01*
X152364440Y-116070380D01*
X152760680Y-115907820D01*
X152986740Y-115681760D01*
X153266140Y-115961160D01*
X149740620Y-119486680D01*
X142669260Y-119486680D01*
X142328900Y-119552720D01*
X142044420Y-119745760D01*
X141848840Y-119941340D01*
X141848840Y-119697500D01*
X141686280Y-119301260D01*
X141381480Y-118996460D01*
X140985240Y-118831360D01*
X140555980Y-118831360D01*
X140159740Y-118993920D01*
X139854940Y-119298720D01*
X139689840Y-119694960D01*
X139689840Y-119740680D01*
X136385300Y-123045220D01*
X134581900Y-123045220D01*
X134581900Y-119095520D01*
X134581900Y-118107460D01*
X134203440Y-117193060D01*
X133504940Y-116494560D01*
X132590540Y-116113560D01*
X131602480Y-116113560D01*
X131505960Y-116113560D01*
X131323080Y-116187220D01*
X131323080Y-95163640D01*
X131323080Y-94396560D01*
X131140200Y-93903800D01*
X130695700Y-93426280D01*
X130103880Y-93154500D01*
X129844800Y-93271340D01*
X129844800Y-94653100D01*
X131203700Y-94653100D01*
X131323080Y-94396560D01*
X131323080Y-95163640D01*
X131203700Y-94907100D01*
X129844800Y-94907100D01*
X129844800Y-96288860D01*
X130103880Y-96405700D01*
X130695700Y-96133920D01*
X131140200Y-95656400D01*
X131323080Y-95163640D01*
X131323080Y-116187220D01*
X130591560Y-116492020D01*
X129893060Y-117190520D01*
X129512060Y-118104920D01*
X129512060Y-119092980D01*
X129890520Y-120007380D01*
X130589020Y-120705880D01*
X131503420Y-121086880D01*
X132491480Y-121086880D01*
X132588000Y-121086880D01*
X133502400Y-120708420D01*
X134200900Y-120009920D01*
X134581900Y-119095520D01*
X134581900Y-123045220D01*
X129070100Y-123045220D01*
X128732280Y-123111260D01*
X128445260Y-123304300D01*
X128442720Y-123304300D01*
X128442720Y-123306840D01*
X127584200Y-124162820D01*
X127574040Y-124160280D01*
X126928880Y-124160280D01*
X126867920Y-124160280D01*
X126271020Y-124406660D01*
X125968760Y-124708920D01*
X125669040Y-124409200D01*
X125074680Y-124160280D01*
X124452380Y-124160280D01*
X124452380Y-119098060D01*
X124452380Y-118107460D01*
X124073920Y-117190520D01*
X123372880Y-116489480D01*
X122458480Y-116108480D01*
X121467880Y-116108480D01*
X121371360Y-116108480D01*
X120454420Y-116486940D01*
X119753380Y-117187980D01*
X119372380Y-118102380D01*
X119372380Y-119092980D01*
X119750840Y-120009920D01*
X120451880Y-120710960D01*
X121366280Y-121091960D01*
X122356880Y-121091960D01*
X122453400Y-121091960D01*
X123370340Y-120713500D01*
X124071380Y-120012460D01*
X124452380Y-119098060D01*
X124452380Y-124160280D01*
X124429520Y-124160280D01*
X124368560Y-124160280D01*
X123771660Y-124406660D01*
X123317000Y-124861320D01*
X123068080Y-125455680D01*
X123068080Y-126100840D01*
X123314460Y-126697740D01*
X123769120Y-127152400D01*
X124363480Y-127401320D01*
X125008640Y-127401320D01*
X125069600Y-127401320D01*
X125666500Y-127154940D01*
X125968760Y-126852680D01*
X126268480Y-127152400D01*
X126862840Y-127401320D01*
X127508000Y-127401320D01*
X127568960Y-127401320D01*
X128165860Y-127154940D01*
X128470660Y-126847600D01*
X128739900Y-127134620D01*
X129331720Y-127406400D01*
X129590800Y-127289560D01*
X129590800Y-126034800D01*
X129590800Y-125907800D01*
X129590800Y-125653800D01*
X129844800Y-125653800D01*
X129971800Y-125653800D01*
X131203700Y-125653800D01*
X131323080Y-125397260D01*
X131140200Y-124904500D01*
X131053840Y-124813060D01*
X136751060Y-124813060D01*
X137088880Y-124747020D01*
X137091420Y-124747020D01*
X137375900Y-124553980D01*
X137919460Y-124007880D01*
X137866120Y-124289820D01*
X137866120Y-125420120D01*
X132509260Y-129608580D01*
X132509260Y-129486660D01*
X132346700Y-129090420D01*
X132041900Y-128785620D01*
X131645660Y-128620520D01*
X131323080Y-128620520D01*
X131323080Y-126164340D01*
X131203700Y-125907800D01*
X129844800Y-125907800D01*
X129844800Y-127289560D01*
X130103880Y-127406400D01*
X130695700Y-127134620D01*
X131140200Y-126657100D01*
X131323080Y-126164340D01*
X131323080Y-128620520D01*
X131216400Y-128620520D01*
X130820160Y-128783080D01*
X130515360Y-129087880D01*
X130350260Y-129484120D01*
X130350260Y-129913380D01*
X130512820Y-130309620D01*
X130586480Y-130383280D01*
X130657600Y-131561840D01*
X130477260Y-131386580D01*
X129616200Y-131046220D01*
X129225040Y-131152900D01*
X129225040Y-133245860D01*
X129225040Y-133372860D01*
X129225040Y-133626860D01*
X129225040Y-133753860D01*
X129225040Y-135846820D01*
X129527300Y-135928100D01*
X128971040Y-136690100D01*
X128971040Y-135846820D01*
X128971040Y-133626860D01*
X128971040Y-133372860D01*
X128971040Y-131152900D01*
X128579880Y-131046220D01*
X127718820Y-131386580D01*
X127360680Y-131734560D01*
X127360680Y-130738880D01*
X127360680Y-129760980D01*
X127360680Y-129664460D01*
X126987300Y-128760220D01*
X126293880Y-128066800D01*
X125389640Y-127690880D01*
X124411740Y-127690880D01*
X123507500Y-128064260D01*
X122814080Y-128757680D01*
X122438160Y-129661920D01*
X122438160Y-130639820D01*
X122438160Y-130736340D01*
X122811540Y-131640580D01*
X123504960Y-132334000D01*
X124409200Y-132709920D01*
X125387100Y-132709920D01*
X126291340Y-132336540D01*
X126984760Y-131643120D01*
X127360680Y-130738880D01*
X127360680Y-131734560D01*
X127015240Y-132074920D01*
X126629160Y-132979160D01*
X126735840Y-133372860D01*
X128971040Y-133372860D01*
X128971040Y-133626860D01*
X126735840Y-133626860D01*
X126629160Y-134020560D01*
X127015240Y-134924800D01*
X127718820Y-135613140D01*
X128579880Y-135953500D01*
X128971040Y-135846820D01*
X128971040Y-136690100D01*
X128371600Y-137515600D01*
X127215900Y-137515600D01*
X126987300Y-136959340D01*
X126293880Y-136265920D01*
X125389640Y-135890000D01*
X124411740Y-135890000D01*
X123507500Y-136263380D01*
X122814080Y-136956800D01*
X122438160Y-137861040D01*
X122438160Y-138838940D01*
X122438160Y-138935460D01*
X122811540Y-139839700D01*
X123504960Y-140533120D01*
X124409200Y-140909040D01*
X125387100Y-140909040D01*
X126291340Y-140535660D01*
X126984760Y-139842240D01*
X127215900Y-139283440D01*
X128821180Y-139283440D01*
X128884680Y-139268200D01*
X128958340Y-139273280D01*
X129054860Y-139235180D01*
X129159000Y-139217400D01*
X129214880Y-139176760D01*
X129283460Y-139153900D01*
X129359660Y-139080240D01*
X129446020Y-139024360D01*
X129484120Y-138965940D01*
X129534920Y-138920220D01*
X130797300Y-137185400D01*
X130926840Y-137314940D01*
X131323080Y-137480040D01*
X131752340Y-137480040D01*
X132148580Y-137317480D01*
X132453380Y-137012680D01*
X132618480Y-136616440D01*
X132618480Y-136187180D01*
X132600700Y-136146540D01*
X132915660Y-135402320D01*
X132935980Y-135295640D01*
X132974080Y-135196580D01*
X133642100Y-130962400D01*
X139296140Y-126547880D01*
X139339320Y-126497080D01*
X139374880Y-126474220D01*
X139423140Y-126400560D01*
X139522200Y-126288800D01*
X139542520Y-126222760D01*
X139567920Y-126187200D01*
X139585700Y-126088140D01*
X139628880Y-125961140D01*
X139623800Y-125897640D01*
X139633960Y-125849380D01*
X139633960Y-124655580D01*
X140520420Y-123766580D01*
X140533120Y-123799600D01*
X140837920Y-124104400D01*
X141234160Y-124269500D01*
X141274800Y-124269500D01*
X141274800Y-124759720D01*
X141340840Y-125100080D01*
X141452600Y-125265180D01*
X141384020Y-125247400D01*
X140522960Y-125587760D01*
X139819380Y-126276100D01*
X139433300Y-127180340D01*
X139539980Y-127574040D01*
X141648180Y-127574040D01*
X141775180Y-127574040D01*
X142029180Y-127574040D01*
X142029180Y-127828040D01*
X141775180Y-127828040D01*
X141648180Y-127828040D01*
X139539980Y-127828040D01*
X139433300Y-128221740D01*
X139722860Y-128905000D01*
X136779000Y-128905000D01*
X136438640Y-128971040D01*
X136154160Y-129164080D01*
X134424420Y-130893820D01*
X134231380Y-131178300D01*
X134165340Y-131518660D01*
X134165340Y-143515080D01*
X133809740Y-143662400D01*
X133504940Y-143967200D01*
X133339840Y-144363440D01*
X133339840Y-144792700D01*
X133502400Y-145188940D01*
X133807200Y-145493740D01*
X134203440Y-145658840D01*
X134632700Y-145658840D01*
X134894320Y-145549620D01*
X134670800Y-147256500D01*
X134670800Y-147269200D01*
X134668260Y-147281900D01*
X134678420Y-147391120D01*
X134691120Y-147599400D01*
X134698740Y-147617180D01*
X134701280Y-147627340D01*
X134754620Y-147726400D01*
X134846060Y-147909280D01*
X134858760Y-147919440D01*
X134863840Y-147929600D01*
X136540240Y-149976840D01*
X136540240Y-150114000D01*
X136702800Y-150510240D01*
X137007600Y-150815040D01*
X137403840Y-150980140D01*
X137833100Y-150980140D01*
X138229340Y-150817580D01*
X138534140Y-150512780D01*
X138699240Y-150116540D01*
X138699240Y-149687280D01*
X138536680Y-149291040D01*
X138231880Y-148986240D01*
X137894060Y-148844000D01*
X136471660Y-147106640D01*
X136870440Y-144071340D01*
X138285220Y-145486120D01*
X138285220Y-146296380D01*
X138074400Y-146507200D01*
X137909300Y-146903440D01*
X137909300Y-147332700D01*
X138071860Y-147728940D01*
X138376660Y-148033740D01*
X138772900Y-148198840D01*
X139202160Y-148198840D01*
X139598400Y-148036280D01*
X139903200Y-147731480D01*
X140068300Y-147335240D01*
X140068300Y-146905980D01*
X140053060Y-146867880D01*
X140053060Y-145120360D01*
X139987020Y-144782540D01*
X139987020Y-144780000D01*
X139793980Y-144495520D01*
X138003280Y-142704820D01*
X138003280Y-141899640D01*
X138018520Y-141914880D01*
X138414760Y-142079980D01*
X138844020Y-142079980D01*
X139141200Y-141955520D01*
X144157700Y-142608300D01*
X144218660Y-142603220D01*
X144282160Y-142615920D01*
X144355820Y-142613380D01*
X144015460Y-142956280D01*
X143639540Y-143860520D01*
X143639540Y-144838420D01*
X143639540Y-144934940D01*
X144012920Y-145839180D01*
X144706340Y-146532600D01*
X145610580Y-146908520D01*
X146588480Y-146908520D01*
X147492720Y-146535140D01*
X148186140Y-145841720D01*
X148562060Y-144937480D01*
X148562060Y-143959580D01*
X148562060Y-143863060D01*
X148188680Y-142958820D01*
X147807680Y-142577820D01*
X148559520Y-142570200D01*
X152600660Y-146611340D01*
X152430480Y-146682460D01*
X152125680Y-146987260D01*
X151960580Y-147383500D01*
X151960580Y-147812760D01*
X152123140Y-148209000D01*
X152427940Y-148513800D01*
X152824180Y-148678900D01*
X153253440Y-148678900D01*
X153649680Y-148516340D01*
X153682700Y-148483320D01*
X154256740Y-148483320D01*
X154282140Y-148539200D01*
X154586940Y-148844000D01*
X154983180Y-149009100D01*
X155412440Y-149009100D01*
X155808680Y-148846540D01*
X156113480Y-148541740D01*
X156278580Y-148145500D01*
X156278580Y-148099780D01*
X156702760Y-147675600D01*
X156895800Y-147391120D01*
X156895800Y-147388580D01*
X156961840Y-147050760D01*
X156961840Y-132697220D01*
X156895800Y-132359400D01*
X156893260Y-132356860D01*
X156829760Y-132262880D01*
X156702760Y-132072380D01*
X156702760Y-132069840D01*
X156319220Y-131686300D01*
X156319220Y-131645660D01*
X156156660Y-131249420D01*
X155851860Y-130944620D01*
X155455620Y-130779520D01*
X155026360Y-130779520D01*
X154630120Y-130942080D01*
X154325320Y-131246880D01*
X154315160Y-131267200D01*
X154023060Y-130975100D01*
X153626820Y-130810000D01*
X153197560Y-130810000D01*
X152801320Y-130972560D01*
X152496520Y-131277360D01*
X152331420Y-131673600D01*
X152331420Y-132102860D01*
X152493980Y-132499100D01*
X152527000Y-132532120D01*
X152527000Y-136458960D01*
X152527000Y-138412220D01*
X152382220Y-138074400D01*
X151678640Y-137386060D01*
X150817580Y-137045700D01*
X150426420Y-137152380D01*
X150426420Y-139245340D01*
X150426420Y-139372340D01*
X150426420Y-139626340D01*
X150172420Y-139626340D01*
X150172420Y-139372340D01*
X150172420Y-137152380D01*
X149781260Y-137045700D01*
X148920200Y-137386060D01*
X148216620Y-138074400D01*
X147830540Y-138978640D01*
X147937220Y-139372340D01*
X150172420Y-139372340D01*
X150172420Y-139626340D01*
X150045420Y-139626340D01*
X147937220Y-139626340D01*
X147830540Y-140020040D01*
X148165820Y-140807440D01*
X144320260Y-140845540D01*
X143172180Y-140698220D01*
X143362680Y-140510260D01*
X143626840Y-139877800D01*
X143626840Y-139192000D01*
X143626840Y-139125960D01*
X143365220Y-138490960D01*
X142880080Y-138005820D01*
X142331440Y-137774680D01*
X143639540Y-136469120D01*
X143639540Y-136639300D01*
X143639540Y-136735820D01*
X144012920Y-137640060D01*
X144706340Y-138333480D01*
X145610580Y-138709400D01*
X146588480Y-138709400D01*
X147492720Y-138336020D01*
X148186140Y-137642600D01*
X148562060Y-136738360D01*
X148562060Y-135760460D01*
X148562060Y-135663940D01*
X148188680Y-134759700D01*
X147678140Y-134249160D01*
X147805140Y-134165340D01*
X152405080Y-129565400D01*
X152415240Y-129557780D01*
X152422860Y-129555240D01*
X152654000Y-129326640D01*
X152654000Y-129324100D01*
X152781000Y-129133600D01*
X152844500Y-129039620D01*
X152847040Y-129037080D01*
X152910540Y-128699260D01*
X152913080Y-128699260D01*
X152913080Y-124630180D01*
X154553920Y-123339860D01*
X154713940Y-123339860D01*
X155110180Y-123177300D01*
X155414980Y-122872500D01*
X155506420Y-122651520D01*
X155506420Y-126105920D01*
X155361640Y-126453900D01*
X155361640Y-126883160D01*
X155524200Y-127279400D01*
X155829000Y-127584200D01*
X156225240Y-127749300D01*
X156626560Y-127749300D01*
X156626560Y-130792220D01*
X156692600Y-131132580D01*
X156885640Y-131417060D01*
X157949900Y-132481320D01*
X157949900Y-132524500D01*
X158112460Y-132920740D01*
X158417260Y-133225540D01*
X158813500Y-133390640D01*
X158864300Y-133390640D01*
X158856680Y-133431280D01*
X158856680Y-144609820D01*
X158762700Y-144515840D01*
X158366460Y-144350740D01*
X157937200Y-144350740D01*
X157540960Y-144513300D01*
X157236160Y-144818100D01*
X157071060Y-145214340D01*
X157071060Y-145643600D01*
X157233620Y-146039840D01*
X157243780Y-146050000D01*
X157195520Y-147472400D01*
X156639260Y-150332440D01*
X152689560Y-152460960D01*
X152336500Y-152460960D01*
X151940260Y-152623520D01*
X151635460Y-152928320D01*
X151470360Y-153324560D01*
X151470360Y-153753820D01*
X151632920Y-154150060D01*
X151937720Y-154454860D01*
X152333960Y-154619960D01*
X152763220Y-154619960D01*
X153159460Y-154457400D01*
X153464260Y-154152600D01*
X153517600Y-154020520D01*
X157375860Y-151942800D01*
X157312360Y-154975560D01*
X156349700Y-155940760D01*
X156306520Y-155940760D01*
X155910280Y-156103320D01*
X155605480Y-156408120D01*
X155440380Y-156804360D01*
X155440380Y-157233620D01*
X155602940Y-157629860D01*
X155907740Y-157934660D01*
X156303980Y-158099760D01*
X156733240Y-158099760D01*
X157129480Y-157937200D01*
X157434280Y-157632400D01*
X157599380Y-157236160D01*
X157599380Y-157190440D01*
X158803340Y-155986480D01*
X158816040Y-155973780D01*
X158892240Y-155859480D01*
X159001460Y-155704540D01*
X159001460Y-155691840D01*
X159006540Y-155689300D01*
X159026860Y-155582620D01*
X159075120Y-155366720D01*
X159075120Y-155348940D01*
X159097980Y-154218640D01*
X159423100Y-154218640D01*
X159819340Y-154056080D01*
X160124140Y-153751280D01*
X160289240Y-153355040D01*
X160289240Y-152925780D01*
X160225740Y-152773380D01*
X160682940Y-151114760D01*
X160835340Y-151178260D01*
X161264600Y-151178260D01*
X161660840Y-151015700D01*
X161693860Y-150982680D01*
X161851340Y-150982680D01*
X162189160Y-150916640D01*
X162191700Y-150916640D01*
X162476180Y-150723600D01*
X163565840Y-149636480D01*
X163565840Y-149633940D01*
X163692840Y-149443440D01*
X163756340Y-149349460D01*
X163758880Y-149346920D01*
X163822380Y-149009100D01*
X163824920Y-149009100D01*
X163824920Y-138704320D01*
X164144960Y-139024360D01*
X164429440Y-139217400D01*
X164431980Y-139217400D01*
X164769800Y-139283440D01*
X165780720Y-139283440D01*
X166011860Y-139839700D01*
X166705280Y-140533120D01*
X167144700Y-140716000D01*
X165983920Y-140716000D01*
X165750240Y-140812520D01*
X165572440Y-140990320D01*
X165475920Y-141221460D01*
X165475920Y-141472920D01*
X165475920Y-142996920D01*
X165572440Y-143230600D01*
X165750240Y-143408400D01*
X165981380Y-143504920D01*
X166138860Y-143504920D01*
X166088060Y-143690340D01*
X166870380Y-144470120D01*
X167652700Y-143690340D01*
X167599360Y-143504920D01*
X167756840Y-143504920D01*
X167990520Y-143408400D01*
X168168320Y-143230600D01*
X168264840Y-142999460D01*
X168264840Y-142935960D01*
X168620440Y-143291560D01*
X168851580Y-143385540D01*
X168696640Y-143451580D01*
X168628060Y-143690340D01*
X169410380Y-144470120D01*
X170192700Y-143690340D01*
X170124120Y-143451580D01*
X169956480Y-143390620D01*
X170200320Y-143291560D01*
X170591480Y-142900400D01*
X170804840Y-142387320D01*
X170804840Y-141833600D01*
X170591480Y-141320520D01*
X170200320Y-140929360D01*
X169687240Y-140716000D01*
X169133520Y-140716000D01*
X168620440Y-140929360D01*
X168264840Y-141284960D01*
X168264840Y-141224000D01*
X168168320Y-140990320D01*
X168087040Y-140909040D01*
X168587420Y-140909040D01*
X169491660Y-140535660D01*
X170185080Y-139842240D01*
X170561000Y-138938000D01*
X170561000Y-137960100D01*
X170561000Y-137863580D01*
X170187620Y-136959340D01*
X169494200Y-136265920D01*
X168589960Y-135890000D01*
X167612060Y-135890000D01*
X166707820Y-136263380D01*
X166014400Y-136956800D01*
X165780720Y-137515600D01*
X165135560Y-137515600D01*
X163118800Y-135498840D01*
X163118800Y-135455660D01*
X162956240Y-135059420D01*
X162651440Y-134754620D01*
X162255200Y-134589520D01*
X161973260Y-134589520D01*
X161973260Y-133817360D01*
X162176460Y-133614160D01*
X162176460Y-133807200D01*
X162176460Y-133873240D01*
X162438080Y-134508240D01*
X162923220Y-134993380D01*
X163555680Y-135257540D01*
X164241480Y-135257540D01*
X164876480Y-134995920D01*
X165361620Y-134510780D01*
X165625780Y-133878320D01*
X165625780Y-133555740D01*
X166890700Y-134820660D01*
X166890700Y-134863840D01*
X167053260Y-135260080D01*
X167358060Y-135564880D01*
X167754300Y-135729980D01*
X168183560Y-135729980D01*
X168579800Y-135567420D01*
X168884600Y-135262620D01*
X169049700Y-134866380D01*
X169049700Y-134437120D01*
X168887140Y-134040880D01*
X168582340Y-133736080D01*
X168186100Y-133570980D01*
X168140380Y-133570980D01*
X167043100Y-132473700D01*
X167609520Y-132709920D01*
X168587420Y-132709920D01*
X169491660Y-132336540D01*
X170185080Y-131643120D01*
X170561000Y-130738880D01*
X170561000Y-129760980D01*
X170561000Y-129664460D01*
X170421300Y-129324100D01*
X170421300Y-126164340D01*
X170421300Y-125397260D01*
X170238420Y-124904500D01*
X169793920Y-124426980D01*
X169202100Y-124155200D01*
X168943020Y-124272040D01*
X168943020Y-125653800D01*
X170301920Y-125653800D01*
X170421300Y-125397260D01*
X170421300Y-126164340D01*
X170301920Y-125907800D01*
X168943020Y-125907800D01*
X168943020Y-127289560D01*
X169202100Y-127406400D01*
X169793920Y-127134620D01*
X170238420Y-126657100D01*
X170421300Y-126164340D01*
X170421300Y-129324100D01*
X170187620Y-128760220D01*
X169494200Y-128066800D01*
X168589960Y-127690880D01*
X167612060Y-127690880D01*
X166707820Y-128064260D01*
X166014400Y-128757680D01*
X165638480Y-129661920D01*
X165638480Y-130639820D01*
X165638480Y-130736340D01*
X165872160Y-131302760D01*
X162913060Y-128343660D01*
X162913060Y-127170180D01*
X163461700Y-127401320D01*
X164106860Y-127401320D01*
X164167820Y-127401320D01*
X164764720Y-127154940D01*
X165066980Y-126852680D01*
X165366700Y-127152400D01*
X165961060Y-127401320D01*
X166606220Y-127401320D01*
X166667180Y-127401320D01*
X167264080Y-127154940D01*
X167568880Y-126847600D01*
X167838120Y-127134620D01*
X168429940Y-127406400D01*
X168689020Y-127289560D01*
X168689020Y-126034800D01*
X168689020Y-125907800D01*
X168689020Y-125653800D01*
X168689020Y-125526800D01*
X168689020Y-124272040D01*
X168429940Y-124155200D01*
X167838120Y-124426980D01*
X167568880Y-124711460D01*
X167266620Y-124409200D01*
X166682420Y-124162820D01*
X167535860Y-123311920D01*
X167726360Y-123027440D01*
X167728900Y-123024900D01*
X167794940Y-122687080D01*
X167794940Y-111795560D01*
X173123860Y-106466640D01*
X173316900Y-106182160D01*
X173316900Y-106179620D01*
X173382940Y-105841800D01*
X173382940Y-117388640D01*
X173301660Y-117193060D01*
X172603160Y-116494560D01*
X171688760Y-116113560D01*
X170700700Y-116113560D01*
X170604180Y-116113560D01*
X169689780Y-116492020D01*
X168991280Y-117190520D01*
X168610280Y-118104920D01*
X168610280Y-119092980D01*
X168988740Y-120007380D01*
X169687240Y-120705880D01*
X170601640Y-121086880D01*
X171589700Y-121086880D01*
X171686220Y-121086880D01*
X172600620Y-120708420D01*
X173299120Y-120009920D01*
X173680120Y-119095520D01*
X173680120Y-131386580D01*
X173677580Y-131386580D01*
X172816520Y-131046220D01*
X172425360Y-131152900D01*
X172425360Y-133245860D01*
X172425360Y-133372860D01*
X172425360Y-133626860D01*
X172425360Y-133753860D01*
X172425360Y-135846820D01*
X172816520Y-135953500D01*
X173677580Y-135613140D01*
X173865540Y-135427720D01*
X173865540Y-157370780D01*
X173677580Y-157187900D01*
X172816520Y-156847540D01*
X172425360Y-156954220D01*
X172425360Y-159047180D01*
X172425360Y-159174180D01*
X172425360Y-159428180D01*
X172425360Y-159555180D01*
X172425360Y-161648140D01*
X172816520Y-161754820D01*
X173677580Y-161414460D01*
X173865540Y-161229040D01*
X173865540Y-166314120D01*
X173865540Y-166314120D01*
G37*
X173865540Y-166314120D02*
X172171360Y-166314120D01*
X172171360Y-161648140D01*
X172171360Y-159428180D01*
X172171360Y-159174180D01*
X172171360Y-156954220D01*
X172171360Y-135846820D01*
X172171360Y-133626860D01*
X172171360Y-133372860D01*
X172171360Y-131152900D01*
X171780200Y-131046220D01*
X170919140Y-131386580D01*
X170215560Y-132074920D01*
X169829480Y-132979160D01*
X169936160Y-133372860D01*
X172171360Y-133372860D01*
X172171360Y-133626860D01*
X169936160Y-133626860D01*
X169829480Y-134020560D01*
X170215560Y-134924800D01*
X170919140Y-135613140D01*
X171780200Y-135953500D01*
X172171360Y-135846820D01*
X172171360Y-156954220D01*
X171780200Y-156847540D01*
X170919140Y-157187900D01*
X170804840Y-157299660D01*
X170804840Y-152547320D01*
X170804840Y-151993600D01*
X170789600Y-151955500D01*
X170789600Y-149931120D01*
X170789600Y-147391120D01*
X170789600Y-144851120D01*
X170761660Y-144310100D01*
X170609260Y-143936720D01*
X170370500Y-143868140D01*
X169590720Y-144650460D01*
X170370500Y-145432780D01*
X170609260Y-145364200D01*
X170789600Y-144851120D01*
X170789600Y-147391120D01*
X170761660Y-146850100D01*
X170609260Y-146476720D01*
X170370500Y-146408140D01*
X170192700Y-146585940D01*
X170192700Y-146230340D01*
X170124120Y-145991580D01*
X169936160Y-145925540D01*
X170124120Y-145849340D01*
X170192700Y-145610580D01*
X169410380Y-144830800D01*
X169230040Y-145008600D01*
X169230040Y-144650460D01*
X168450260Y-143868140D01*
X168211500Y-143936720D01*
X168145460Y-144122140D01*
X168069260Y-143936720D01*
X167830500Y-143868140D01*
X167050720Y-144650460D01*
X167830500Y-145432780D01*
X168069260Y-145364200D01*
X168132760Y-145176240D01*
X168211500Y-145364200D01*
X168450260Y-145432780D01*
X169230040Y-144650460D01*
X169230040Y-145008600D01*
X168628060Y-145610580D01*
X168696640Y-145849340D01*
X168882060Y-145912840D01*
X168696640Y-145991580D01*
X168628060Y-146230340D01*
X169410380Y-147010120D01*
X170192700Y-146230340D01*
X170192700Y-146585940D01*
X169590720Y-147190460D01*
X170370500Y-147972780D01*
X170609260Y-147904200D01*
X170789600Y-147391120D01*
X170789600Y-149931120D01*
X170761660Y-149390100D01*
X170609260Y-149016720D01*
X170370500Y-148948140D01*
X170192700Y-149125940D01*
X170192700Y-148770340D01*
X170124120Y-148531580D01*
X169936160Y-148465540D01*
X170124120Y-148389340D01*
X170192700Y-148150580D01*
X169410380Y-147370800D01*
X169230040Y-147548600D01*
X169230040Y-147190460D01*
X168450260Y-146408140D01*
X168211500Y-146476720D01*
X168145460Y-146662140D01*
X168069260Y-146476720D01*
X167830500Y-146408140D01*
X167652700Y-146585940D01*
X167652700Y-146230340D01*
X167584120Y-145991580D01*
X167396160Y-145925540D01*
X167584120Y-145849340D01*
X167652700Y-145610580D01*
X166870380Y-144830800D01*
X166690040Y-145008600D01*
X166690040Y-144650460D01*
X165910260Y-143868140D01*
X165671500Y-143936720D01*
X165491160Y-144449800D01*
X165519100Y-144990820D01*
X165671500Y-145364200D01*
X165910260Y-145432780D01*
X166690040Y-144650460D01*
X166690040Y-145008600D01*
X166088060Y-145610580D01*
X166156640Y-145849340D01*
X166342060Y-145912840D01*
X166156640Y-145991580D01*
X166088060Y-146230340D01*
X166870380Y-147010120D01*
X167652700Y-146230340D01*
X167652700Y-146585940D01*
X167050720Y-147190460D01*
X167830500Y-147972780D01*
X168069260Y-147904200D01*
X168132760Y-147716240D01*
X168211500Y-147904200D01*
X168450260Y-147972780D01*
X169230040Y-147190460D01*
X169230040Y-147548600D01*
X168628060Y-148150580D01*
X168696640Y-148389340D01*
X168882060Y-148452840D01*
X168696640Y-148531580D01*
X168628060Y-148770340D01*
X169410380Y-149550120D01*
X170192700Y-148770340D01*
X170192700Y-149125940D01*
X169590720Y-149730460D01*
X170370500Y-150512780D01*
X170609260Y-150444200D01*
X170789600Y-149931120D01*
X170789600Y-151955500D01*
X170591480Y-151480520D01*
X170200320Y-151089360D01*
X169966640Y-150992840D01*
X170124120Y-150929340D01*
X170192700Y-150690580D01*
X169410380Y-149910800D01*
X169230040Y-150088600D01*
X169230040Y-149730460D01*
X168450260Y-148948140D01*
X168211500Y-149016720D01*
X168145460Y-149202140D01*
X168069260Y-149016720D01*
X167830500Y-148948140D01*
X167652700Y-149125940D01*
X167652700Y-148770340D01*
X167584120Y-148531580D01*
X167396160Y-148465540D01*
X167584120Y-148389340D01*
X167652700Y-148150580D01*
X166870380Y-147370800D01*
X166690040Y-147548600D01*
X166690040Y-147190460D01*
X165910260Y-146408140D01*
X165671500Y-146476720D01*
X165491160Y-146989800D01*
X165519100Y-147530820D01*
X165671500Y-147904200D01*
X165910260Y-147972780D01*
X166690040Y-147190460D01*
X166690040Y-147548600D01*
X166088060Y-148150580D01*
X166156640Y-148389340D01*
X166342060Y-148452840D01*
X166156640Y-148531580D01*
X166088060Y-148770340D01*
X166870380Y-149550120D01*
X167652700Y-148770340D01*
X167652700Y-149125940D01*
X167050720Y-149730460D01*
X167830500Y-150512780D01*
X168069260Y-150444200D01*
X168132760Y-150256240D01*
X168211500Y-150444200D01*
X168450260Y-150512780D01*
X169230040Y-149730460D01*
X169230040Y-150088600D01*
X168628060Y-150690580D01*
X168696640Y-150929340D01*
X168861740Y-150987760D01*
X168620440Y-151089360D01*
X168323260Y-151386540D01*
X167957500Y-151386540D01*
X167660320Y-151089360D01*
X167426640Y-150992840D01*
X167584120Y-150929340D01*
X167652700Y-150690580D01*
X166870380Y-149910800D01*
X166690040Y-150088600D01*
X166690040Y-149730460D01*
X165910260Y-148948140D01*
X165671500Y-149016720D01*
X165491160Y-149529800D01*
X165519100Y-150070820D01*
X165671500Y-150444200D01*
X165910260Y-150512780D01*
X166690040Y-149730460D01*
X166690040Y-150088600D01*
X166088060Y-150690580D01*
X166156640Y-150929340D01*
X166321740Y-150987760D01*
X166080440Y-151089360D01*
X165689280Y-151480520D01*
X165475920Y-151993600D01*
X165475920Y-152547320D01*
X165689280Y-153060400D01*
X166080440Y-153451560D01*
X166593520Y-153664920D01*
X167147240Y-153664920D01*
X167660320Y-153451560D01*
X167957500Y-153154380D01*
X168323260Y-153154380D01*
X168620440Y-153451560D01*
X169133520Y-153664920D01*
X169687240Y-153664920D01*
X170200320Y-153451560D01*
X170591480Y-153060400D01*
X170804840Y-152547320D01*
X170804840Y-157299660D01*
X170561000Y-157535880D01*
X170561000Y-156540200D01*
X170561000Y-155562300D01*
X170561000Y-155465780D01*
X170187620Y-154561540D01*
X169494200Y-153868120D01*
X168589960Y-153492200D01*
X167612060Y-153492200D01*
X166707820Y-153865580D01*
X166014400Y-154559000D01*
X165638480Y-155463240D01*
X165638480Y-156441140D01*
X165638480Y-156537660D01*
X166011860Y-157441900D01*
X166705280Y-158135320D01*
X167609520Y-158511240D01*
X168587420Y-158511240D01*
X169491660Y-158137860D01*
X170185080Y-157444440D01*
X170561000Y-156540200D01*
X170561000Y-157535880D01*
X170215560Y-157876240D01*
X169829480Y-158780480D01*
X169936160Y-159174180D01*
X172171360Y-159174180D01*
X172171360Y-159428180D01*
X169936160Y-159428180D01*
X169829480Y-159821880D01*
X170215560Y-160726120D01*
X170919140Y-161414460D01*
X171780200Y-161754820D01*
X172171360Y-161648140D01*
X172171360Y-166314120D01*
X169514520Y-166314120D01*
X170185080Y-165643560D01*
X170561000Y-164739320D01*
X170561000Y-163761420D01*
X170561000Y-163664900D01*
X170187620Y-162760660D01*
X169494200Y-162067240D01*
X168589960Y-161691320D01*
X167612060Y-161691320D01*
X166707820Y-162064700D01*
X166014400Y-162758120D01*
X165638480Y-163662360D01*
X165638480Y-164640260D01*
X165638480Y-164736780D01*
X166011860Y-165641020D01*
X166684960Y-166314120D01*
X165625780Y-166314120D01*
X165625780Y-159679640D01*
X165625780Y-158993840D01*
X165625780Y-158927800D01*
X165364160Y-158292800D01*
X164879020Y-157807660D01*
X164246560Y-157543500D01*
X163560760Y-157543500D01*
X162925760Y-157805120D01*
X162440620Y-158290260D01*
X162176460Y-158922720D01*
X162176460Y-159608520D01*
X162176460Y-159674560D01*
X162438080Y-160309560D01*
X162923220Y-160794700D01*
X163555680Y-161058860D01*
X164241480Y-161058860D01*
X164876480Y-160797240D01*
X165361620Y-160312100D01*
X165625780Y-159679640D01*
X165625780Y-166314120D01*
X155280360Y-166314120D01*
X155280360Y-161805620D01*
X155280360Y-161554160D01*
X155280360Y-160157160D01*
X155183840Y-159923480D01*
X155006040Y-159745680D01*
X154833320Y-159672020D01*
X154833320Y-158899860D01*
X154767280Y-158562040D01*
X154764740Y-158559500D01*
X154574240Y-158275020D01*
X150075900Y-153776680D01*
X149791420Y-153583640D01*
X149451060Y-153517600D01*
X148417280Y-153517600D01*
X148188680Y-152961340D01*
X147495260Y-152267920D01*
X146591020Y-151892000D01*
X145613120Y-151892000D01*
X144708880Y-152265380D01*
X144015460Y-152958800D01*
X143639540Y-153863040D01*
X143639540Y-154840940D01*
X143639540Y-154937460D01*
X144012920Y-155841700D01*
X144706340Y-156535120D01*
X145610580Y-156911040D01*
X146588480Y-156911040D01*
X147492720Y-156537660D01*
X148186140Y-155844240D01*
X148417280Y-155285440D01*
X149085300Y-155285440D01*
X153065480Y-159265620D01*
X153065480Y-159672020D01*
X152892760Y-159745680D01*
X152714960Y-159923480D01*
X152618440Y-160154620D01*
X152618440Y-160406080D01*
X152618440Y-161803080D01*
X152714960Y-162036760D01*
X152892760Y-162214560D01*
X153123900Y-162311080D01*
X153375360Y-162311080D01*
X154772360Y-162311080D01*
X155006040Y-162214560D01*
X155183840Y-162036760D01*
X155280360Y-161805620D01*
X155280360Y-166314120D01*
X152024080Y-166314120D01*
X152024080Y-159679640D01*
X152024080Y-158993840D01*
X152024080Y-158927800D01*
X151762460Y-158292800D01*
X151277320Y-157807660D01*
X150644860Y-157543500D01*
X149959060Y-157543500D01*
X149324060Y-157805120D01*
X148838920Y-158290260D01*
X148574760Y-158922720D01*
X148574760Y-159608520D01*
X148574760Y-159674560D01*
X148836380Y-160309560D01*
X149321520Y-160794700D01*
X149953980Y-161058860D01*
X150639780Y-161058860D01*
X151274780Y-160797240D01*
X151759920Y-160312100D01*
X152024080Y-159679640D01*
X152024080Y-166314120D01*
X148562060Y-166314120D01*
X148562060Y-163139120D01*
X148562060Y-162161220D01*
X148562060Y-162064700D01*
X148188680Y-161160460D01*
X147495260Y-160467040D01*
X146591020Y-160091120D01*
X145613120Y-160091120D01*
X144708880Y-160464500D01*
X144371060Y-160802320D01*
X144371060Y-159821880D01*
X144371060Y-158780480D01*
X143984980Y-157876240D01*
X143281400Y-157187900D01*
X142420340Y-156847540D01*
X142029180Y-156954220D01*
X142029180Y-159174180D01*
X144264380Y-159174180D01*
X144371060Y-158780480D01*
X144371060Y-159821880D01*
X144264380Y-159428180D01*
X142029180Y-159428180D01*
X142029180Y-161648140D01*
X142420340Y-161754820D01*
X143281400Y-161414460D01*
X143984980Y-160726120D01*
X144371060Y-159821880D01*
X144371060Y-160802320D01*
X144015460Y-161157920D01*
X143639540Y-162062160D01*
X143639540Y-163040060D01*
X143639540Y-163136580D01*
X144012920Y-164040820D01*
X144706340Y-164734240D01*
X145610580Y-165110160D01*
X146588480Y-165110160D01*
X147492720Y-164736780D01*
X148186140Y-164043360D01*
X148562060Y-163139120D01*
X148562060Y-166314120D01*
X141775180Y-166314120D01*
X141775180Y-161648140D01*
X141775180Y-159428180D01*
X141775180Y-159174180D01*
X141775180Y-156954220D01*
X141384020Y-156847540D01*
X140522960Y-157187900D01*
X139819380Y-157876240D01*
X139433300Y-158780480D01*
X139539980Y-159174180D01*
X141775180Y-159174180D01*
X141775180Y-159428180D01*
X139539980Y-159428180D01*
X139433300Y-159821880D01*
X139819380Y-160726120D01*
X140522960Y-161414460D01*
X141384020Y-161754820D01*
X141775180Y-161648140D01*
X141775180Y-166314120D01*
X136870440Y-166314120D01*
X136870440Y-152915620D01*
X136870440Y-152486360D01*
X136707880Y-152090120D01*
X136403080Y-151785320D01*
X136006840Y-151620220D01*
X135961120Y-151620220D01*
X135605520Y-151264620D01*
X135321040Y-151071580D01*
X134980680Y-151005540D01*
X133611620Y-151005540D01*
X133581140Y-150975060D01*
X133184900Y-150809960D01*
X132755640Y-150809960D01*
X132359400Y-150972520D01*
X132054600Y-151277320D01*
X131889500Y-151673560D01*
X131889500Y-152102820D01*
X132052060Y-152499060D01*
X132356860Y-152803860D01*
X132753100Y-152968960D01*
X133182360Y-152968960D01*
X133578600Y-152806400D01*
X133611620Y-152773380D01*
X134614920Y-152773380D01*
X134711440Y-152869900D01*
X134711440Y-152913080D01*
X134874000Y-153309320D01*
X135178800Y-153614120D01*
X135575040Y-153779220D01*
X136004300Y-153779220D01*
X136400540Y-153616660D01*
X136705340Y-153311860D01*
X136870440Y-152915620D01*
X136870440Y-166314120D01*
X131566920Y-166314120D01*
X131566920Y-159821880D01*
X131566920Y-158780480D01*
X131180840Y-157876240D01*
X130477260Y-157187900D01*
X129616200Y-156847540D01*
X129225040Y-156954220D01*
X129225040Y-159174180D01*
X131460240Y-159174180D01*
X131566920Y-158780480D01*
X131566920Y-159821880D01*
X131460240Y-159428180D01*
X129225040Y-159428180D01*
X129225040Y-161648140D01*
X129616200Y-161754820D01*
X130477260Y-161414460D01*
X131180840Y-160726120D01*
X131566920Y-159821880D01*
X131566920Y-166314120D01*
X128971040Y-166314120D01*
X128971040Y-161648140D01*
X128971040Y-159428180D01*
X128971040Y-159174180D01*
X128971040Y-156954220D01*
X128579880Y-156847540D01*
X127718820Y-157187900D01*
X127360680Y-157535880D01*
X127360680Y-156540200D01*
X127360680Y-155562300D01*
X127360680Y-155465780D01*
X126987300Y-154561540D01*
X126293880Y-153868120D01*
X125389640Y-153492200D01*
X124411740Y-153492200D01*
X123507500Y-153865580D01*
X122814080Y-154559000D01*
X122438160Y-155463240D01*
X122438160Y-156441140D01*
X122438160Y-156537660D01*
X122811540Y-157441900D01*
X123504960Y-158135320D01*
X124409200Y-158511240D01*
X125387100Y-158511240D01*
X126291340Y-158137860D01*
X126984760Y-157444440D01*
X127360680Y-156540200D01*
X127360680Y-157535880D01*
X127015240Y-157876240D01*
X126629160Y-158780480D01*
X126735840Y-159174180D01*
X128971040Y-159174180D01*
X128971040Y-159428180D01*
X126735840Y-159428180D01*
X126629160Y-159821880D01*
X127015240Y-160726120D01*
X127718820Y-161414460D01*
X128579880Y-161754820D01*
X128971040Y-161648140D01*
X128971040Y-166314120D01*
X126291340Y-166314120D01*
X126961900Y-165643560D01*
X127337820Y-164739320D01*
X127337820Y-163761420D01*
X127337820Y-163664900D01*
X126964440Y-162760660D01*
X126271020Y-162067240D01*
X125366780Y-161691320D01*
X124388880Y-161691320D01*
X123484640Y-162064700D01*
X122791220Y-162758120D01*
X122415300Y-163662360D01*
X122415300Y-164640260D01*
X122415300Y-164736780D01*
X122788680Y-165641020D01*
X123461780Y-166314120D01*
X119189500Y-166314120D01*
X119189500Y-160190180D01*
X119237760Y-160309560D01*
X119722900Y-160794700D01*
X120355360Y-161058860D01*
X121041160Y-161058860D01*
X121676160Y-160797240D01*
X122161300Y-160312100D01*
X122425460Y-159679640D01*
X122425460Y-158993840D01*
X122425460Y-158927800D01*
X122163840Y-158292800D01*
X121678700Y-157807660D01*
X121046240Y-157543500D01*
X120360440Y-157543500D01*
X119725440Y-157805120D01*
X119240300Y-158290260D01*
X119189500Y-158409640D01*
X119189500Y-134388860D01*
X119237760Y-134508240D01*
X119722900Y-134993380D01*
X120355360Y-135257540D01*
X121041160Y-135257540D01*
X121676160Y-134995920D01*
X122161300Y-134510780D01*
X122425460Y-133878320D01*
X122425460Y-133192520D01*
X122425460Y-133126480D01*
X122163840Y-132491480D01*
X121678700Y-132006340D01*
X121046240Y-131742180D01*
X120360440Y-131742180D01*
X119725440Y-132003800D01*
X119240300Y-132488940D01*
X119189500Y-132608320D01*
X119189500Y-59535060D01*
X173865540Y-59535060D01*
X173865540Y-131569460D01*
X173680120Y-131386580D01*
X173680120Y-119095520D01*
X173680120Y-118107460D01*
X173680120Y-88094820D01*
X173680120Y-87106760D01*
X173301660Y-86192360D01*
X172603160Y-85493860D01*
X171688760Y-85112860D01*
X170700700Y-85112860D01*
X170604180Y-85112860D01*
X169689780Y-85491320D01*
X168991280Y-86189820D01*
X168610280Y-87104220D01*
X168610280Y-88092280D01*
X168988740Y-89006680D01*
X169687240Y-89705180D01*
X170601640Y-90086180D01*
X171589700Y-90086180D01*
X171686220Y-90086180D01*
X172600620Y-89707720D01*
X173299120Y-89009220D01*
X173680120Y-88094820D01*
X173680120Y-118107460D01*
X173382940Y-117388640D01*
X173382940Y-105841800D01*
X173382940Y-95158560D01*
X173316900Y-94820740D01*
X173314360Y-94818200D01*
X173123860Y-94533720D01*
X171005500Y-92415360D01*
X170721020Y-92222320D01*
X170380660Y-92156280D01*
X164340540Y-92156280D01*
X164000180Y-92222320D01*
X163715700Y-92415360D01*
X163192460Y-92938600D01*
X163034980Y-93167200D01*
X161005520Y-91137740D01*
X159585660Y-89717880D01*
X160467040Y-90086180D01*
X161455100Y-90086180D01*
X161551620Y-90086180D01*
X162466020Y-89707720D01*
X163164520Y-89009220D01*
X163545520Y-88094820D01*
X163545520Y-87106760D01*
X163167060Y-86192360D01*
X162468560Y-85493860D01*
X161554160Y-85112860D01*
X160566100Y-85112860D01*
X160469580Y-85112860D01*
X159555180Y-85491320D01*
X158856680Y-86189820D01*
X158475680Y-87104220D01*
X158475680Y-88092280D01*
X158838900Y-88971120D01*
X153786840Y-83919060D01*
X153786840Y-78798420D01*
X153786840Y-77807820D01*
X153408380Y-76890880D01*
X152707340Y-76189840D01*
X151792940Y-75808840D01*
X150802340Y-75808840D01*
X150705820Y-75808840D01*
X149788880Y-76187300D01*
X149087840Y-76888340D01*
X148706840Y-77802740D01*
X148706840Y-78793340D01*
X149085300Y-79710280D01*
X149786340Y-80411320D01*
X150700740Y-80792320D01*
X151691340Y-80792320D01*
X151787860Y-80792320D01*
X152704800Y-80413860D01*
X153405840Y-79712820D01*
X153786840Y-78798420D01*
X153786840Y-83919060D01*
X152333960Y-82466180D01*
X152049480Y-82273140D01*
X151709120Y-82207100D01*
X147010120Y-82207100D01*
X146748500Y-82156300D01*
X146359880Y-82156300D01*
X146019520Y-82222340D01*
X145735040Y-82415380D01*
X144284700Y-83863180D01*
X144274540Y-83860640D01*
X143652240Y-83860640D01*
X143652240Y-78798420D01*
X143652240Y-77807820D01*
X143273780Y-76890880D01*
X142572740Y-76189840D01*
X141658340Y-75808840D01*
X140667740Y-75808840D01*
X140571220Y-75808840D01*
X139654280Y-76187300D01*
X138953240Y-76888340D01*
X138572240Y-77802740D01*
X138572240Y-78793340D01*
X138950700Y-79710280D01*
X139651740Y-80411320D01*
X140566140Y-80792320D01*
X141556740Y-80792320D01*
X141653260Y-80792320D01*
X142570200Y-80413860D01*
X143271240Y-79712820D01*
X143652240Y-78798420D01*
X143652240Y-83860640D01*
X143629380Y-83860640D01*
X143568420Y-83860640D01*
X142971520Y-84107020D01*
X142516860Y-84561680D01*
X142494000Y-84609940D01*
X142227300Y-84663280D01*
X141942820Y-84856320D01*
X137502900Y-89296240D01*
X137093960Y-89296240D01*
X137093960Y-78867000D01*
X137093960Y-78336140D01*
X136890760Y-77845920D01*
X136517380Y-77470000D01*
X136027160Y-77266800D01*
X135496300Y-77266800D01*
X135006080Y-77470000D01*
X134630160Y-77843380D01*
X134480300Y-78198980D01*
X134368540Y-77922120D01*
X134137400Y-77863700D01*
X133957060Y-78044040D01*
X133957060Y-77683360D01*
X133898640Y-77452220D01*
X133408420Y-77282040D01*
X132890260Y-77309980D01*
X132542280Y-77452220D01*
X132483860Y-77683360D01*
X133220460Y-78419960D01*
X133957060Y-77683360D01*
X133957060Y-78044040D01*
X133400800Y-78600300D01*
X134137400Y-79336900D01*
X134368540Y-79278480D01*
X134472680Y-78976220D01*
X134630160Y-79354680D01*
X135003540Y-79730600D01*
X135493760Y-79933800D01*
X136024620Y-79933800D01*
X136514840Y-79730600D01*
X136890760Y-79357220D01*
X137093960Y-78867000D01*
X137093960Y-89296240D01*
X135933180Y-89296240D01*
X136098280Y-88905080D01*
X136098280Y-88475820D01*
X135935720Y-88079580D01*
X135763000Y-87906860D01*
X135709660Y-84477860D01*
X135671560Y-84310220D01*
X135651240Y-84198460D01*
X135646160Y-84190840D01*
X135643620Y-84188300D01*
X135486140Y-83952080D01*
X135478520Y-83947000D01*
X133957060Y-82423000D01*
X133957060Y-79517240D01*
X133220460Y-78780640D01*
X133040120Y-78960980D01*
X133040120Y-78600300D01*
X132303520Y-77863700D01*
X132072380Y-77922120D01*
X131965700Y-78221840D01*
X131810760Y-77845920D01*
X131437380Y-77470000D01*
X130947160Y-77266800D01*
X130416300Y-77266800D01*
X129926080Y-77470000D01*
X129550160Y-77843380D01*
X129471420Y-78031340D01*
X129471420Y-77777340D01*
X129374900Y-77543660D01*
X129197100Y-77365860D01*
X128965960Y-77269340D01*
X128714500Y-77269340D01*
X127317500Y-77269340D01*
X127083820Y-77365860D01*
X126906020Y-77543660D01*
X126809500Y-77774800D01*
X126809500Y-78026260D01*
X126809500Y-79423260D01*
X126906020Y-79656940D01*
X127083820Y-79834740D01*
X127314960Y-79931260D01*
X127566420Y-79931260D01*
X128963420Y-79931260D01*
X129197100Y-79834740D01*
X129374900Y-79656940D01*
X129471420Y-79425800D01*
X129471420Y-79174340D01*
X129471420Y-79164180D01*
X129550160Y-79354680D01*
X129923540Y-79730600D01*
X130413760Y-79933800D01*
X130944620Y-79933800D01*
X131434840Y-79730600D01*
X131810760Y-79357220D01*
X131958080Y-78999080D01*
X132072380Y-79278480D01*
X132303520Y-79336900D01*
X133040120Y-78600300D01*
X133040120Y-78960980D01*
X132483860Y-79517240D01*
X132542280Y-79748380D01*
X133032500Y-79918560D01*
X133550660Y-79890620D01*
X133898640Y-79748380D01*
X133957060Y-79517240D01*
X133957060Y-82423000D01*
X132679440Y-81145380D01*
X132679440Y-80926940D01*
X132516880Y-80530700D01*
X132212080Y-80225900D01*
X131815840Y-80060800D01*
X131386580Y-80060800D01*
X130990340Y-80223360D01*
X130685540Y-80528160D01*
X130520440Y-80924400D01*
X130520440Y-81353660D01*
X130683000Y-81749900D01*
X130987800Y-82054700D01*
X131384040Y-82219800D01*
X131605020Y-82219800D01*
X134193280Y-84808060D01*
X134216140Y-86210140D01*
X134208520Y-86189820D01*
X133507480Y-85488780D01*
X132593080Y-85107780D01*
X131602480Y-85107780D01*
X131505960Y-85107780D01*
X130589020Y-85486240D01*
X129887980Y-86187280D01*
X129506980Y-87101680D01*
X129506980Y-88092280D01*
X129885440Y-89009220D01*
X130172460Y-89296240D01*
X128981200Y-89296240D01*
X128640840Y-89362280D01*
X128356360Y-89555320D01*
X124752100Y-93159580D01*
X124452380Y-93159580D01*
X124452380Y-88097360D01*
X124452380Y-87106760D01*
X124073920Y-86189820D01*
X123372880Y-85488780D01*
X122458480Y-85107780D01*
X121467880Y-85107780D01*
X121371360Y-85107780D01*
X120454420Y-85486240D01*
X119753380Y-86187280D01*
X119372380Y-87101680D01*
X119372380Y-88092280D01*
X119750840Y-89009220D01*
X120451880Y-89710260D01*
X121366280Y-90091260D01*
X122356880Y-90091260D01*
X122453400Y-90091260D01*
X123370340Y-89712800D01*
X124071380Y-89011760D01*
X124452380Y-88097360D01*
X124452380Y-93159580D01*
X124429520Y-93159580D01*
X124368560Y-93159580D01*
X123771660Y-93405960D01*
X123317000Y-93860620D01*
X123068080Y-94454980D01*
X123068080Y-95100140D01*
X123314460Y-95697040D01*
X123769120Y-96151700D01*
X124363480Y-96400620D01*
X125008640Y-96400620D01*
X125069600Y-96400620D01*
X125666500Y-96154240D01*
X125968760Y-95851980D01*
X126268480Y-96151700D01*
X126862840Y-96400620D01*
X127508000Y-96400620D01*
X127568960Y-96400620D01*
X128165860Y-96154240D01*
X128470660Y-95846900D01*
X128739900Y-96133920D01*
X129331720Y-96405700D01*
X129590800Y-96288860D01*
X129590800Y-95034100D01*
X129590800Y-94907100D01*
X129590800Y-94653100D01*
X129590800Y-94526100D01*
X129590800Y-93271340D01*
X129331720Y-93154500D01*
X128739900Y-93426280D01*
X128470660Y-93710760D01*
X128168400Y-93408500D01*
X127574040Y-93159580D01*
X127251460Y-93159580D01*
X129346960Y-91064080D01*
X137868660Y-91064080D01*
X138206480Y-90998040D01*
X138209020Y-90998040D01*
X138493500Y-90805000D01*
X142707360Y-86591140D01*
X142968980Y-86852760D01*
X143563340Y-87101680D01*
X144208500Y-87101680D01*
X144269460Y-87101680D01*
X144866360Y-86855300D01*
X145168620Y-86553040D01*
X145468340Y-86852760D01*
X146062700Y-87101680D01*
X146707860Y-87101680D01*
X146768820Y-87101680D01*
X147365720Y-86855300D01*
X147670520Y-86547960D01*
X147939760Y-86834980D01*
X148531580Y-87106760D01*
X148790660Y-86989920D01*
X148790660Y-85735160D01*
X148790660Y-85608160D01*
X148790660Y-85354160D01*
X149044660Y-85354160D01*
X149171660Y-85354160D01*
X150403560Y-85354160D01*
X150522940Y-85097620D01*
X150340060Y-84604860D01*
X149895560Y-84127340D01*
X149562820Y-83974940D01*
X151343360Y-83974940D01*
X159755840Y-92387420D01*
X162166300Y-94797880D01*
X162166300Y-95100140D01*
X162412680Y-95697040D01*
X162867340Y-96151700D01*
X163436300Y-96390460D01*
X159024320Y-96390460D01*
X155747720Y-93113860D01*
X155582620Y-93002100D01*
X155638500Y-92875100D01*
X155638500Y-92445840D01*
X155475940Y-92049600D01*
X155171140Y-91744800D01*
X154774900Y-91579700D01*
X154485340Y-91579700D01*
X154442160Y-91549220D01*
X154391360Y-91539060D01*
X154150060Y-91490800D01*
X150522940Y-91490800D01*
X150522940Y-85864700D01*
X150403560Y-85608160D01*
X149044660Y-85608160D01*
X149044660Y-86989920D01*
X149303740Y-87106760D01*
X149895560Y-86834980D01*
X150340060Y-86357460D01*
X150522940Y-85864700D01*
X150522940Y-91490800D01*
X147830540Y-91490800D01*
X147540980Y-91549220D01*
X147457160Y-91605100D01*
X147292060Y-91714320D01*
X146253200Y-92755720D01*
X146138900Y-92918280D01*
X143824960Y-90604340D01*
X143824960Y-89595960D01*
X143901160Y-89519760D01*
X143944340Y-89519760D01*
X144340580Y-89357200D01*
X144645380Y-89052400D01*
X144810480Y-88656160D01*
X144810480Y-88226900D01*
X144647920Y-87830660D01*
X144343120Y-87525860D01*
X143946880Y-87360760D01*
X143517620Y-87360760D01*
X143121380Y-87523320D01*
X142816580Y-87828120D01*
X142775940Y-87919560D01*
X142732760Y-87876380D01*
X142336520Y-87711280D01*
X141907260Y-87711280D01*
X141511020Y-87873840D01*
X141206220Y-88178640D01*
X141041120Y-88574880D01*
X141041120Y-88607900D01*
X138145520Y-91414600D01*
X138140440Y-91419680D01*
X138135360Y-91424760D01*
X138066780Y-91523820D01*
X137947400Y-91696540D01*
X137944860Y-91706700D01*
X137942320Y-91711780D01*
X137914380Y-91851480D01*
X137876280Y-92036900D01*
X137876280Y-92041980D01*
X137876280Y-92049600D01*
X137876280Y-106504740D01*
X137035540Y-107345480D01*
X136842500Y-107629960D01*
X136776460Y-107970320D01*
X136776460Y-109608620D01*
X136842500Y-109948980D01*
X137035540Y-110233460D01*
X137716260Y-110914180D01*
X138000740Y-111107220D01*
X138003280Y-111107220D01*
X138341100Y-111173260D01*
X145869660Y-111173260D01*
X146537680Y-111173260D01*
X146568160Y-111203740D01*
X146964400Y-111368840D01*
X147246340Y-111368840D01*
X147312380Y-111528860D01*
X147617180Y-111833660D01*
X148013420Y-111998760D01*
X148442680Y-111998760D01*
X148838920Y-111836200D01*
X148871940Y-111803180D01*
X149672040Y-111803180D01*
X151516080Y-113647220D01*
X151516080Y-114099340D01*
X151236680Y-114378740D01*
X151071580Y-114774980D01*
X151071580Y-115204240D01*
X151234140Y-115600480D01*
X151538940Y-115905280D01*
X151935180Y-116070380D01*
X152364440Y-116070380D01*
X152760680Y-115907820D01*
X152986740Y-115681760D01*
X153266140Y-115961160D01*
X149740620Y-119486680D01*
X142669260Y-119486680D01*
X142328900Y-119552720D01*
X142044420Y-119745760D01*
X141848840Y-119941340D01*
X141848840Y-119697500D01*
X141686280Y-119301260D01*
X141381480Y-118996460D01*
X140985240Y-118831360D01*
X140555980Y-118831360D01*
X140159740Y-118993920D01*
X139854940Y-119298720D01*
X139689840Y-119694960D01*
X139689840Y-119740680D01*
X136385300Y-123045220D01*
X134581900Y-123045220D01*
X134581900Y-119095520D01*
X134581900Y-118107460D01*
X134203440Y-117193060D01*
X133504940Y-116494560D01*
X132590540Y-116113560D01*
X131602480Y-116113560D01*
X131505960Y-116113560D01*
X131323080Y-116187220D01*
X131323080Y-95163640D01*
X131323080Y-94396560D01*
X131140200Y-93903800D01*
X130695700Y-93426280D01*
X130103880Y-93154500D01*
X129844800Y-93271340D01*
X129844800Y-94653100D01*
X131203700Y-94653100D01*
X131323080Y-94396560D01*
X131323080Y-95163640D01*
X131203700Y-94907100D01*
X129844800Y-94907100D01*
X129844800Y-96288860D01*
X130103880Y-96405700D01*
X130695700Y-96133920D01*
X131140200Y-95656400D01*
X131323080Y-95163640D01*
X131323080Y-116187220D01*
X130591560Y-116492020D01*
X129893060Y-117190520D01*
X129512060Y-118104920D01*
X129512060Y-119092980D01*
X129890520Y-120007380D01*
X130589020Y-120705880D01*
X131503420Y-121086880D01*
X132491480Y-121086880D01*
X132588000Y-121086880D01*
X133502400Y-120708420D01*
X134200900Y-120009920D01*
X134581900Y-119095520D01*
X134581900Y-123045220D01*
X129070100Y-123045220D01*
X128732280Y-123111260D01*
X128445260Y-123304300D01*
X128442720Y-123304300D01*
X128442720Y-123306840D01*
X127584200Y-124162820D01*
X127574040Y-124160280D01*
X126928880Y-124160280D01*
X126867920Y-124160280D01*
X126271020Y-124406660D01*
X125968760Y-124708920D01*
X125669040Y-124409200D01*
X125074680Y-124160280D01*
X124452380Y-124160280D01*
X124452380Y-119098060D01*
X124452380Y-118107460D01*
X124073920Y-117190520D01*
X123372880Y-116489480D01*
X122458480Y-116108480D01*
X121467880Y-116108480D01*
X121371360Y-116108480D01*
X120454420Y-116486940D01*
X119753380Y-117187980D01*
X119372380Y-118102380D01*
X119372380Y-119092980D01*
X119750840Y-120009920D01*
X120451880Y-120710960D01*
X121366280Y-121091960D01*
X122356880Y-121091960D01*
X122453400Y-121091960D01*
X123370340Y-120713500D01*
X124071380Y-120012460D01*
X124452380Y-119098060D01*
X124452380Y-124160280D01*
X124429520Y-124160280D01*
X124368560Y-124160280D01*
X123771660Y-124406660D01*
X123317000Y-124861320D01*
X123068080Y-125455680D01*
X123068080Y-126100840D01*
X123314460Y-126697740D01*
X123769120Y-127152400D01*
X124363480Y-127401320D01*
X125008640Y-127401320D01*
X125069600Y-127401320D01*
X125666500Y-127154940D01*
X125968760Y-126852680D01*
X126268480Y-127152400D01*
X126862840Y-127401320D01*
X127508000Y-127401320D01*
X127568960Y-127401320D01*
X128165860Y-127154940D01*
X128470660Y-126847600D01*
X128739900Y-127134620D01*
X129331720Y-127406400D01*
X129590800Y-127289560D01*
X129590800Y-126034800D01*
X129590800Y-125907800D01*
X129590800Y-125653800D01*
X129844800Y-125653800D01*
X129971800Y-125653800D01*
X131203700Y-125653800D01*
X131323080Y-125397260D01*
X131140200Y-124904500D01*
X131053840Y-124813060D01*
X136751060Y-124813060D01*
X137088880Y-124747020D01*
X137091420Y-124747020D01*
X137375900Y-124553980D01*
X137919460Y-124007880D01*
X137866120Y-124289820D01*
X137866120Y-125420120D01*
X132509260Y-129608580D01*
X132509260Y-129486660D01*
X132346700Y-129090420D01*
X132041900Y-128785620D01*
X131645660Y-128620520D01*
X131323080Y-128620520D01*
X131323080Y-126164340D01*
X131203700Y-125907800D01*
X129844800Y-125907800D01*
X129844800Y-127289560D01*
X130103880Y-127406400D01*
X130695700Y-127134620D01*
X131140200Y-126657100D01*
X131323080Y-126164340D01*
X131323080Y-128620520D01*
X131216400Y-128620520D01*
X130820160Y-128783080D01*
X130515360Y-129087880D01*
X130350260Y-129484120D01*
X130350260Y-129913380D01*
X130512820Y-130309620D01*
X130586480Y-130383280D01*
X130657600Y-131561840D01*
X130477260Y-131386580D01*
X129616200Y-131046220D01*
X129225040Y-131152900D01*
X129225040Y-133245860D01*
X129225040Y-133372860D01*
X129225040Y-133626860D01*
X129225040Y-133753860D01*
X129225040Y-135846820D01*
X129527300Y-135928100D01*
X128971040Y-136690100D01*
X128971040Y-135846820D01*
X128971040Y-133626860D01*
X128971040Y-133372860D01*
X128971040Y-131152900D01*
X128579880Y-131046220D01*
X127718820Y-131386580D01*
X127360680Y-131734560D01*
X127360680Y-130738880D01*
X127360680Y-129760980D01*
X127360680Y-129664460D01*
X126987300Y-128760220D01*
X126293880Y-128066800D01*
X125389640Y-127690880D01*
X124411740Y-127690880D01*
X123507500Y-128064260D01*
X122814080Y-128757680D01*
X122438160Y-129661920D01*
X122438160Y-130639820D01*
X122438160Y-130736340D01*
X122811540Y-131640580D01*
X123504960Y-132334000D01*
X124409200Y-132709920D01*
X125387100Y-132709920D01*
X126291340Y-132336540D01*
X126984760Y-131643120D01*
X127360680Y-130738880D01*
X127360680Y-131734560D01*
X127015240Y-132074920D01*
X126629160Y-132979160D01*
X126735840Y-133372860D01*
X128971040Y-133372860D01*
X128971040Y-133626860D01*
X126735840Y-133626860D01*
X126629160Y-134020560D01*
X127015240Y-134924800D01*
X127718820Y-135613140D01*
X128579880Y-135953500D01*
X128971040Y-135846820D01*
X128971040Y-136690100D01*
X128371600Y-137515600D01*
X127215900Y-137515600D01*
X126987300Y-136959340D01*
X126293880Y-136265920D01*
X125389640Y-135890000D01*
X124411740Y-135890000D01*
X123507500Y-136263380D01*
X122814080Y-136956800D01*
X122438160Y-137861040D01*
X122438160Y-138838940D01*
X122438160Y-138935460D01*
X122811540Y-139839700D01*
X123504960Y-140533120D01*
X124409200Y-140909040D01*
X125387100Y-140909040D01*
X126291340Y-140535660D01*
X126984760Y-139842240D01*
X127215900Y-139283440D01*
X128821180Y-139283440D01*
X128884680Y-139268200D01*
X128958340Y-139273280D01*
X129054860Y-139235180D01*
X129159000Y-139217400D01*
X129214880Y-139176760D01*
X129283460Y-139153900D01*
X129359660Y-139080240D01*
X129446020Y-139024360D01*
X129484120Y-138965940D01*
X129534920Y-138920220D01*
X130797300Y-137185400D01*
X130926840Y-137314940D01*
X131323080Y-137480040D01*
X131752340Y-137480040D01*
X132148580Y-137317480D01*
X132453380Y-137012680D01*
X132618480Y-136616440D01*
X132618480Y-136187180D01*
X132600700Y-136146540D01*
X132915660Y-135402320D01*
X132935980Y-135295640D01*
X132974080Y-135196580D01*
X133642100Y-130962400D01*
X139296140Y-126547880D01*
X139339320Y-126497080D01*
X139374880Y-126474220D01*
X139423140Y-126400560D01*
X139522200Y-126288800D01*
X139542520Y-126222760D01*
X139567920Y-126187200D01*
X139585700Y-126088140D01*
X139628880Y-125961140D01*
X139623800Y-125897640D01*
X139633960Y-125849380D01*
X139633960Y-124655580D01*
X140520420Y-123766580D01*
X140533120Y-123799600D01*
X140837920Y-124104400D01*
X141234160Y-124269500D01*
X141274800Y-124269500D01*
X141274800Y-124759720D01*
X141340840Y-125100080D01*
X141452600Y-125265180D01*
X141384020Y-125247400D01*
X140522960Y-125587760D01*
X139819380Y-126276100D01*
X139433300Y-127180340D01*
X139539980Y-127574040D01*
X141648180Y-127574040D01*
X141775180Y-127574040D01*
X142029180Y-127574040D01*
X142029180Y-127828040D01*
X141775180Y-127828040D01*
X141648180Y-127828040D01*
X139539980Y-127828040D01*
X139433300Y-128221740D01*
X139722860Y-128905000D01*
X136779000Y-128905000D01*
X136438640Y-128971040D01*
X136154160Y-129164080D01*
X134424420Y-130893820D01*
X134231380Y-131178300D01*
X134165340Y-131518660D01*
X134165340Y-143515080D01*
X133809740Y-143662400D01*
X133504940Y-143967200D01*
X133339840Y-144363440D01*
X133339840Y-144792700D01*
X133502400Y-145188940D01*
X133807200Y-145493740D01*
X134203440Y-145658840D01*
X134632700Y-145658840D01*
X134894320Y-145549620D01*
X134670800Y-147256500D01*
X134670800Y-147269200D01*
X134668260Y-147281900D01*
X134678420Y-147391120D01*
X134691120Y-147599400D01*
X134698740Y-147617180D01*
X134701280Y-147627340D01*
X134754620Y-147726400D01*
X134846060Y-147909280D01*
X134858760Y-147919440D01*
X134863840Y-147929600D01*
X136540240Y-149976840D01*
X136540240Y-150114000D01*
X136702800Y-150510240D01*
X137007600Y-150815040D01*
X137403840Y-150980140D01*
X137833100Y-150980140D01*
X138229340Y-150817580D01*
X138534140Y-150512780D01*
X138699240Y-150116540D01*
X138699240Y-149687280D01*
X138536680Y-149291040D01*
X138231880Y-148986240D01*
X137894060Y-148844000D01*
X136471660Y-147106640D01*
X136870440Y-144071340D01*
X138285220Y-145486120D01*
X138285220Y-146296380D01*
X138074400Y-146507200D01*
X137909300Y-146903440D01*
X137909300Y-147332700D01*
X138071860Y-147728940D01*
X138376660Y-148033740D01*
X138772900Y-148198840D01*
X139202160Y-148198840D01*
X139598400Y-148036280D01*
X139903200Y-147731480D01*
X140068300Y-147335240D01*
X140068300Y-146905980D01*
X140053060Y-146867880D01*
X140053060Y-145120360D01*
X139987020Y-144782540D01*
X139987020Y-144780000D01*
X139793980Y-144495520D01*
X138003280Y-142704820D01*
X138003280Y-141899640D01*
X138018520Y-141914880D01*
X138414760Y-142079980D01*
X138844020Y-142079980D01*
X139141200Y-141955520D01*
X144157700Y-142608300D01*
X144218660Y-142603220D01*
X144282160Y-142615920D01*
X144355820Y-142613380D01*
X144015460Y-142956280D01*
X143639540Y-143860520D01*
X143639540Y-144838420D01*
X143639540Y-144934940D01*
X144012920Y-145839180D01*
X144706340Y-146532600D01*
X145610580Y-146908520D01*
X146588480Y-146908520D01*
X147492720Y-146535140D01*
X148186140Y-145841720D01*
X148562060Y-144937480D01*
X148562060Y-143959580D01*
X148562060Y-143863060D01*
X148188680Y-142958820D01*
X147807680Y-142577820D01*
X148559520Y-142570200D01*
X152600660Y-146611340D01*
X152430480Y-146682460D01*
X152125680Y-146987260D01*
X151960580Y-147383500D01*
X151960580Y-147812760D01*
X152123140Y-148209000D01*
X152427940Y-148513800D01*
X152824180Y-148678900D01*
X153253440Y-148678900D01*
X153649680Y-148516340D01*
X153682700Y-148483320D01*
X154256740Y-148483320D01*
X154282140Y-148539200D01*
X154586940Y-148844000D01*
X154983180Y-149009100D01*
X155412440Y-149009100D01*
X155808680Y-148846540D01*
X156113480Y-148541740D01*
X156278580Y-148145500D01*
X156278580Y-148099780D01*
X156702760Y-147675600D01*
X156895800Y-147391120D01*
X156895800Y-147388580D01*
X156961840Y-147050760D01*
X156961840Y-132697220D01*
X156895800Y-132359400D01*
X156893260Y-132356860D01*
X156829760Y-132262880D01*
X156702760Y-132072380D01*
X156702760Y-132069840D01*
X156319220Y-131686300D01*
X156319220Y-131645660D01*
X156156660Y-131249420D01*
X155851860Y-130944620D01*
X155455620Y-130779520D01*
X155026360Y-130779520D01*
X154630120Y-130942080D01*
X154325320Y-131246880D01*
X154315160Y-131267200D01*
X154023060Y-130975100D01*
X153626820Y-130810000D01*
X153197560Y-130810000D01*
X152801320Y-130972560D01*
X152496520Y-131277360D01*
X152331420Y-131673600D01*
X152331420Y-132102860D01*
X152493980Y-132499100D01*
X152527000Y-132532120D01*
X152527000Y-136458960D01*
X152527000Y-138412220D01*
X152382220Y-138074400D01*
X151678640Y-137386060D01*
X150817580Y-137045700D01*
X150426420Y-137152380D01*
X150426420Y-139245340D01*
X150426420Y-139372340D01*
X150426420Y-139626340D01*
X150172420Y-139626340D01*
X150172420Y-139372340D01*
X150172420Y-137152380D01*
X149781260Y-137045700D01*
X148920200Y-137386060D01*
X148216620Y-138074400D01*
X147830540Y-138978640D01*
X147937220Y-139372340D01*
X150172420Y-139372340D01*
X150172420Y-139626340D01*
X150045420Y-139626340D01*
X147937220Y-139626340D01*
X147830540Y-140020040D01*
X148165820Y-140807440D01*
X144320260Y-140845540D01*
X143172180Y-140698220D01*
X143362680Y-140510260D01*
X143626840Y-139877800D01*
X143626840Y-139192000D01*
X143626840Y-139125960D01*
X143365220Y-138490960D01*
X142880080Y-138005820D01*
X142331440Y-137774680D01*
X143639540Y-136469120D01*
X143639540Y-136639300D01*
X143639540Y-136735820D01*
X144012920Y-137640060D01*
X144706340Y-138333480D01*
X145610580Y-138709400D01*
X146588480Y-138709400D01*
X147492720Y-138336020D01*
X148186140Y-137642600D01*
X148562060Y-136738360D01*
X148562060Y-135760460D01*
X148562060Y-135663940D01*
X148188680Y-134759700D01*
X147678140Y-134249160D01*
X147805140Y-134165340D01*
X152405080Y-129565400D01*
X152415240Y-129557780D01*
X152422860Y-129555240D01*
X152654000Y-129326640D01*
X152654000Y-129324100D01*
X152781000Y-129133600D01*
X152844500Y-129039620D01*
X152847040Y-129037080D01*
X152910540Y-128699260D01*
X152913080Y-128699260D01*
X152913080Y-124630180D01*
X154553920Y-123339860D01*
X154713940Y-123339860D01*
X155110180Y-123177300D01*
X155414980Y-122872500D01*
X155506420Y-122651520D01*
X155506420Y-126105920D01*
X155361640Y-126453900D01*
X155361640Y-126883160D01*
X155524200Y-127279400D01*
X155829000Y-127584200D01*
X156225240Y-127749300D01*
X156626560Y-127749300D01*
X156626560Y-130792220D01*
X156692600Y-131132580D01*
X156885640Y-131417060D01*
X157949900Y-132481320D01*
X157949900Y-132524500D01*
X158112460Y-132920740D01*
X158417260Y-133225540D01*
X158813500Y-133390640D01*
X158864300Y-133390640D01*
X158856680Y-133431280D01*
X158856680Y-144609820D01*
X158762700Y-144515840D01*
X158366460Y-144350740D01*
X157937200Y-144350740D01*
X157540960Y-144513300D01*
X157236160Y-144818100D01*
X157071060Y-145214340D01*
X157071060Y-145643600D01*
X157233620Y-146039840D01*
X157243780Y-146050000D01*
X157195520Y-147472400D01*
X156639260Y-150332440D01*
X152689560Y-152460960D01*
X152336500Y-152460960D01*
X151940260Y-152623520D01*
X151635460Y-152928320D01*
X151470360Y-153324560D01*
X151470360Y-153753820D01*
X151632920Y-154150060D01*
X151937720Y-154454860D01*
X152333960Y-154619960D01*
X152763220Y-154619960D01*
X153159460Y-154457400D01*
X153464260Y-154152600D01*
X153517600Y-154020520D01*
X157375860Y-151942800D01*
X157312360Y-154975560D01*
X156349700Y-155940760D01*
X156306520Y-155940760D01*
X155910280Y-156103320D01*
X155605480Y-156408120D01*
X155440380Y-156804360D01*
X155440380Y-157233620D01*
X155602940Y-157629860D01*
X155907740Y-157934660D01*
X156303980Y-158099760D01*
X156733240Y-158099760D01*
X157129480Y-157937200D01*
X157434280Y-157632400D01*
X157599380Y-157236160D01*
X157599380Y-157190440D01*
X158803340Y-155986480D01*
X158816040Y-155973780D01*
X158892240Y-155859480D01*
X159001460Y-155704540D01*
X159001460Y-155691840D01*
X159006540Y-155689300D01*
X159026860Y-155582620D01*
X159075120Y-155366720D01*
X159075120Y-155348940D01*
X159097980Y-154218640D01*
X159423100Y-154218640D01*
X159819340Y-154056080D01*
X160124140Y-153751280D01*
X160289240Y-153355040D01*
X160289240Y-152925780D01*
X160225740Y-152773380D01*
X160682940Y-151114760D01*
X160835340Y-151178260D01*
X161264600Y-151178260D01*
X161660840Y-151015700D01*
X161693860Y-150982680D01*
X161851340Y-150982680D01*
X162189160Y-150916640D01*
X162191700Y-150916640D01*
X162476180Y-150723600D01*
X163565840Y-149636480D01*
X163565840Y-149633940D01*
X163692840Y-149443440D01*
X163756340Y-149349460D01*
X163758880Y-149346920D01*
X163822380Y-149009100D01*
X163824920Y-149009100D01*
X163824920Y-138704320D01*
X164144960Y-139024360D01*
X164429440Y-139217400D01*
X164431980Y-139217400D01*
X164769800Y-139283440D01*
X165780720Y-139283440D01*
X166011860Y-139839700D01*
X166705280Y-140533120D01*
X167144700Y-140716000D01*
X165983920Y-140716000D01*
X165750240Y-140812520D01*
X165572440Y-140990320D01*
X165475920Y-141221460D01*
X165475920Y-141472920D01*
X165475920Y-142996920D01*
X165572440Y-143230600D01*
X165750240Y-143408400D01*
X165981380Y-143504920D01*
X166138860Y-143504920D01*
X166088060Y-143690340D01*
X166870380Y-144470120D01*
X167652700Y-143690340D01*
X167599360Y-143504920D01*
X167756840Y-143504920D01*
X167990520Y-143408400D01*
X168168320Y-143230600D01*
X168264840Y-142999460D01*
X168264840Y-142935960D01*
X168620440Y-143291560D01*
X168851580Y-143385540D01*
X168696640Y-143451580D01*
X168628060Y-143690340D01*
X169410380Y-144470120D01*
X170192700Y-143690340D01*
X170124120Y-143451580D01*
X169956480Y-143390620D01*
X170200320Y-143291560D01*
X170591480Y-142900400D01*
X170804840Y-142387320D01*
X170804840Y-141833600D01*
X170591480Y-141320520D01*
X170200320Y-140929360D01*
X169687240Y-140716000D01*
X169133520Y-140716000D01*
X168620440Y-140929360D01*
X168264840Y-141284960D01*
X168264840Y-141224000D01*
X168168320Y-140990320D01*
X168087040Y-140909040D01*
X168587420Y-140909040D01*
X169491660Y-140535660D01*
X170185080Y-139842240D01*
X170561000Y-138938000D01*
X170561000Y-137960100D01*
X170561000Y-137863580D01*
X170187620Y-136959340D01*
X169494200Y-136265920D01*
X168589960Y-135890000D01*
X167612060Y-135890000D01*
X166707820Y-136263380D01*
X166014400Y-136956800D01*
X165780720Y-137515600D01*
X165135560Y-137515600D01*
X163118800Y-135498840D01*
X163118800Y-135455660D01*
X162956240Y-135059420D01*
X162651440Y-134754620D01*
X162255200Y-134589520D01*
X161973260Y-134589520D01*
X161973260Y-133817360D01*
X162176460Y-133614160D01*
X162176460Y-133807200D01*
X162176460Y-133873240D01*
X162438080Y-134508240D01*
X162923220Y-134993380D01*
X163555680Y-135257540D01*
X164241480Y-135257540D01*
X164876480Y-134995920D01*
X165361620Y-134510780D01*
X165625780Y-133878320D01*
X165625780Y-133555740D01*
X166890700Y-134820660D01*
X166890700Y-134863840D01*
X167053260Y-135260080D01*
X167358060Y-135564880D01*
X167754300Y-135729980D01*
X168183560Y-135729980D01*
X168579800Y-135567420D01*
X168884600Y-135262620D01*
X169049700Y-134866380D01*
X169049700Y-134437120D01*
X168887140Y-134040880D01*
X168582340Y-133736080D01*
X168186100Y-133570980D01*
X168140380Y-133570980D01*
X167043100Y-132473700D01*
X167609520Y-132709920D01*
X168587420Y-132709920D01*
X169491660Y-132336540D01*
X170185080Y-131643120D01*
X170561000Y-130738880D01*
X170561000Y-129760980D01*
X170561000Y-129664460D01*
X170421300Y-129324100D01*
X170421300Y-126164340D01*
X170421300Y-125397260D01*
X170238420Y-124904500D01*
X169793920Y-124426980D01*
X169202100Y-124155200D01*
X168943020Y-124272040D01*
X168943020Y-125653800D01*
X170301920Y-125653800D01*
X170421300Y-125397260D01*
X170421300Y-126164340D01*
X170301920Y-125907800D01*
X168943020Y-125907800D01*
X168943020Y-127289560D01*
X169202100Y-127406400D01*
X169793920Y-127134620D01*
X170238420Y-126657100D01*
X170421300Y-126164340D01*
X170421300Y-129324100D01*
X170187620Y-128760220D01*
X169494200Y-128066800D01*
X168589960Y-127690880D01*
X167612060Y-127690880D01*
X166707820Y-128064260D01*
X166014400Y-128757680D01*
X165638480Y-129661920D01*
X165638480Y-130639820D01*
X165638480Y-130736340D01*
X165872160Y-131302760D01*
X162913060Y-128343660D01*
X162913060Y-127170180D01*
X163461700Y-127401320D01*
X164106860Y-127401320D01*
X164167820Y-127401320D01*
X164764720Y-127154940D01*
X165066980Y-126852680D01*
X165366700Y-127152400D01*
X165961060Y-127401320D01*
X166606220Y-127401320D01*
X166667180Y-127401320D01*
X167264080Y-127154940D01*
X167568880Y-126847600D01*
X167838120Y-127134620D01*
X168429940Y-127406400D01*
X168689020Y-127289560D01*
X168689020Y-126034800D01*
X168689020Y-125907800D01*
X168689020Y-125653800D01*
X168689020Y-125526800D01*
X168689020Y-124272040D01*
X168429940Y-124155200D01*
X167838120Y-124426980D01*
X167568880Y-124711460D01*
X167266620Y-124409200D01*
X166682420Y-124162820D01*
X167535860Y-123311920D01*
X167726360Y-123027440D01*
X167728900Y-123024900D01*
X167794940Y-122687080D01*
X167794940Y-111795560D01*
X173123860Y-106466640D01*
X173316900Y-106182160D01*
X173316900Y-106179620D01*
X173382940Y-105841800D01*
X173382940Y-117388640D01*
X173301660Y-117193060D01*
X172603160Y-116494560D01*
X171688760Y-116113560D01*
X170700700Y-116113560D01*
X170604180Y-116113560D01*
X169689780Y-116492020D01*
X168991280Y-117190520D01*
X168610280Y-118104920D01*
X168610280Y-119092980D01*
X168988740Y-120007380D01*
X169687240Y-120705880D01*
X170601640Y-121086880D01*
X171589700Y-121086880D01*
X171686220Y-121086880D01*
X172600620Y-120708420D01*
X173299120Y-120009920D01*
X173680120Y-119095520D01*
X173680120Y-131386580D01*
X173677580Y-131386580D01*
X172816520Y-131046220D01*
X172425360Y-131152900D01*
X172425360Y-133245860D01*
X172425360Y-133372860D01*
X172425360Y-133626860D01*
X172425360Y-133753860D01*
X172425360Y-135846820D01*
X172816520Y-135953500D01*
X173677580Y-135613140D01*
X173865540Y-135427720D01*
X173865540Y-157370780D01*
X173677580Y-157187900D01*
X172816520Y-156847540D01*
X172425360Y-156954220D01*
X172425360Y-159047180D01*
X172425360Y-159174180D01*
X172425360Y-159428180D01*
X172425360Y-159555180D01*
X172425360Y-161648140D01*
X172816520Y-161754820D01*
X173677580Y-161414460D01*
X173865540Y-161229040D01*
X173865540Y-166314120D01*
G04 #@! TD*
M02*
